<?xml version="1.0" encoding="UTF-8"?>
<svg id="Calque_2" data-name="Calque 2" xmlns="http://www.w3.org/2000/svg" xmlns:xlink="http://www.w3.org/1999/xlink" viewBox="0 0 186.32 64.36">
  <defs>
    <style>
      .cls-1 {
        fill: none;
        stroke: #260f26;
        stroke-linecap: round;
        stroke-linejoin: round;
        stroke-width: 2px;
      }

      .cls-2 {
        fill: url(#Nouvelle_nuance_de_dégradé_1_5-2);
      }

      .cls-3 {
        fill: url(#Nouvelle_nuance_de_dégradé_1_5);
      }

      .cls-4 {
        fill: url(#Nouvelle_nuance_de_dégradé_1_7);
      }
    </style>
    <linearGradient id="Nouvelle_nuance_de_dégradé_1_5" data-name="Nouvelle nuance de dégradé 1 5" x1="1" y1="32.68" x2="47.68" y2="32.68" gradientUnits="userSpaceOnUse">
      <stop offset="0" stop-color="#b78ad4"/>
      <stop offset="1" stop-color="#934ebf"/>
    </linearGradient>
    <linearGradient id="Nouvelle_nuance_de_dégradé_1_5-2" data-name="Nouvelle nuance de dégradé 1 5" x1="70.97" y1="35.01" x2="106.38" y2="35.01" xlink:href="#Nouvelle_nuance_de_dégradé_1_5"/>
    <linearGradient id="Nouvelle_nuance_de_dégradé_1_7" data-name="Nouvelle nuance de dégradé 1 7" x1="127.81" y1="33.14" x2="186.32" y2="33.14" gradientUnits="userSpaceOnUse">
      <stop offset="0" stop-color="#f39ba8"/>
      <stop offset="1" stop-color="#f36177"/>
    </linearGradient>
  </defs>
  <g id="Calque_14" data-name="Calque 14">
    <g>
      <path class="cls-3" d="M1,62.49v-8.48c0-1.96,1.4-3.54,2.52-4.29,7.73-5.59,25.06-18.07,25.06-31.68,0-2.61-1.3-4.38-3.82-4.38-3.54,0-4.94,2.33-6.15,8.85-.37,1.58-1.4,2.33-3.26,2.33-7.45,0-12.39-2.89-12.39-5.78C2.96,11.44,9.67,1,26.34,1c14.35,0,20.4,7.55,20.31,17.24-.09,17.8-24.04,31.21-24.04,31.21h5.78c14.16,0,16.21-1.77,17.7-1.77,.93,0,1.58,.75,1.58,1.68,0,1.58,0,3.07-.19,4.57-.37,5.87-1.77,10.44-5.12,10.44H2.77c-1.03,0-1.77-.65-1.77-1.86Z"/>
      <path class="cls-2" d="M104.42,28.3c1.02,0,1.96,2.14,1.96,6.89s-.93,6.52-1.96,6.52h-31.49c-1.03,0-1.96-1.77-1.96-6.52s.93-6.89,1.96-6.89h31.49Z"/>
      <path class="cls-4" d="M129.39,5.57c-.28-.47-.65-1.12-.65-1.58,0-1.49,1.96-2.05,8.48-2.05,7.64,0,10.16,.93,11.18,2.42l9.88,15.19c4.01-5.96,5.68-10.53,6.8-15.19,.37-1.68,5.12-2.42,10.71-2.42,4.84,0,10.53,.37,10.53,2.42,0,7.36-8.2,16.86-19.01,28.98l18.08,27.39c.37,.47,.65,1.12,.65,1.58,0,1.49-2.89,2.05-9.41,2.05-7.64,0-9.22-.93-10.25-2.42l-9.97-15.19c-4.1,5.96-6.34,10.9-7.36,15.19-.37,1.68-5.12,2.42-10.71,2.42-4.84,0-10.53-.37-10.53-2.42,0-6.8,9.88-17.8,19.57-28.88l-17.98-27.49Z"/>
      <path class="cls-1" d="M70.96,35.11c0-4.75,.93-6.89,1.96-6.89h31.49"/>
      <path class="cls-1" d="M165.37,60.33l-7.63-11.63"/>
      <path class="cls-1" d="M128.8,57.55c2.75-6.68,10.72-15.6,18.56-24.58l-17.98-27.49c-.28-.47-.65-1.12-.65-1.58,0-1.49,1.96-2.05,8.48-2.05,7.64,0,10.16,.93,11.18,2.42l9.88,15.19c4.01-5.96,5.68-10.53,6.8-15.19,.37-1.68,5.12-2.42,10.71-2.42,2.88,0,6.06,.13,8.16,.67"/>
      <path class="cls-1" d="M1,59.81v-5.8c0-1.96,1.4-3.54,2.52-4.29,7.73-5.59,25.06-18.07,25.06-31.68,0-2.61-1.3-4.38-3.82-4.38-3.54,0-4.94,2.33-6.15,8.85-.37,1.58-1.4,2.33-3.26,2.33-7.45,0-12.39-2.89-12.39-5.78C2.96,11.44,9.67,1,26.34,1c14.35,0,20.4,7.55,20.31,17.24-.04,7.92-4.81,14.97-10.08,20.36"/>
    </g>
  </g>
</svg>