<?xml version="1.0" encoding="UTF-8"?>
<svg id="Calque_2" data-name="Calque 2" xmlns="http://www.w3.org/2000/svg" xmlns:xlink="http://www.w3.org/1999/xlink" viewBox="0 0 592.49 654.46">
  <defs>
    <style>
      .cls-1, .cls-2, .cls-3 {
        fill: #260f26;
      }

      .cls-4 {
        fill: #7c9ede;
      }

      .cls-5 {
        fill: url(#Dégradé_sans_nom_465-3);
      }

      .cls-6 {
        fill: url(#Dégradé_sans_nom_17);
      }

      .cls-7 {
        fill: url(#Dégradé_sans_nom_465-2);
      }

      .cls-8 {
        fill: none;
      }

      .cls-8, .cls-9, .cls-2 {
        stroke-linecap: round;
        stroke-miterlimit: 10;
      }

      .cls-8, .cls-9, .cls-2, .cls-3 {
        stroke: #260f26;
        stroke-width: 2px;
      }

      .cls-10 {
        fill: url(#Dégradé_sans_nom_465);
      }

      .cls-11, .cls-9 {
        fill: #fcdfcd;
      }

      .cls-12 {
        fill: url(#Dégradé_sans_nom_465-4);
      }

      .cls-13 {
        fill: url(#Dégradé_sans_nom_40);
      }

      .cls-14 {
        fill: url(#Dégradé_sans_nom_465-5);
      }
    </style>
    <linearGradient id="Dégradé_sans_nom_465" data-name="Dégradé sans nom 465" x1="173.7" y1="13.37" x2="88.76" y2="662.58" gradientUnits="userSpaceOnUse">
      <stop offset="0" stop-color="#dfb0ff"/>
      <stop offset=".06" stop-color="#e0b5fe"/>
      <stop offset=".13" stop-color="#e5c4fc"/>
      <stop offset=".16" stop-color="#e9cefc"/>
      <stop offset=".58" stop-color="#f5e7fa"/>
      <stop offset="1" stop-color="#fffcf9"/>
    </linearGradient>
    <linearGradient id="Dégradé_sans_nom_465-2" data-name="Dégradé sans nom 465" x1="237.61" y1="21.73" x2="152.67" y2="670.94" xlink:href="#Dégradé_sans_nom_465"/>
    <linearGradient id="Dégradé_sans_nom_465-3" data-name="Dégradé sans nom 465" x1="307.75" y1="30.91" x2="222.81" y2="680.12" xlink:href="#Dégradé_sans_nom_465"/>
    <linearGradient id="Dégradé_sans_nom_465-4" data-name="Dégradé sans nom 465" x1="382" y1="40.62" x2="297.06" y2="689.84" xlink:href="#Dégradé_sans_nom_465"/>
    <linearGradient id="Dégradé_sans_nom_465-5" data-name="Dégradé sans nom 465" x1="432.15" y1="47.18" x2="347.2" y2="696.4" gradientTransform="translate(-56.43 67.48) rotate(-9.26)" xlink:href="#Dégradé_sans_nom_465"/>
    <radialGradient id="Dégradé_sans_nom_40" data-name="Dégradé sans nom 40" cx="388.32" cy="392.97" fx="388.32" fy="392.97" r="77.83" gradientUnits="userSpaceOnUse">
      <stop offset="0" stop-color="#dfb0ff"/>
      <stop offset=".36" stop-color="#ddadff"/>
      <stop offset=".6" stop-color="#daa4ff"/>
      <stop offset=".8" stop-color="#d495ff"/>
      <stop offset=".9" stop-color="#d08aff"/>
    </radialGradient>
    <radialGradient id="Dégradé_sans_nom_17" data-name="Dégradé sans nom 17" cx="383.47" cy="388.93" fx="383.47" fy="388.93" r="153.16" gradientUnits="userSpaceOnUse">
      <stop offset="0" stop-color="#b78ad4"/>
      <stop offset=".3" stop-color="#b586d2"/>
      <stop offset=".53" stop-color="#af7ccf"/>
      <stop offset=".75" stop-color="#a56cc9"/>
      <stop offset=".95" stop-color="#9654c1"/>
      <stop offset="1" stop-color="#934ebf"/>
    </radialGradient>
  </defs>
  <g id="cartes">
    <path class="cls-10" d="M181.32,546.1L5.23,180.08c-12.64-26.27-1.59-57.81,24.68-70.45L246.91,5.23c26.27-12.64,57.81-1.59,70.45,24.68l7.48,15.54-143.51,500.64Z"/>
    <g>
      <path class="cls-3" d="M63.84,210.24c-4.76,1.83-11.65,38.59,3.89,35.64,5.03-.96,6.45-6.69,5.99-10.77-.03-.3,.36-.43,.52-.17,2.39,3.93,5.68,7.64,10.54,4.9,13.21-7.44-14.34-32.13-20.94-29.59Z"/>
      <path class="cls-3" d="M76.11,253.69c1.74,.19,5.73-.83,6.36-1.17,.59-.32-5.5-11.56-7.71-14.44-.13-.17-.39-.08-.39,.13,.02,2.96,.2,15.32,1.73,15.49Z"/>
    </g>
    <path class="cls-1" d="M62.74,188.87l-1.04-2.15c3.54-1.98,5.1-3.42,4.65-4.34-.21-.44-.5-.83-.86-1.17l-8.17-7.86-14.9,7.17c.48,6.01,1.1,9.79,1.85,11.34s3.18,1.37,7.4-.32l1.04,2.15-16.01,7.7-1.04-2.15c1.58-.91,2.71-1.92,3.4-3.05,.69-1.13,1.06-2.3,1.12-3.5,.06-1.21-.29-6.68-1.04-16.41l-2.22-28.04,2.39-1.15,31.79,29.84c2.29,2.16,5.06,2.59,8.31,1.27l1.04,2.15-17.71,8.52Zm-22.07-31.02l1.6,19.49,12.75-6.13-14.35-13.36Z"/>
    <path class="cls-7" d="M242,586.45c-27.97,8.22-57.31-7.78-65.53-35.75L61.91,161.01c-8.22-27.97,7.78-57.31,35.75-65.53L328.69,27.56c27.97-8.22,57.31,7.78,65.53,35.75L242,586.45Z"/>
    <path class="cls-8" d="M176.47,550.7L61.91,161.01c-8.22-27.97,7.78-57.31,35.75-65.53L328.69,27.56"/>
    <g>
      <path class="cls-3" d="M120,193.01c-4.96,1.19-16.66,36.71-.87,35.84,5.11-.28,7.28-5.78,7.37-9.88,0-.31,.42-.38,.54-.1,1.84,4.21,4.61,8.32,9.8,6.25,14.08-5.62-9.96-33.75-16.83-32.1Z"/>
      <path class="cls-3" d="M126.4,237.71c1.7,.42,5.79-.06,6.46-.32,.63-.24-3.92-12.19-5.73-15.34-.1-.18-.37-.13-.4,.08-.37,2.94-1.83,15.21-.34,15.58Z"/>
    </g>
    <path class="cls-1" d="M125.54,171.56c-6.68-5.84-14.69-11.48-24.05-16.95l-.76,.22,4.62,15.7c.33,1.13,.92,1.93,1.77,2.42,.85,.49,2.66,.46,5.43-.07l.67,2.29-18.73,5.51-.67-2.29c2.38-.93,3.76-1.56,4.15-1.88s.67-.79,.84-1.39,.13-1.33-.12-2.18l-9.59-32.62c-.75-2.55-3.16-3.41-7.23-2.58l-.66-2.26,18.73-5.51,.66,2.26c-2.2,.85-3.66,1.65-4.38,2.4-.73,.74-.87,1.86-.44,3.35l4.59,15.61,.57-.17c3.44-5.19,6.11-9.89,8.01-14.12s2.65-7.04,2.24-8.45c-.26-.87-1.98-.94-5.18-.21l-.66-2.26,16.98-4.99,.66,2.26c-1.23,.36-2.45,.94-3.66,1.73-1.21,.79-1.99,1.45-2.35,1.97-.36,.52-1.38,2.62-3.06,6.3-2.54,5.48-4.91,10.11-7.1,13.89,4.3,2.7,9.27,6.03,14.91,9.98,3.99,2.82,6.53,4.52,7.61,5.1,1.08,.58,2.21,.98,3.38,1.2,1.17,.22,2.78,.12,4.83-.29l.67,2.29-12.68,3.73Z"/>
    <path class="cls-5" d="M192.92,572.27c-7.06-7.68-11.92-17.54-13.41-28.67L125.7,141.3c-3.86-28.87,16.41-55.41,45.29-59.27l238.51-31.9c28.87-3.86,55.41,16.41,59.27,45.29L192.92,572.27Z"/>
    <path class="cls-8" d="M177.15,526.84L125.53,140.93c-3.87-28.89,16.43-55.45,45.32-59.32l232.03-31.04"/>
    <g>
      <path class="cls-3" d="M170.1,184.12c-5.07,.52-21.38,34.17-5.62,35.4,5.11,.4,7.98-4.76,8.61-8.82,.05-.3,.46-.32,.55-.03,1.27,4.42,3.47,8.86,8.88,7.49,14.7-3.71-5.39-34.77-12.43-34.05Z"/>
      <path class="cls-3" d="M170.52,229.27c1.63,.64,5.75,.7,6.45,.54,.65-.15-2.27-12.6-3.64-15.96-.08-.19-.35-.18-.41,.02-.76,2.86-3.83,14.83-2.4,15.4Z"/>
    </g>
    <path class="cls-1" d="M177.03,157.51c.25,2.51,1.31,4.65,3.16,6.41,1.85,1.76,3.75,2.57,5.69,2.42,2.19-.16,3.97-.43,5.37-.8,.35-.09,.69-.17,1.01-.24l.19,2.58c-3.04,1.18-6.31,1.9-9.79,2.16s-6.38-.55-8.8-2.41c-2.43-1.86-3.96-4.63-4.61-8.31-6.51,.2-11.95-1.87-16.33-6.19-4.37-4.32-6.81-9.91-7.32-16.75-.54-7.2,1.21-13.26,5.22-18.18,4.02-4.93,9.19-7.63,15.53-8.1s11.99,1.42,16.64,5.69c4.65,4.27,7.24,10.02,7.77,17.23,.41,5.54-.59,10.47-3.01,14.79-2.42,4.32-5.99,7.55-10.72,9.7Zm-10.47-44.5c-4.61,.34-8.05,2.56-10.31,6.64-2.26,4.09-3.14,9.46-2.65,16.13s2.17,11.9,5.02,15.57c2.85,3.67,6.57,5.34,11.16,5s8.08-2.55,10.33-6.61c2.25-4.06,3.13-9.44,2.63-16.13s-2.17-11.91-5.02-15.59c-2.85-3.68-6.57-5.35-11.16-5.01Z"/>
    <path class="cls-12" d="M198.67,540.73l-5.38-405.86c-.39-29.13,22.91-53.05,52.04-53.44l240.61-3.19c29.13-.39,53.05,22.91,53.44,52.04l.72,54.16L198.67,540.73Z"/>
    <path class="cls-8" d="M197.29,445.1l-4.11-310.6c-.39-29.15,22.93-53.09,52.08-53.48l229.11-3.03"/>
    <path class="cls-8" d="M413.35,120.86l65.45-.87c1.75-.02,3.19,1.38,3.21,3.13l.13,9.44"/>
    <g>
      <path class="cls-3" d="M228.07,225.53c1.59,.73,5.7,1.01,6.41,.89,.66-.12-1.59-12.71-2.78-16.14-.07-.2-.34-.2-.41,0-.91,2.82-4.63,14.6-3.22,15.25Z"/>
      <path class="cls-3" d="M254.34,204.8c-.23,5.92-5.12,10.82-11.04,11.04s-11.27-4.36-11.89-10.28c0-.08-.12-.08-.13,0-.62,5.93-5.74,10.52-11.89,10.28s-10.82-5.12-11.04-11.04c-.25-6.55,4.99-11.95,11.49-11.95,.31,0,.62,.01,.92,.04-.93-1.7-1.46-3.68-1.42-5.77,.12-6.05,5.12-11.09,11.16-11.26,6.5-.18,11.83,5.03,11.83,11.5,0,2.07-.54,4-1.5,5.67,.65-.11,1.32-.17,2-.17,6.5,0,11.74,5.39,11.49,11.95Z"/>
    </g>
    <path class="cls-1" d="M247.61,113.46c-2.79,.24-4.58,.64-5.36,1.18-.79,.54-1.18,1.53-1.18,2.97v27.89c0,3.52-1.32,6.71-3.95,9.58-2.63,2.87-6.1,4.3-10.39,4.3-3.67,0-6.62-1.02-8.85-3.05s-3.34-4.76-3.34-8.17c0-1.7,.42-3.09,1.26-4.17,.84-1.07,1.94-1.61,3.29-1.61s2.48,.38,3.27,1.15c.79,.76,1.18,1.74,1.18,2.94s-.84,3.17-2.52,5.78c-.4,.6-.7,1.21-.9,1.83v.07c1.39,1.82,3.43,2.72,6.11,2.72s4.63-1.03,5.86-3.1c1.23-2.07,1.84-5.71,1.84-10.91v-24.87c0-2.68-2.36-4.18-7.07-4.52v-2.36h20.75v2.36Z"/>
    <rect class="cls-14" x="215.27" y="126.35" width="346.12" height="511.38" rx="52.78" ry="52.78" transform="translate(66.55 -57.52) rotate(9.26)"/>
    <path class="cls-8" d="M190.34,587.91c-5.33-9.89-7.55-21.55-5.6-33.49L250.11,153.53c4.69-28.77,31.82-48.29,60.59-43.6l237.67,38.76c6.29,1.03,12.14,3.12,17.38,6.07"/>
    <path class="cls-11" d="M401.65,552.98c6.09,2.08,2.91-12.08,1.37-35.49s-12.46-30.58-30.32-34.14c-17.86-3.56-35.14,5.56-40.33,18.48s-1.81,30.07,1.19,32.33l68.09,18.82Z"/>
    <path class="cls-11" d="M376.26,231.77c-6.09-2.08-2.91,12.08-1.37,35.49s12.46,30.58,30.32,34.14,35.14-5.56,40.33-18.48,1.81-30.07-1.19-32.33l-68.09-18.82Z"/>
    <path class="cls-4" d="M404.35,513.85c-2.46-1.42-6.19-1.56-9-1-2.38,.48-4.22,2.8-5.63,5.3l-.37-1.3c-2-1.67-9.91-2.14-13,3s-3.17,23.35-5.81,24.85l33.35,10.5c7,1,12-15,17-23s8-4,13-4,8.85-16.37-6.12-15.09c-.41,.03-.73-.31-.67-.71,.87-5.76-8.33-20.27-23.88-2.19l1.12,3.65Z"/>
    <path class="cls-4" d="M374.27,271.93c2.46,1.42,5.27,1.49,8.08,.92,2.38-.48,4.76-2.45,6.17-4.95l-.17,.28c2,1.67,9.91,1.81,13-3.33s3.7-22,6.35-23.5l-33.35-10.5c-7-1-12,15-17,23s-8,4-13,4-8.85,16.37,6.12,15.09c.41-.03,.73,.31,.67,.71-.87,5.76,8.33,20.27,23.88,2.19l-.75-3.92Z"/>
    <path class="cls-13" d="M383.21,291.02c-1.72-1.09,6.14,12.57,4.14,51.83,6-.75,8.31,.04,13,1s9.11,1.73,12,5c1.77-8.45,10.84-42.48,18.92-49.24-5.84,.48-6.11,1.57-11.52,1.9s-20.53-.22-26.97-4.44-7.72-4.87-9.58-6.05Z"/>
    <path class="cls-13" d="M394,492.7c1.72,1.09-5.65-11.6-3.65-50.85-6,.75-8.81,.99-13.5,.03s-9.62-4.75-12.5-8.03c-1.77,8.45-8.92,43.24-17,50,5.84-.48,4.7-1.3,10.1-1.64s20.53,.22,26.97,4.44,7.72,4.87,9.58,6.05Z"/>
    <path class="cls-6" d="M478.71,214.96c-4.36,2.89-26.82,36.01-32.09,35.95s-68.27-17.06-72.27-20.06-6.86-31.92-8.93-35.96"/>
    <path class="cls-6" d="M299.18,569.97c4.36-2.89,26.82-36.01,32.09-35.95s68.27,17.06,72.27,20.06,6.86,31.92,8.93,35.96"/>
    <path class="cls-6" d="M431.27,299.61c-2.28,.19-13.92,17.24-18.92,49.24s-2,69,3,81.59,18,44.41,68,54.41c7-37,14.89-83.69,14.89-83.69-3.89-15.31-10.89-44.31-37.89-75.31s-26.16-26.48-29.08-26.24Z"/>
    <path class="cls-6" d="M347.35,484.85c2.28-.19,13-16,18-48s1.33-68.6-3.67-81.19-19.33-44.81-68-54.41c-7,37-13.33,81.6-13.33,81.6,3.89,15.31,9.67,44.6,36,76,26.41,31.5,28.08,26.24,31,26Z"/>
    <path class="cls-6" d="M387.62,315.26c-1.86-12.33-2.54-21.62-5.9-24.01s-32.87,15.07-38.12,32.84c-5.25,17.77,19.75,38.4,20.75,36.08s7.84-9.99,12.92-12.65,9.83-3.29,11.08-4.66,.54-19.19-.73-27.59Z"/>
    <path class="cls-6" d="M390.28,470.59c1.86,12.33,2.71,20.87,6.08,23.26s32.7-14.32,37.95-32.09-19.75-38.4-20.75-36.08-8.11,8.51-13.19,11.17-8.75,3.63-10,5-1.34,20.33-.08,28.74Z"/>
    <polygon class="cls-2" points="411.35 414.85 363.83 406.1 366.35 369.85 414.06 378.83 411.35 414.85"/>
    <path class="cls-4" d="M410.35,395.85c1,17,0,59,51,83,3-16,5-35-8.04-62.63-12.93-27.38-30.9-37.05-37.96-41.37-3,11-5,21-5,21Z"/>
    <path class="cls-4" d="M368.07,389.76c-1-17-.72-57.91-51.72-81.91-3,16-4.28,33.91,8.76,61.54,12.93,27.38,30.9,37.05,37.96,41.37,3-11,5-21,5-21Z"/>
    <path class="cls-4" d="M364.35,360.16c0-3.06,17.15-20.94,34.58-18.13,17.42,2.81,18.54,17.44,18.48,18.13s-2.63,18.64-3.34,18.66-46.71-7.98-47.71-8.98-2-8.37-2-9.69Z"/>
    <path class="cls-4" d="M413.41,425.4c0,3.06-17.15,20.94-34.58,18.13s-18.54-17.44-18.48-18.13,2.63-18.64,3.34-18.66,46.71,7.98,47.71,8.98,2,8.37,2,9.69Z"/>
    <path class="cls-9" d="M327.03,471c-2.49,10.07-16.49,14.07-26.49,6.07s-13.19-22.94,5.91-31.97"/>
    <path class="cls-9" d="M450.86,313.92c2.49-10.07,16.49-14.07,26.49-6.07s13.19,22.94-5.91,31.97"/>
    <path class="cls-8" d="M360.97,351.12c4.18,10.3,6.64,22.72,6.38,37.73"/>
    <path class="cls-8" d="M387.22,311.39c-1.27-11.22-3.49-21.02-6.87-20.54-2.47,.35-5.96,1.84-9.84,4.14"/>
    <path class="cls-8" d="M482.31,357.73c-15.15-28.09-37.26-52.64-49.06-58.18-3.24-1.52-7.52,5.87-11.36,15.38"/>
    <path class="cls-8" d="M374.35,271.85c1.72,5.67,6,30,38,30s41-25,34-51"/>
    <path class="cls-8" d="M369.35,265.85c3,7,8,8,13,7s10-8.62,6-13.81"/>
    <path class="cls-8" d="M388.35,207.4c0,3.45,1.08,12.55,.54,15.5"/>
    <path class="cls-8" d="M417.04,213.47c-.68,2.38-2.68,11.38-2.68,12.38"/>
    <path class="cls-8" d="M444.35,216.85c-1,2-7,11-8,13"/>
    <path class="cls-4" d="M487.9,285.46l14.46-4.61-8.5-12.29c-.16-.23-.06-.55,.2-.66,4.3-1.82,7.3-6.08,7.3-11.04,0-6.78-5.61-12.24-12.44-11.99-6.34,.23-11.52,5.58-11.56,11.92-.02,2.68,.85,5.15,2.31,7.16,.1,.14,.06,.34-.1,.41l-13.21,6.16,8.64,11.07c.23,.3,.09,.73-.28,.84-4.85,1.53-8.36,6.07-8.36,11.44,0,6.82,5.68,12.3,12.57,11.99,6.21-.29,11.28-5.49,11.43-11.7,.07-2.99-.95-5.73-2.68-7.87-.23-.28-.12-.7,.23-.82Zm-9.53,11.61c-1.28,0-2.43-.61-3.16-1.55-.52-.68-.84-1.52-.84-2.45,0-2.21,1.79-3.99,3.99-3.99s3.99,1.79,3.99,3.99-1.79,3.99-3.99,3.99Zm7.84-36.54c-.52-.68-.84-1.52-.84-2.45,0-2.21,1.79-3.99,3.99-3.99s3.99,1.79,3.99,3.99-1.79,3.99-3.99,3.99c-1.28,0-2.43-.61-3.16-1.55Z"/>
    <ellipse class="cls-2" cx="428.09" cy="269.51" rx="11.64" ry="3.5" transform="translate(88.03 644.02) rotate(-79.95)"/>
    <path class="cls-8" d="M415.97,432.17c-3.76-10.06-5.94-21.99-5.7-36.15"/>
    <path class="cls-8" d="M409.78,488.61c-4.81,3.05-9.26,5.04-12.24,5.46s-5.1-7.28-6.42-16.89"/>
    <path class="cls-8" d="M292.53,421.28c15.08,30.49,39.49,58.17,52.13,64.1,3.38,1.58,7.87-6.49,11.83-16.55"/>
    <path class="cls-8" d="M361.54,429.08c-3-7,4.71-29.81,5.81-40.23"/>
    <path class="cls-8" d="M403.35,512.85c-1.72-5.67-5.81-29.77-37.81-29.77s-41.19,24.77-34.19,50.77"/>
    <path class="cls-8" d="M408.54,519.08c-3-7-8-8-13-7s-10,8.62-6,13.81"/>
    <path class="cls-8" d="M389.54,516.74c-2-1.67-9.91-1.81-13,3.33s-3.19,14.77-4.19,19.77"/>
    <path class="cls-8" d="M389.54,577.53c0-3.45-1.08-12.55-.54-15.5"/>
    <path class="cls-8" d="M360.86,571.46c.68-2.38,2.68-11.38,2.68-12.38"/>
    <path class="cls-8" d="M333.54,568.08c1-2,7-11,8-13"/>
    <path class="cls-4" d="M311.54,514.43l-8.64-11.07c-.23-.3-.09-.73,.28-.84,4.85-1.53,8.36-6.07,8.36-11.44,0-6.82-5.68-12.3-12.57-11.99-6.21,.29-11.28,5.49-11.43,11.7-.07,2.99,.95,5.73,2.68,7.87,.23,.28,.12,.7-.23,.82l-14.46,4.61,8.5,12.29c.16,.23,.06,.55-.2,.66-4.3,1.82-7.3,6.08-7.3,11.04,0,6.78,5.61,12.24,12.44,11.99,6.34-.23,11.52-5.58,11.56-11.92,.02-2.68-.85-5.15-2.31-7.16-.1-.14-.06-.34,.1-.41l13.21-6.16Zm-23.01,16.41c-2.21,0-3.99-1.79-3.99-3.99s1.79-3.99,3.99-3.99c1.28,0,2.43,.61,3.16,1.55,.52,.68,.84,1.52,.84,2.45,0,2.21-1.79,3.99-3.99,3.99Zm7-38.99c0-2.21,1.79-3.99,3.99-3.99,1.28,0,2.43,.61,3.16,1.55,.52,.68,.84,1.52,.84,2.45,0,2.21-1.79,3.99-3.99,3.99s-3.99-1.79-3.99-3.99Z"/>
    <ellipse class="cls-2" cx="349.8" cy="515.42" rx="11.64" ry="3.5" transform="translate(-218.73 769.94) rotate(-79.95)"/>
    <path class="cls-8" d="M416.76,355.73c3,7-5.3,30.7-6.41,41.12"/>
    <path class="cls-8" d="M316.35,308.85c-4.94,21.67-2.5,71.63,46,102"/>
    <path class="cls-8" d="M461.35,477.85c4.94-21.67,2.5-72.63-46-103"/>
    <rect class="cls-8" x="279.72" y="202.02" width="218.33" height="381.24" rx="3.4" ry="3.4" transform="translate(74.46 -61.82) rotate(10.05)"/>
    <path class="cls-1" d="M304.4,145.53c-2.79-.25-4.62-.17-5.49,.23-.87,.4-1.43,1.3-1.68,2.72l-4.87,27.46c-.61,3.47-2.47,6.38-5.56,8.74-3.09,2.36-6.76,3.17-10.98,2.42-3.62-.64-6.34-2.16-8.18-4.55s-2.46-5.27-1.86-8.62c.3-1.68,.95-2.97,1.97-3.88,1.02-.91,2.19-1.25,3.52-1.01s2.38,.81,3.02,1.7c.64,.89,.86,1.92,.65,3.1s-1.38,2.97-3.49,5.25c-.5,.52-.9,1.07-1.2,1.64v.07c1.04,2.03,2.89,3.28,5.53,3.75s4.74-.21,6.31-2.03c1.57-1.82,2.81-5.3,3.72-10.42l4.34-24.49c.47-2.64-1.59-4.53-6.18-5.68l.41-2.32,20.43,3.62-.41,2.32Z"/>
    <g>
      <path class="cls-3" d="M279.11,201.8c-5.06-.65-28.63,28.38-13.56,33.18,4.88,1.56,8.86-2.81,10.4-6.62,.11-.28,.53-.21,.54,.1,.22,4.59,1.35,9.42,6.94,9.33,15.16-.25,2.7-35.08-4.32-35.99Z"/>
      <path class="cls-3" d="M269.2,245.85c1.44,1,5.43,2,6.15,2,.67,0,.67-12.79,.1-16.37-.03-.21-.3-.25-.4-.07-1.39,2.61-7.12,13.56-5.86,14.44Z"/>
    </g>
    <path class="cls-1" d="M471.28,613.57c2.78,.33,4.61,.32,5.49-.05,.88-.37,1.47-1.26,1.76-2.67l5.72-27.3c.72-3.44,2.67-6.3,5.83-8.56,3.17-2.27,6.85-2.96,11.05-2.08,3.6,.75,6.27,2.36,8.03,4.81,1.76,2.45,2.29,5.34,1.59,8.68-.35,1.67-1.05,2.94-2.09,3.82-1.04,.88-2.23,1.18-3.55,.9s-2.35-.88-2.97-1.79c-.61-.91-.8-1.95-.55-3.12s1.47-2.93,3.66-5.14c.51-.5,.93-1.04,1.25-1.6v-.06c-.98-2.06-2.79-3.37-5.41-3.92s-4.75,.06-6.37,1.84c-1.63,1.77-2.97,5.21-4.04,10.3l-5.1,24.34c-.55,2.62,1.45,4.58,6,5.87l-.48,2.31-20.31-4.26,.48-2.31Z"/>
    <g>
      <path class="cls-3" d="M499.97,557.85c5.08,.38,27.06-29.88,11.76-33.86-4.96-1.29-8.7,3.28-10.03,7.16-.1,.29-.51,.24-.55-.07-.47-4.58-1.86-9.33-7.43-8.94-15.12,1.06-.81,35.18,6.24,35.71Z"/>
      <path class="cls-3" d="M507.5,513.33c-1.49-.92-5.53-1.71-6.25-1.67-.67,.04,.02,12.81,.78,16.36,.04,.2,.32,.24,.4,.05,1.25-2.68,6.39-13.93,5.07-14.74Z"/>
    </g>
    <path class="cls-8" d="M389.35,267.81c2,1.67,9.91,1.81,13-3.33s3.19-14.77,4.19-19.77"/>
  </g>
</svg>