<?xml version="1.0" encoding="UTF-8"?>
<svg id="Calque_2" data-name="Calque 2" xmlns="http://www.w3.org/2000/svg" xmlns:xlink="http://www.w3.org/1999/xlink" viewBox="0 0 332.11 328.96">
  <defs>
    <style>
      .cls-1 {
        fill: none;
      }

      .cls-1, .cls-2 {
        stroke: #260f26;
        stroke-linecap: round;
        stroke-miterlimit: 10;
        stroke-width: 2px;
      }

      .cls-3 {
        fill: url(#Dégradé_sans_nom_8);
      }

      .cls-4 {
        fill: url(#Dégradé_sans_nom_215);
      }

      .cls-2 {
        fill: #260f26;
      }

      .cls-5 {
        fill: url(#Dégradé_sans_nom_212);
      }
    </style>
    <linearGradient id="Dégradé_sans_nom_8" data-name="Dégradé sans nom 8" x1="256.28" y1="142.73" x2="-36.17" y2="11.68" gradientUnits="userSpaceOnUse">
      <stop offset="0" stop-color="#fffcf9"/>
      <stop offset=".05" stop-color="#e6d5ec"/>
      <stop offset=".12" stop-color="#cdacde"/>
      <stop offset=".18" stop-color="#b88ad3"/>
      <stop offset=".25" stop-color="#a76fca"/>
      <stop offset=".32" stop-color="#9c5cc3"/>
      <stop offset=".39" stop-color="#9551c0"/>
      <stop offset=".46" stop-color="#934ebf"/>
    </linearGradient>
    <linearGradient id="Dégradé_sans_nom_215" data-name="Dégradé sans nom 215" x1="151.02" y1="257.43" x2="-69.02" y2="120.71" gradientUnits="userSpaceOnUse">
      <stop offset="0" stop-color="#fffcf9"/>
      <stop offset=".06" stop-color="#eef0f5"/>
      <stop offset=".17" stop-color="#c4d1ec"/>
      <stop offset=".32" stop-color="#80a1de"/>
      <stop offset=".33" stop-color="#7c9ede"/>
      <stop offset=".53" stop-color="#6b94de"/>
      <stop offset=".76" stop-color="#608dde"/>
      <stop offset="1" stop-color="#5d8bde"/>
    </linearGradient>
    <linearGradient id="Dégradé_sans_nom_212" data-name="Dégradé sans nom 212" x1="403.9" y1="286.02" x2="-172.1" y2="109.66" gradientUnits="userSpaceOnUse">
      <stop offset="0" stop-color="#fffcf9"/>
      <stop offset=".1" stop-color="#f6e6fa"/>
      <stop offset=".31" stop-color="#dfb0fe"/>
      <stop offset=".31" stop-color="#dfb0ff"/>
      <stop offset=".4" stop-color="#d9a1ff"/>
      <stop offset=".52" stop-color="#d393ff"/>
      <stop offset=".68" stop-color="#d08cff"/>
      <stop offset="1" stop-color="#d08aff"/>
    </linearGradient>
  </defs>
  <g id="de">
    <path class="cls-3" d="M76.17,145.76c-4.42-2.76-9.86-2.36-14.64-12.56s10.22-78.2,17.22-88.2S137.75,0,149.75,0s73.15,35.64,79.08,42.32,25.5,68.71,22.71,75.19-5.31,10.48-11.05,13.48-120.56,46.61-125.15,45.3-39.18-30.54-39.18-30.54Z"/>
    <path class="cls-4" d="M115.34,172.23c-.59-6.23-1.81-13.54-6.7-18.38S14.88,131.89,2.82,142.94s17.93,112.06,27.93,117.06,68.18,6.16,81.59-1.92"/>
    <path class="cls-5" d="M231.56,125.42c9.29,.8,72.64,19.8,82.91,34.69s23.61,114.6,14.72,146.06c-6.45,22.83-134.45,25.32-146.45,21.07s-65.82-39.07-70.41-50.16-4.59-112.95,11.41-125.02,89.62-28.22,107.81-26.64Z"/>
    <path class="cls-1" d="M180.75,320c-11-16-11-129-2-139s112-25,130-20"/>
    <path class="cls-1" d="M178.75,181c-3-13-40-26-51-26"/>
    <ellipse class="cls-2" cx="228.83" cy="222" rx="13.08" ry="17"/>
    <ellipse class="cls-2" cx="284.76" cy="212.31" rx="13.08" ry="17"/>
    <ellipse class="cls-2" cx="228.76" cy="284.31" rx="13.08" ry="17"/>
    <ellipse class="cls-2" cx="284.76" cy="272.31" rx="13.08" ry="17"/>
    <ellipse class="cls-2" cx="244.51" cy="149.28" rx="12.24" ry="4.56"/>
    <ellipse class="cls-2" cx="185.42" cy="147.51" rx="12.24" ry="4.56"/>
    <ellipse class="cls-2" cx="155.83" cy="208.52" rx="11.52" ry="4.83" transform="translate(-62.45 350.36) rotate(-86.25)"/>
    <ellipse class="cls-2" cx="128.01" cy="196.98" rx="11.52" ry="4.83" transform="translate(-76.93 311.82) rotate(-86.25)"/>
    <ellipse class="cls-2" cx="139.24" cy="229.34" rx="11.52" ry="4.83" transform="translate(-98.73 353.26) rotate(-86.25)"/>
    <ellipse class="cls-2" cx="152.07" cy="266.39" rx="11.52" ry="4.83" transform="translate(-123.71 400.69) rotate(-86.25)"/>
    <ellipse class="cls-2" cx="124.25" cy="254.85" rx="11.52" ry="4.83" transform="translate(-138.19 362.15) rotate(-86.25)"/>
    <path class="cls-1" d="M103.75,157c-7.89,3.15-26.52,17.32-32,25-5,7-28,47-34,65"/>
    <path class="cls-1" d="M11.75,149c8,2,49.1,24.55,60,33s27,25,32,33"/>
    <path class="cls-1" d="M15.75,180c3-4,10-13,17-5s-3.52,18.63-5.26,20.31,8.26-13.31,15.26-6.31,3,18-7,26"/>
    <path class="cls-1" d="M54.24,158.78c-4.82-1.57-6.99-4.93-3.85-9,4.06-5.26,9.98-.58,15.37,7.59,10.78,16.34,8.12,12.65,14.05-.06"/>
    <path class="cls-1" d="M105.75,173c-4,2-10,7-6,14s8.59,4.06,11,2"/>
    <path class="cls-1" d="M60.02,228.3c-2.13,7.08,2.78,15.66,11.53,18.11,11.44,3.2,15.88-19.33,24.41-15.74,7.15,3.01,10.37,8.03,9.53,13.96-.77,5.5-7.12,11.12-14.61,6.68-9.88-5.85-.71-27.4-14.68-32.33-10.06-3.56-14.32,3.17-16.17,9.33Z"/>
    <path class="cls-1" d="M88.12,41.53c18.02-5.81,56-16.53,60.63-16.53,4.87,0,50.57,9.93,70,15"/>
    <path class="cls-1" d="M96.75,94c-6-11.06-13.56-28.78-17-40.06"/>
    <path class="cls-1" d="M185.75,99c-16.73,1.92-59.38,3.82-76.05,4.72-3.37,.18-5.52,.28-5.95,.28"/>
    <path class="cls-1" d="M226.77,48.19c-5.34,10.36-19.16,31.66-26.46,42.39"/>
    <path class="cls-1" d="M68.75,130c4.52-1.9,25.88-16.96,32.89-23.59,1.1-1.04,1.84-1.87,2.11-2.41,.67-1.34,5.94-10.42,12.65-21.98,13.33-22.96,32.35-55.69,32.35-57.02,0-2,1-15,1-18"/>
    <path class="cls-1" d="M245.75,116c-5.79-1.52-48-16-50-19S151.75,27,148.75,25"/>
    <path class="cls-1" d="M104.75,105c-2-3,27.51,35.88,29,37"/>
    <path class="cls-1" d="M195.75,97c-1,4-10,28-12,31"/>
    <path class="cls-1" d="M135.63,67.67c-.51-4.09,1.21-6.85,5.28-5.95,5.28,1.17,3.88,7.14-.26,13.93-8.29,13.58-6.49,10.35,4.91,10.31"/>
    <path class="cls-1" d="M97.2,59.7c-3.17-1.35-3.29-5.23-1.65-8.54,3.36-6.8,8.77-.73,10,6.41,2.63,15.27,4.63,16.7,11.48-3.22"/>
    <path class="cls-1" d="M74.02,104.23c-.96,2.7-2.8,2.03-4.2-.18-2.87-4.52,.55-8.38,4.04-8.09,7.47,.61,8.35-.97-.36-11.42"/>
    <path class="cls-1" d="M191,42.09c1.19,.7,9.37,4.42,9.2,5.6s-15.78,4.59-18.69,4.74"/>
    <path class="cls-1" d="M83.92,110.29c-1.18,.05-8.82,1.15-9.24,.22s9.34-10.62,11.38-12.07"/>
    <path class="cls-1" d="M113.48,140.11c-1.26,.73-8.85,6.32-9.93,5.59s3.02-16.53,4.26-19.23"/>
    <path class="cls-1" d="M216.75,124c-2.27-4.01-3.43-7.32-3.92-8.78"/>
    <path class="cls-1" d="M225.75,121l-1,2"/>
    <ellipse class="cls-1" cx="158.25" cy="73.5" rx="6.5" ry="11.5"/>
    <ellipse class="cls-1" cx="93.15" cy="135.1" rx="10.07" ry="5.35" transform="translate(-55.18 205.3) rotate(-80.74)"/>
    <path class="cls-1" d="M204.75,54c-3,0-12,2-12,3s5.91,10.33,7.45,12.16"/>
    <path class="cls-1" d="M206.75,60c-3,1-12.78,5.2-15.89,6.6"/>
    <path class="cls-1" d="M239.16,101c2.19-6.14-2.02-18.06-7.57-20.69s-8.84,1.05-8.84,5.96,4.66,7.86,7.8,7.61,6.38-5.3,5.33-8.84"/>
    <path class="cls-1" d="M214.75,85s11.15-14.3,11.42-14.84"/>
    <path class="cls-1" d="M149.79,138.16c.19-7.8,15.97-9.15,14.27-19.12-1.23-7.17-6.62-7.59-10.87-6.75-4.89,.97-8.34,6.66-6.9,12.69,1.89,7.89,16.69,3.39,17.39,9.65"/>
    <path class="cls-1" d="M210.41,124.9c.53-1.46,.61-2.96-.29-4.48-2.22-3.74-5.3-2.57-7.47-.98s-2.9,4.6-1.93,7.34"/>
  </g>
</svg>