<?xml version="1.0" encoding="UTF-8"?>
<svg id="Calque_2" data-name="Calque 2" xmlns="http://www.w3.org/2000/svg" xmlns:xlink="http://www.w3.org/1999/xlink" viewBox="0 0 238.64 226.35">
  <defs>
    <style>
      .cls-1 {
        stroke-width: 2px;
      }

      .cls-1, .cls-2, .cls-3, .cls-4 {
        fill: none;
        stroke: #260f26;
        stroke-linecap: round;
        stroke-linejoin: round;
      }

      .cls-2 {
        stroke-width: 6px;
      }

      .cls-5 {
        fill: url(#Dégradé_sans_nom_251-4);
      }

      .cls-3 {
        stroke-width: 5px;
      }

      .cls-6 {
        fill: url(#Dégradé_sans_nom_251-3);
      }

      .cls-7 {
        fill: url(#Dégradé_sans_nom_251);
      }

      .cls-4 {
        stroke-width: 3px;
      }

      .cls-8 {
        fill: url(#Dégradé_sans_nom_251-2);
      }
    </style>
    <linearGradient id="Dégradé_sans_nom_251" data-name="Dégradé sans nom 251" x1="175.75" y1="-6.1" x2="184.64" y2="217.9" gradientUnits="userSpaceOnUse">
      <stop offset=".18" stop-color="#934ebf"/>
      <stop offset=".43" stop-color="#a56cc9"/>
      <stop offset=".71" stop-color="#b78ad4"/>
      <stop offset=".76" stop-color="#c099d8"/>
      <stop offset=".87" stop-color="#d9c0e5"/>
      <stop offset="1" stop-color="#fffcf9"/>
    </linearGradient>
    <linearGradient id="Dégradé_sans_nom_251-2" data-name="Dégradé sans nom 251" x1="81.54" y1="-2.36" x2="90.43" y2="221.64" xlink:href="#Dégradé_sans_nom_251"/>
    <linearGradient id="Dégradé_sans_nom_251-3" data-name="Dégradé sans nom 251" x1="158.43" y1="-5.41" x2="167.32" y2="218.59" xlink:href="#Dégradé_sans_nom_251"/>
    <linearGradient id="Dégradé_sans_nom_251-4" data-name="Dégradé sans nom 251" x1="53.73" y1="-1.26" x2="62.62" y2="222.74" xlink:href="#Dégradé_sans_nom_251"/>
  </defs>
  <g id="scrabble">
    <g>
      <path class="cls-7" d="M238.19,181.35c-4,18-60,45-71,45s-18-5-24-12-21-62-16-76,68.3-32.23,75.65-30.61,10.43,3.61,12.39,5.61,27.01,49.76,22.96,68Z"/>
      <path class="cls-1" d="M164.89,214.46c6.3-.11,64.3-28.11,63.3-41.11s-15-50-20-54"/>
      <path class="cls-3" d="M139.08,151.69c2.11,1.67,25.11,9.67,27.11,13.67s9,20,10,23-9-19-9-24,3-24.44,5-31"/>
      <path class="cls-4" d="M190.03,177.06c2.35-1.26,4.05-7.01,4.36-7.6s3.36,11.4,4.71,11.81"/>
      <path class="cls-4" d="M204.19,164.35c2.63-1.75,6.67,.29,7.33,2.64s2.67,7.36-1.33,9.36c-4.47,2.24-7.22-1.67-8.61-4.33s-.39-5.67,2.61-7.67Z"/>
    </g>
    <g>
      <path class="cls-8" d="M122.19,213.35c11.83-7.88,24-66,23-79s-8.96-15.23-13.48-17.12-65.52-16.88-80.52-9.88c-11.35,5.3-22.71,72.15-20,83,3,12,10,17,18,20s61,11,73,3Z"/>
      <path class="cls-1" d="M129.88,201.94c8.85-19.77,16.1-57.43,15.32-67.58-1-13-8.96-15.23-13.48-17.12"/>
      <path class="cls-1" d="M43.19,194.35c4,2,65,14,73,3s17.68-55.89,17.84-64.44"/>
      <path class="cls-3" d="M51.19,169.35c2-6,23.42-41.67,28.71-41.33s11.29,41.33,10.29,47.33"/>
      <path class="cls-3" d="M60.91,151.69c3.29,.67,22.94,4.11,27.11,3.89"/>
      <path class="cls-4" d="M102.82,183.13c2.63,.44,7.5-3.06,8.11-3.34s-4.33,11.07-3.51,12.22"/>
    </g>
    <g>
      <path class="cls-6" d="M121.19,19.35c9-11,62.26-11.7,74-7,10,4,20,12,20,20s1.22,66-9.89,74-72.33,14.09-82.22,9.04-14.89-13.04-15.89-21.04,1.43-59.64,14-75Z"/>
      <path class="cls-1" d="M210.27,97.48c-1.29,4.24-2.92,7.4-4.97,8.87-11.11,8-72.33,14.09-82.22,9.04s-14.89-13.04-15.89-21.04c-.28-2.21-.29-7.77,.1-14.97"/>
      <path class="cls-1" d="M128.19,104.35c7,1,57,6,63-8s12-59,10-69"/>
      <path class="cls-3" d="M138.41,29.97c-1.22,4.38-5.22,45.38-4.22,47.38s22.15,2.95,25,2"/>
      <path class="cls-4" d="M173.19,84.35c2.67,0,6.89-4.26,7.44-4.63s-2.44,11.63-1.44,12.63"/>
    </g>
    <g>
      <path class="cls-5" d="M1.19,31.35c-6,14,12.14,65.14,21,74,6,6,14.05,9.29,19,10,7,1,65-15,70-32S99.19,12.35,92.19,6.35,80.19-.65,71.19,.35,7.36,16.97,1.19,31.35Z"/>
      <path class="cls-1" d="M30.79,111.67c3.84,2.06,7.62,3.29,10.41,3.68,7,1,65-15,70-32,2.37-8.04-.19-24.38-4.29-39.98"/>
      <path class="cls-1" d="M41.19,106.35c5,0,57-15,58-30s-12-61-15-66"/>
      <path class="cls-2" d="M42.19,83.35c-1-4-15-46-13-50s22-9,25,3-6,18-20,22"/>
      <path class="cls-4" d="M73.19,67.35c2-1,9.67-4,10.33,0s-1.33,5-4.33,6c3,0,6.05-.85,7,2,1,3,1,7-9,9"/>
    </g>
  </g>
</svg>