<?xml version="1.0" encoding="UTF-8"?>
<svg id="Calque_2" data-name="Calque 2" xmlns="http://www.w3.org/2000/svg" xmlns:xlink="http://www.w3.org/1999/xlink" viewBox="0 0 400.77 313.88">
  <defs>
    <style>
      .cls-1 {
        fill: url(#Dégradé_sans_nom_95-2);
      }

      .cls-2 {
        fill: none;
        stroke: #260f26;
        stroke-linecap: round;
        stroke-linejoin: round;
        stroke-width: 2px;
      }

      .cls-3 {
        fill: #b78ad4;
      }

      .cls-4 {
        fill: #fffcf9;
      }

      .cls-5 {
        fill: #7c9ede;
      }

      .cls-6 {
        fill: url(#Nouvelle_nuance_de_dégradé_1_3-2);
      }

      .cls-7 {
        fill: #5d8bde;
      }

      .cls-8 {
        fill: url(#Nouvelle_nuance_de_dégradé_1_2);
      }

      .cls-9 {
        fill: url(#Nouvelle_nuance_de_dégradé_1_3);
      }

      .cls-10 {
        fill: #dfb0ff;
      }

      .cls-11 {
        fill: url(#Nouvelle_nuance_de_dégradé_1_2-2);
      }

      .cls-12 {
        fill: url(#Dégradé_sans_nom_95);
      }
    </style>
    <linearGradient id="Nouvelle_nuance_de_dégradé_1_2" data-name="Nouvelle nuance de dégradé 1 2" x1="137.41" y1="-16.81" x2="136.33" y2="265.25" gradientTransform="translate(100.35 -47.42) rotate(30.63)" gradientUnits="userSpaceOnUse">
      <stop offset="0" stop-color="#dfb0ff"/>
      <stop offset=".06" stop-color="#e0b4fe"/>
      <stop offset=".12" stop-color="#e4c1fd"/>
      <stop offset=".16" stop-color="#e9cefc"/>
      <stop offset="1" stop-color="#fffcf9"/>
    </linearGradient>
    <radialGradient id="Dégradé_sans_nom_95" data-name="Dégradé sans nom 95" cx="137.61" cy="157.95" fx="137.61" fy="157.95" r="123.69" gradientUnits="userSpaceOnUse">
      <stop offset="0" stop-color="#dfb0ff"/>
      <stop offset=".33" stop-color="#ddacff"/>
      <stop offset=".65" stop-color="#d8a0ff"/>
      <stop offset=".96" stop-color="#d18dff"/>
      <stop offset="1" stop-color="#d08aff"/>
    </radialGradient>
    <radialGradient id="Dégradé_sans_nom_95-2" data-name="Dégradé sans nom 95" cx="137.61" cy="157.95" fx="137.61" fy="157.95" r="123.69" xlink:href="#Dégradé_sans_nom_95"/>
    <linearGradient id="Nouvelle_nuance_de_dégradé_1_2-2" data-name="Nouvelle nuance de dégradé 1 2" x1="291.98" y1="-9.63" x2="240.2" y2="316.13" gradientTransform="translate(-42.14 153.7) rotate(-30)" xlink:href="#Nouvelle_nuance_de_dégradé_1_2"/>
    <radialGradient id="Nouvelle_nuance_de_dégradé_1_3" data-name="Nouvelle nuance de dégradé 1 3" cx="267.05" cy="155.25" fx="267.05" fy="155.25" r="102.31" gradientUnits="userSpaceOnUse">
      <stop offset="0" stop-color="#b78ad4"/>
      <stop offset=".43" stop-color="#b587d3"/>
      <stop offset=".62" stop-color="#b180d0"/>
      <stop offset=".78" stop-color="#a973cc"/>
      <stop offset=".9" stop-color="#9e61c5"/>
      <stop offset="1" stop-color="#934ebf"/>
    </radialGradient>
    <radialGradient id="Nouvelle_nuance_de_dégradé_1_3-2" data-name="Nouvelle nuance de dégradé 1 3" r="102.31" xlink:href="#Nouvelle_nuance_de_dégradé_1_3"/>
  </defs>
  <g id="uno">
    <g>
      <rect class="cls-8" x="46.69" y="16.27" width="180.1" height="286.43" rx="39.8" ry="39.8" transform="translate(-62.19 91.93) rotate(-30.63)"/>
      <path class="cls-2" d="M28.22,152.97L6.56,116.39c-11.2-18.91-4.95-43.33,13.97-54.53L107,10.66c18.91-11.2,43.33-4.95,54.53,13.97l105.39,177.96"/>
      <g>
        <path class="cls-12" d="M191.54,158.73c.75,67.44-23.34,122.38-53.79,122.72-10.45,.12-20.3-6.22-28.75-17.32l15.84,26.74c6.39,10.79,20.32,14.36,31.11,7.97l93.76-55.52c10.79-6.39,14.36-20.32,7.97-31.11L171.57,66.82c11.86,22.26,19.56,55.14,19.97,91.91Z"/>
        <path class="cls-1" d="M81.25,159.95c-.75-67.44,23.34-122.38,53.79-122.72,11.77-.13,22.76,7.92,31.87,21.72l-18.07-30.51c-6.39-10.79-20.32-14.36-31.11-7.97L23.97,76c-10.79,6.39-14.36,20.32-7.97,31.11L98.5,246.42c-10.31-22.01-16.88-52.59-17.25-86.47Z"/>
      </g>
      <g>
        <path class="cls-2" d="M108.99,264.13l15.84,26.74c6.39,10.79,20.32,14.36,31.11,7.97l93.76-55.52"/>
        <path class="cls-2" d="M166.91,58.96l-18.07-30.51c-6.39-10.79-20.32-14.36-31.11-7.97L23.97,76c-10.79,6.39-14.36,20.32-7.97,31.11l34.16,57.69"/>
      </g>
      <path class="cls-4" d="M182.6,156.28l-7.68-15.69-11.69,7.51-34.99-59.56-21.38,15.9,.98,82.52,8.61,16.34,39.03-25.84,10.76,17.56,17.51-11.76-11.85-19.51,10.69-7.46Zm-56.31,17.43l-2.32-54.17,21.78,41.22-19.46,12.96Z"/>
      <path class="cls-4" d="M47.65,101.63l-1.79-4.09-3.07,1.79-8.28-15.59-5.63,3.82-.66,21.09,2.02,4.26,10.25-6.17,2.56,4.6,4.6-2.81-2.81-5.11,2.81-1.79Zm-14.57,3.83v-13.86l5.11,10.77-5.11,3.09Z"/>
      <path class="cls-2" d="M182.6,156.28l-7.68-15.69-11.69,7.51-34.99-59.56-21.38,15.9,.98,82.52,8.61,16.34,39.03-25.84,10.76,17.56,17.51-11.76-11.85-19.51,10.69-7.46Zm-56.31,17.43l-2.32-54.17,21.78,41.22-19.46,12.96Z"/>
    </g>
    <g>
      <rect class="cls-11" x="175.69" y="12.27" width="180.1" height="286.43" rx="39.8" ry="39.8" transform="translate(113.35 -112.04) rotate(30)"/>
      <path class="cls-2" d="M397.95,76.36c-3.19-8.04-9.01-15.11-17.09-19.77L293.83,6.34c-19.04-10.99-43.38-4.47-54.37,14.57l-103.41,179.12c-10.99,19.04-4.47,43.38,14.57,54.37l56.21,32.45"/>
      <g>
        <path class="cls-5" d="M310.28,179.44l-42.02-24.94,85.59-55.44c1.25,1.22,2.32,2.59,3.19,4.1,10.25,17.76-10.05,49.38-46.76,76.28Z"/>
        <path class="cls-10" d="M353.85,99.06l-85.59,55.44-42.65-25.31c5.73-4.01,11.82-7.89,18.22-11.59,46.75-26.99,93.78-34.49,110.02-18.54Z"/>
        <path class="cls-7" d="M268.26,154.5l-90.04,58.32c-1.38-1.31-2.55-2.77-3.49-4.4-10.63-18.41,11.59-51.73,50.88-79.23l42.65,25.31Z"/>
        <path class="cls-3" d="M310.28,179.44c-6.9,5.06-14.37,9.95-22.34,14.55-46.46,26.83-93.21,34.4-109.72,18.83l90.04-58.32,42.02,24.94Z"/>
      </g>
      <g>
        <path class="cls-9" d="M293.27,202.88c-58.41,33.72-118.1,39.67-133.33,13.3-5.23-9.05-4.54-20.74,.99-33.55l-15.54,26.92c-6.27,10.86-2.55,24.75,8.31,31.02l94.37,54.48c10.86,6.27,24.75,2.55,31.02-8.31l84.48-146.33c-13.58,21.25-38.47,44.09-70.31,62.47Z"/>
        <path class="cls-6" d="M238.13,107.36c58.41-33.72,118.1-39.67,133.33-13.3,5.88,10.19,4.26,23.72-3.3,38.43l17.73-30.71c6.27-10.86,2.55-24.75-8.31-31.02l-94.37-54.48c-10.86-6.27-24.75-2.55-31.02,8.31l-80.95,140.21c14.13-19.78,37.56-40.5,66.9-57.44Z"/>
      </g>
      <g>
        <path class="cls-5" d="M275.33,39.55l-6.46-3.83,13.16-8.52c.19,.19,.36,.4,.49,.63,1.58,2.73-1.55,7.59-7.19,11.73Z"/>
        <path class="cls-10" d="M282.03,27.19l-13.16,8.52-6.56-3.89c.88-.62,1.82-1.21,2.8-1.78,7.19-4.15,14.42-5.3,16.92-2.85Z"/>
        <path class="cls-7" d="M268.87,35.71l-13.84,8.97c-.21-.2-.39-.43-.54-.68-1.63-2.83,1.78-7.95,7.82-12.18l6.56,3.89Z"/>
        <path class="cls-3" d="M275.33,39.55c-1.06,.78-2.21,1.53-3.44,2.24-7.14,4.13-14.33,5.29-16.87,2.9l13.84-8.97,6.46,3.83Z"/>
      </g>
      <g>
        <path class="cls-5" d="M255.51,271.81l6.46,3.83-13.16,8.52c-.19-.19-.36-.4-.49-.63-1.58-2.73,1.55-7.59,7.19-11.73Z"/>
        <path class="cls-10" d="M248.81,284.17l13.16-8.52,6.56,3.89c-.88,.62-1.82,1.21-2.8,1.78-7.19,4.15-14.42,5.3-16.92,2.85Z"/>
        <path class="cls-7" d="M261.97,275.65l13.84-8.97c.21,.2,.39,.43,.54,.68,1.63,2.83-1.78,7.95-7.82,12.18l-6.56-3.89Z"/>
        <path class="cls-3" d="M255.51,271.81c1.06-.78,2.21-1.53,3.44-2.24,7.14-4.13,14.33-5.29,16.87-2.9l-13.84,8.97-6.46-3.83Z"/>
      </g>
      <path class="cls-2" d="M357.04,103.16c-.87-1.51-1.94-2.88-3.19-4.1-16.24-15.95-63.27-8.45-110.02,18.54-6.4,3.7-12.49,7.58-18.22,11.59-39.29,27.5-61.51,60.82-50.88,79.23,.94,1.63,2.11,3.09,3.49,4.4,16.51,15.57,63.26,8,109.72-18.83,7.97-4.6,15.44-9.49,22.34-14.55,36.71-26.9,57.01-58.52,46.76-76.28Z"/>
      <g>
        <path class="cls-2" d="M160.94,182.62l-15.54,26.92c-6.27,10.86-2.55,24.75,8.31,31.02l45.24,26.12"/>
        <path class="cls-2" d="M386.92,81.09c-1.89-4.2-5.06-7.86-9.35-10.34l-94.37-54.48c-10.86-6.27-24.75-2.55-31.02,8.31l-80.95,140.21"/>
      </g>
    </g>
  </g>
</svg>