<?xml version="1.0" encoding="UTF-8"?>
<svg id="Calque_2" data-name="Calque 2" xmlns="http://www.w3.org/2000/svg" xmlns:xlink="http://www.w3.org/1999/xlink" viewBox="0 0 131.09 155.88">
  <defs>
    <style>
      .cls-1 {
        fill: none;
        stroke: #260f26;
        stroke-linecap: round;
        stroke-linejoin: round;
        stroke-width: 2px;
      }

      .cls-2 {
        fill: #fffcf9;
      }

      .cls-3 {
        fill: url(#Nouvelle_nuance_de_dégradé_1_5-2);
      }

      .cls-4 {
        fill: url(#Nouvelle_nuance_de_dégradé_1_5);
      }

      .cls-5 {
        fill: url(#Nouvelle_nuance_de_dégradé_1_4);
      }
    </style>
    <linearGradient id="Nouvelle_nuance_de_dégradé_1_5" data-name="Nouvelle nuance de dégradé 1 5" x1="57.11" y1="135.08" x2="64.13" y2="32.6" gradientUnits="userSpaceOnUse">
      <stop offset="0" stop-color="#b78ad4"/>
      <stop offset="1" stop-color="#934ebf"/>
    </linearGradient>
    <linearGradient id="Nouvelle_nuance_de_dégradé_1_5-2" data-name="Nouvelle nuance de dégradé 1 5" x1="110.4" y1="138.72" x2="117.41" y2="36.25" xlink:href="#Nouvelle_nuance_de_dégradé_1_5"/>
    <radialGradient id="Nouvelle_nuance_de_dégradé_1_4" data-name="Nouvelle nuance de dégradé 1 4" cx="21.5" cy="43.13" fx="21.5" fy="43.13" r="42.35" gradientUnits="userSpaceOnUse">
      <stop offset="0" stop-color="#7c9ede"/>
      <stop offset=".39" stop-color="#789cde"/>
      <stop offset=".7" stop-color="#6e95de"/>
      <stop offset=".99" stop-color="#5d8bde"/>
      <stop offset="1" stop-color="#5d8bde"/>
    </radialGradient>
  </defs>
  <g id="amongus">
    <path class="cls-4" d="M12.13,71.44c-1.37,16.32-3.87,67.43,1.63,77.32,5,9,28.54,10.04,32-.19,5-14.81-1-29.81,2-30.81s22-2,23,1-3.89,26.82,3.06,30.91,26.94,5.09,30.94-3.91,6-111-9-131C79.07-7.48,46.76,.76,31.76,14.76c-13.6,12.69-18.26,40.35-19.63,56.68Z"/>
    <path class="cls-1" d="M70.05,133.81c.23-6.84,1.2-13.55,.7-15.05-1-3-19.84-1-23-1-5,0-10-1-14.49-2.09"/>
    <path class="cls-3" d="M122.76,31.76c-4-6-17.16-6.27-21.45-3.46,0,0,0,0,0,0,5.4,21.05,6.76,57.46,6.22,84.31,6.2,1.01,15.06-2.54,20.23-6.85,6-5-1-68-5-74Z"/>
    <path class="cls-1" d="M130.09,89.52c-.15-20.57-4.49-53.5-7.33-57.75-4-6-17.16-6.27-21.45-3.46,0,0,0,0,0,0"/>
    <path class="cls-1" d="M107.36,118.9c1.13-34.22-.94-89.91-11.6-104.14C79.07-7.48,46.76,.76,31.76,14.76c-13.6,12.69-18.26,40.35-19.63,56.68-1.17,13.94-3.16,53.24-.3,70.59"/>
    <path class="cls-5" d="M9.76,70.76c9.49,3.16,35.93,5.1,47-1,9.45-5.21,12-21,3.98-27.75s-31.13-7.62-45.98-1.25c-14,6-20,25-5,30Z"/>
    <path class="cls-2" d="M23.76,44.76c-6.04,.75-11,4-11,8s6,1,11,0,12.88-.35,13-3c.16-3.39-5-6-13-5Z"/>
    <path class="cls-1" d="M52.16,38c-10.61-2.82-26.26-2.01-37.4,2.76-14,6-20,25-5,30,3.06,1.02,7.87,1.91,13.37,2.45"/>
  </g>
</svg>