<svg xmlns="http://www.w3.org/2000/svg" width="32.001" height="35.666" viewBox="0 0 32.001 35.666"><g transform="translate(9.333)" fill="#3b45a2" stroke-linecap="round"><path d="M -7.912374973297119 34.66082000732422 C -7.953569412231445 34.63583755493164 -8.027056694030762 34.54170608520508 -8.098759651184082 34.36861419677734 C -8.352740287780762 33.75545501708984 -8.404600143432617 32.65408325195312 -8.23408031463623 31.49428558349609 C -8.047840118408203 30.22747421264648 -7.659639835357666 29.30614471435547 -7.357530117034912 28.95502471923828 C -7.018569946289062 28.56106567382812 -5.845709800720215 27.677734375 -4.60398006439209 26.74253463745117 C -2.98730993270874 25.52495574951172 -0.9752999544143677 24.00963592529297 0.6257800459861755 22.52456474304199 C 2.701290130615234 20.59943580627441 3.667969942092896 19.10846519470215 3.667969942092896 17.83239555358887 C 3.667969942092896 15.1994047164917 -0.6439299583435059 11.76577472686768 -5.447700023651123 8.183375358581543 C -6.341430187225342 7.51687479019165 -7.185589790344238 6.887344837188721 -7.393199920654297 6.670475006103516 C -7.471839904785156 6.588335037231445 -7.749780178070068 6.111265182495117 -7.987380027770996 5.033374786376953 C -8.194029808044434 4.095884799957275 -8.285280227661133 3.091434955596924 -8.237730026245117 2.277595043182373 C -8.191802024841309 1.49144172668457 -8.02695369720459 1.121419906616211 -7.943557739257812 1.009276986122131 C -7.524567604064941 1.097032308578491 -6.006453514099121 1.649604082107544 -2.585919857025146 3.264714956283569 C 0.4710200428962708 4.70813512802124 4.150179862976074 6.580804824829102 7.508200168609619 8.402544975280762 C 11.43916988372803 10.53512477874756 14.8144998550415 12.52827453613281 17.26927947998047 14.16653537750244 C 20.91829490661621 16.60179328918457 21.54727554321289 17.59194183349609 21.65353584289551 17.83254623413086 C 21.54767227172852 18.07337379455566 20.92138290405273 19.06411552429199 17.28927040100098 21.50441551208496 C 14.83248043060303 23.15505409240723 11.46903038024902 25.15340423583984 7.562540054321289 27.2834358215332 C 4.182320117950439 29.12651443481445 0.5083800554275513 31.00092506408691 -2.517250061035156 32.426025390625 C -5.99470329284668 34.0639533996582 -7.516448020935059 34.59481811523438 -7.912374973297119 34.66082000732422 Z" stroke="none"/><path d="M -7.236712455749512 2.304027557373047 C -7.260640144348145 2.679164886474609 -7.255112648010254 3.181339263916016 -7.182290077209473 3.797225952148438 C -7.042723655700684 4.977523803710938 -6.760361671447754 5.773746490478516 -6.627375602722168 6.018478393554688 C -6.360487937927246 6.255218505859375 -5.561055183410645 6.851383209228516 -4.849879264831543 7.381734848022461 C -3.227580070495605 8.591564178466797 -1.005760192871094 10.24848556518555 0.848210334777832 11.93668556213379 C 3.489910125732422 14.3421745300293 4.667970180511475 16.16047477722168 4.667970180511475 17.83239555358887 C 4.667970180511475 19.42775535583496 3.631050109863281 21.10099411010742 1.305830001831055 23.25773620605469 C -0.3327999114990234 24.77762603759766 -2.367480278015137 26.31002426147461 -4.002379417419434 27.54133605957031 C -5.038460731506348 28.3216552734375 -6.327910423278809 29.29279518127441 -6.599499702453613 29.60723495483398 C -6.742169380187988 29.7730655670166 -7.108439445495605 30.55675506591797 -7.267430305480957 31.80526542663574 C -7.354832649230957 32.49166870117188 -7.344853401184082 33.03723526000977 -7.300841331481934 33.419921875 C -6.562602043151855 33.14689636230469 -5.206500053405762 32.5898551940918 -2.816410064697266 31.46091461181641 C 0.1226100921630859 30.07269477844238 3.546759605407715 28.32709503173828 6.82528018951416 26.54569625854492 C 10.53903961181641 24.52779388427734 13.789870262146 22.61360549926758 16.22631072998047 21.01007461547852 C 18.77921676635742 19.32988929748535 19.90688705444336 18.34273719787598 20.39570617675781 17.83405303955078 C 19.90473747253418 17.32593154907227 18.77073287963867 16.33907890319824 16.20014953613281 14.65888404846191 C 13.76278018951416 13.06577491760254 10.49730968475342 11.15488433837891 6.756750106811523 9.13282585144043 C 3.495050430297852 7.36961555480957 0.06420993804931641 5.62507438659668 -2.903750419616699 4.220554351806641 C -5.020337104797363 3.218936920166016 -6.408547401428223 2.626068115234375 -7.236712455749512 2.304027557373047 M -7.969420433044434 -3.814697265625e-06 C -5.874850273132324 -3.814697265625e-06 22.66796875 14.33546447753906 22.66796875 17.83239555358887 C 22.66796875 21.32932281494141 -5.911068916320801 35.81913375854492 -7.969420433044434 35.664794921875 C -10.02734088897705 35.51045608520508 -9.487860679626465 29.89774513244629 -8.115559577941895 28.30280494689941 C -6.743260383605957 26.70784378051758 2.667969703674316 20.94091415405273 2.667969703674316 17.83239555358887 C 2.667969703674316 14.72387504577637 -7.029339790344238 8.496654510498047 -8.115559577941895 7.361995697021484 C -9.201779365539551 6.227334976196289 -10.06399059295654 -3.814697265625e-06 -7.969420433044434 -3.814697265625e-06 Z" stroke="none" fill="#260f26"/></g></svg>