<?xml version="1.0" encoding="UTF-8"?>
<svg id="Calque_2" data-name="Calque 2" xmlns="http://www.w3.org/2000/svg" viewBox="0 0 133.88 149.12">
  <defs>
    <style>
      .cls-1 {
        fill: none;
      }

      .cls-1, .cls-2 {
        stroke: #260f26;
        stroke-linecap: round;
        stroke-linejoin: round;
        stroke-width: 2px;
      }

      .cls-3 {
        fill: #b78ad4;
      }

      .cls-4 {
        fill: #fffcf9;
      }

      .cls-5 {
        fill: #7c9ede;
      }

      .cls-2 {
        fill: #260f26;
      }

      .cls-6 {
        fill: #934ebf;
      }

      .cls-7 {
        fill: #dfb0ff;
      }
    </style>
  </defs>
  <g id="casque">
    <path class="cls-3" d="M29.88,66.12c-4-2-15-3-22,6s-10,26-3,33,23,3.42,25,1.71,14-33.71,0-40.71Z"/>
    <path class="cls-5" d="M104.88,97.12c-9.57-2.87-9.07-14.9-9.01-22.59v-.03c1.09-12.39,7.02-13.38,9.01-13.38,6,0,11,5,12,19,.93,13.01-7,18-12,17Z"/>
    <path class="cls-7" d="M111.88,55.12c2.13-.32,4.06-.35,5.82-.17-.97-6.52-2.48-19.73-12.82-33.83C94.03,6.32,80.88,2.12,66.88,1.12S40.88,5.12,30.88,17.12s-15.07,44.84-15.13,49.03c5.65-2.25,11.46-1.37,14.13-.03,.82,.41,1.55,.92,2.2,1.49,.85-9.3,4.41-27.78,8.8-35.49,5.39-9.45,16-16,27-15.49s15,2.49,23,10.49c9.31,9.31,10.94,23.36,13.81,30.52,2.02-1.22,4.41-2.11,7.19-2.52Z"/>
    <path class="cls-3" d="M111.88,55.12c-11.06,1.66-16,10.81-16,18.4,0,.32,0,.64-.01,.98,1.09-12.39,7.02-13.38,9.01-13.38,6,0,11,5,12,19,.93,13.01-7,18-12,17,2.89,.87,6.11,1.23,9.31,1.02,.9-4.08,2.08-8.02,7.69-8.02,2,0,3.5,1.5,3.87,4.11,2.89-2.11,5.13-5.11,6.13-9.11,3-12,0-33-20-30Z"/>
    <path class="cls-7" d="M121.88,90.12c-8,0-7,8-9,13-1.25,3.13-3.34,5.34-7.13,7.17,.76,.43,1.48,1.02,2.13,1.83,1.59,1.99,2.38,3.65,2.45,5.2,3.77-1.54,8.49-4.89,12.55-12.2,5-9,3-15-1-15Z"/>
    <circle class="cls-6" cx="54.88" cy="109.12" r="39"/>
    <path class="cls-4" d="M73.88,89.12c-3-4-6.76-4.41-11-3-3,1-4.96,5.19-9,6-5,1-8-2-12-2-6,0-8,3-9,7s-1.83,21.34-1,28c1,8,12,10,15,5,2.57-4.29,5-9,7-10s6-2,8-2,6.43,4.46,9,6c5,3,12,0,13-6,.84-5.03-7-25-10-29Zm-26,26c-2.76,0-5-2.24-5-5s2.24-5,5-5,5,2.24,5,5-2.24,5-5,5Zm18-4c-2.76,0-5-2.24-5-5s2.24-5,5-5,5,2.24,5,5-2.24,5-5,5Z"/>
    <path class="cls-1" d="M23.93,132.85c-5.05-6.57-8.05-14.8-8.05-23.73,0-21.54,17.46-39,39-39s39,17.46,39,39"/>
    <path class="cls-1" d="M54.88,148.12c-7.46,0-14.43-2.09-20.35-5.73"/>
    <path class="cls-1" d="M125.73,97.25c.6-4.45-1.18-7.12-3.85-7.12-8,0-7,8-9,13-1.25,3.13-3.34,5.34-7.13,7.17,.76,.43,1.48,1.02,2.13,1.83,1.59,1.99,2.38,3.65,2.45,5.2"/>
    <path class="cls-1" d="M131.88,85.12c3-12,0-33-20-30-11.06,1.66-16,10.81-16,18.4,0,.32,0,.64-.01,.98,1.09-12.39,7.02-13.38,9.01-13.38,6,0,11,5,12,19"/>
    <path class="cls-1" d="M29.88,66.12c-4-2-15-3-22,6-4.29,5.52-7.21,14.76-6.85,22.5"/>
    <path class="cls-1" d="M117.7,54.96c-.97-6.52-2.48-19.73-12.82-33.83C94.03,6.32,80.88,2.12,66.88,1.12S40.88,5.12,30.88,17.12s-15.07,44.84-15.13,49.03"/>
    <path class="cls-1" d="M90.88,27.12c9.31,9.31,10.94,23.36,13.81,30.52"/>
    <path class="cls-2" d="M107.88,112.12c-3.12-3.9-8-3-11-1s-9,8-5,12,9,5,14,1,6-7,2-12Z"/>
  </g>
</svg>