<?xml version="1.0" encoding="UTF-8"?>
<svg id="Calque_2" data-name="Calque 2" xmlns="http://www.w3.org/2000/svg" viewBox="0 0 165.58 169.03">
  <defs>
    <style>
      .cls-1 {
        fill: none;
        stroke: #260f26;
        stroke-linecap: round;
        stroke-linejoin: round;
        stroke-width: 2px;
      }

      .cls-2 {
        fill: #fffcf9;
      }

      .cls-3 {
        fill: #7c9ede;
      }

      .cls-4 {
        fill: #f38192;
      }

      .cls-5 {
        fill: #5d8bde;
      }

      .cls-6 {
        fill: #d08aff;
      }

      .cls-7 {
        fill: #f39ba8;
      }

      .cls-8 {
        fill: #dfb0ff;
      }
    </style>
  </defs>
  <g id="chapeaux">
    <g>
      <path class="cls-2" d="M145.8,41.55c.1-4.08,1.85-10.86,7.94-14.45s8.03-3.1,8.74-1.88,2.52,5.28,1.11,7.25-7.84-1.81-17.79,9.08Z"/>
      <path class="cls-8" d="M145.12,41.7c6.09-3.97,18.09-4.97,19.09-2.97s0,8-3,8-4.17-5.05-16.09-5.03Z"/>
      <path class="cls-8" d="M145.12,41.7c2.09-5.97,6.09-18.97,4.09-19.97-3.22-1.61-7,0-8,1s4,8,3.91,18.97Z"/>
      <path class="cls-2" d="M145.12,41.7c-.91-1.97-1.05-13.55-2.91-13.97s-7.18,3.41-6.09,5.21,7.92,3.74,9,8.77Z"/>
      <path class="cls-2" d="M59.12,137.77c.09,1.96,.49,7.2,3.79,7.58s12.76-4.54,14.03-7.58-3.91-7.26-6.32-7.65-10.71,5.19-11.06,7.4"/>
      <path class="cls-8" d="M83.21,138.55c-2.55,3.04-3,9.54-2,10.74s-9,4.77-10,1.19,0-14.32,2-15.51,11,2.39,10,3.58Z"/>
      <path class="cls-2" d="M78.11,151.45c1.65,1.91,4.59,6.23,7.34,5.75s3.75-11.48,5.75-11.48-6.85-8.99-7.92-8-6.27,12.45-5.17,13.72Z"/>
      <path class="cls-8" d="M91.21,157.73c2,1,6.98,1,7.99,0s-2.99-7-.99-11-4.41-5.25-6.71-5.12-4.28,12.16-.79,15.64"/>
      <path class="cls-2" d="M94.21,161.73c-1.45,1.9,7,3,8,3s3.11-4.21,4-6c1-2,2-6.38,0-8.69s-6.42-2.86-7.71-2.59,.59,7.88-4.29,14.28Z"/>
      <path class="cls-8" d="M108.41,152.03c-2.78,1.62-4.2,10.7-2.2,12.7s8.19,1,9.1,0-3.1-10-1.1-11-4.6-2.4-5.8-1.7Z"/>
      <path class="cls-2" d="M115.3,167.39c1.02,1.25,7.44,.65,8.17-1.51s-1.27-10.15-1.27-11.15-7.06-2-7.53,0-1.28,10.33,.62,12.66Z"/>
      <path class="cls-8" d="M128.74,165.88c1.87-.08,5.47-4.15,5.47-5.15s-7-4-8-8-7.15,1.66-6.57,3.33,5.63,9.98,9.1,9.83Z"/>
      <path class="cls-2" d="M138.44,158.86c1.19-.67,1.22-6.94-.51-7.53s-8.3,3.62-10.52,.51-4.35,3.55-3.78,4.22,11.04,4.94,14.81,2.8Z"/>
      <path class="cls-8" d="M131.21,141.73c2.24,0,7.28,3.31,7.64,5.66s-4.64,7.34-5.64,7.34-9.44-5-8.72-6.5,4.72-6.5,6.72-6.5Z"/>
      <path class="cls-1" d="M145.12,41.7c-.91-1.97-1.05-13.55-2.91-13.97-1.17-.27-3.68,1.13-5.13,2.65"/>
      <path class="cls-1" d="M145.12,41.7c2.09-5.97,6.09-18.97,4.09-19.97-1.7-.85-3.56-.8-5.08-.42"/>
      <path class="cls-1" d="M145.8,41.55c.1-4.08,1.85-10.86,7.94-14.45s8.03-3.1,8.74-1.88c.43,.72,1.24,2.46,1.53,4.16"/>
      <path class="cls-1" d="M145.12,41.7c6.09-3.97,18.09-4.97,19.09-2.97,.68,1.37,.43,4.62-.76,6.53"/>
      <path class="cls-1" d="M60.28,143.3c.56,1.08,1.39,1.91,2.63,2.05,1.71,.2,5.07-1.03,8.09-2.68-.28,3.04-.25,6.17,.21,7.81,.58,2.06,4.13,1.75,6.85,.89,.02,.03,.03,.07,.05,.09,1.65,1.91,4.59,6.23,7.34,5.75,1.49-.26,2.47-3.61,3.37-6.62,.02,2.71,.55,5.31,1.89,6.66l.49,.48c1.11,.56,3.15,.8,4.91,.74-.48,1.09-1.1,2.19-1.91,3.26-1.45,1.9,7,3,8,3,.74,0,2.07-2.28,3.08-4.2-.07,1.86,.21,3.48,.92,4.2,1.66,1.66,6.22,1.25,8.23,.49,.19,.91,.46,1.68,.87,2.17,1.02,1.25,7.44,.65,8.17-1.51,.25-.74,.18-2.19-.03-3.8,1.7,2.09,3.66,3.87,5.29,3.8,1.87-.08,5.47-4.15,5.47-5.15,0-.33-.77-.89-1.84-1.62,2.38,.45,4.68,.54,6.07-.25,1.19-.67,1.22-6.94-.51-7.53-.22-.08-.52-.07-.88-.02,1.1-1.39,1.95-2.91,1.79-3.92-.36-2.34-5.4-5.66-7.64-5.66"/>
    </g>
    <path class="cls-5" d="M144.13,73.31c-8.36-2.09-21.08-11.01-26.49-17.55,14.43-8.69,26.05-14.67,27.48-14.06,1.35,.58,.78,14.08-.99,31.61Z"/>
    <path class="cls-3" d="M144.13,73.31c-.49,4.91-1.08,10.14-1.75,15.48-16.89-1.14-33.05-16.21-37.78-24.92,4.46-2.87,8.87-5.6,13.04-8.11,5.41,6.54,18.13,15.46,26.49,17.55Z"/>
    <path class="cls-5" d="M142.38,88.79c-.88,7.08-1.9,14.37-3.02,21.41-29.45-5.99-46.89-26.64-51.13-35.33,5.32-3.76,10.89-7.48,16.37-11,4.73,8.71,20.89,23.78,37.78,24.92Z"/>
    <path class="cls-3" d="M139.36,110.2c-.83,5.16-1.7,10.2-2.62,14.92-30.27,.14-54.93-22.81-61.36-40.74,3.97-3.11,8.32-6.32,12.85-9.51,4.24,8.69,21.68,29.34,51.13,35.33Z"/>
    <path class="cls-5" d="M136.74,125.12c-1.42,7.34-2.93,13.93-4.48,19.09-32.88,1-63.05-25.07-70.6-47.69,3.49-3.69,8.24-7.83,13.72-12.14,6.43,17.93,31.09,40.88,61.36,40.74Z"/>
    <path class="cls-3" d="M132.26,144.21c-1.7,5.62-3.43,9.55-5.15,10.91-15.13,12.04-81.15-30.95-70.78-51.58,1.03-2.06,2.87-4.43,5.33-7.02,7.55,22.62,37.72,48.69,70.6,47.69Z"/>
    <path class="cls-1" d="M78.99,139.32c17.68,13.06,40.08,22.2,48.12,15.8,1.72-1.36,3.45-5.29,5.15-10.91,1.55-5.16,3.06-11.75,4.48-19.09,.92-4.72,1.79-9.76,2.62-14.92,1.12-7.04,2.14-14.33,3.02-21.41,.67-5.34,1.26-10.57,1.75-15.48,1.77-17.53,2.34-31.03,.99-31.61-.85-.36-5.26,1.58-11.7,5.03"/>
    <path class="cls-8" d="M18.33,41.95c-2.12,5.78-8.46,13.52-16.79,15.15,.98-13.78,2.28-23.58,3.5-23.89,1.01-.25,6.12,3.16,13.29,8.74Z"/>
    <path class="cls-6" d="M34.71,55.43c-1.5,4.3-9.5,23.3-34.38,25.83,.28-8.61,.7-16.93,1.21-24.16,8.33-1.63,14.67-9.37,16.79-15.15,4.75,3.69,10.41,8.34,16.38,13.48Z"/>
    <path class="cls-8" d="M49.15,68.35c-3.94,6.38-14.34,30.44-49.14,29.91,.03-5.65,.15-11.39,.32-17,24.88-2.53,32.88-21.53,34.38-25.83,4.72,4.06,9.63,8.44,14.44,12.92Z"/>
    <path class="cls-6" d="M62.91,81.76C52.93,97.12,35.15,117.56,.17,114.9,.03,109.6-.02,103.98,0,98.26c34.8,.53,45.2-23.53,49.14-29.91,4.78,4.45,9.47,8.99,13.76,13.41Z"/>
    <path class="cls-8" d="M76.04,96.57c-6.94,10.41-31.73,40.97-74.77,36.53-.55-5.22-.91-11.45-1.1-18.2,34.98,2.66,52.76-17.78,62.74-33.14,.07,.06,.13,.13,.19,.19,5.01,5.16,9.47,10.14,12.94,14.62Z"/>
    <path class="cls-6" d="M5.04,148.05c-1.75-1.91-2.97-7.37-3.77-14.95,43.04,4.44,67.83-26.12,74.77-36.53,.02,.03,.05,.06,.07,.09,3.48,4.49,5.95,8.46,6.93,11.55,7,22-64.95,54.11-78,39.84Z"/>
    <path class="cls-7" d="M5.04,33.21C2.21,28.73,14.21-4.27,40.21,1.73c1,2,1,10.55,0,10.78S20.21,4.73,5.04,33.21Z"/>
    <path class="cls-4" d="M5.04,33.21c6.17-5.48,14.82-12.57,21.17-14.48,10-3,16,2,24-3,6.12-3.82,6-8,8-8s8,4,8,6-2,10-14,13c-10.67,2.67-17,0-20.75-.34-5.24-.47-10.59-1.7-26.42,6.82Z"/>
    <path class="cls-7" d="M5.04,33.21c7.17-3.48,13.17-5.48,19.17-4.48s8.87,4.53,20,7c9,2,17.58-4.04,18.29-2.52s4.55,7.38,2.63,9.45-14.95,2.23-21.92,1.07c-6-1-12-4-19-9-2.57-1.84-9.17-3.52-19.17-1.52Z"/>
    <path class="cls-1" d="M34.06,148.53c24.39-7.24,53.55-25.94,48.97-40.32-.98-3.09-3.45-7.06-6.93-11.55-.02-.03-.05-.06-.07-.09-3.47-4.48-7.93-9.46-12.94-14.62-.06-.06-.12-.13-.19-.19-4.29-4.42-8.98-8.96-13.76-13.41-4.81-4.48-9.72-8.86-14.44-12.92-5.97-5.14-11.63-9.79-16.38-13.48-7.17-5.58-12.28-8.99-13.29-8.74"/>
    <path class="cls-1" d="M5.04,33.21C2.21,28.73,14.21-4.27,40.21,1.73c.5,.99,.75,3.6,.75,6"/>
    <path class="cls-1" d="M5.04,33.21c6.17-5.48,14.82-12.57,21.17-14.48,10-3,16,2,24-3,6.12-3.82,6-8,8-8,.99,0,2.96,.98,4.7,2.21"/>
    <path class="cls-1" d="M5.04,33.21c7.17-3.48,13.17-5.48,19.17-4.48s8.87,4.53,20,7c9,2,17.58-4.04,18.29-2.52,.44,.94,2.06,3.52,2.8,5.85"/>
  </g>
</svg>