<?xml version="1.0" encoding="UTF-8"?>
<svg id="Calque_2" data-name="Calque 2" xmlns="http://www.w3.org/2000/svg" xmlns:xlink="http://www.w3.org/1999/xlink" viewBox="0 0 158.02 176.88">
  <defs>
    <style>
      .cls-1 {
        fill: none;
        stroke-linecap: round;
        stroke-linejoin: round;
      }

      .cls-1, .cls-2 {
        stroke: #260f26;
        stroke-width: 2px;
      }

      .cls-3 {
        fill: #b78ad4;
      }

      .cls-2 {
        fill: #934ebf;
        stroke-miterlimit: 10;
      }

      .cls-4 {
        fill: #d08aff;
      }

      .cls-5 {
        fill: url(#Nouvelle_nuance_de_dégradé_1_2);
      }

      .cls-6 {
        fill: #dfb0ff;
      }
    </style>
    <linearGradient id="Nouvelle_nuance_de_dégradé_1_2" data-name="Nouvelle nuance de dégradé 1 2" x1="20.49" y1="55.42" x2="121.21" y2="127.01" gradientUnits="userSpaceOnUse">
      <stop offset="0" stop-color="#dfb0ff"/>
      <stop offset=".06" stop-color="#e0b4fe"/>
      <stop offset=".12" stop-color="#e4c1fd"/>
      <stop offset=".16" stop-color="#e9cefc"/>
      <stop offset="1" stop-color="#fffcf9"/>
    </linearGradient>
  </defs>
  <g id="chronomètre">
    <circle class="cls-4" cx="79.51" cy="97.37" r="78.5"/>
    <circle class="cls-5" cx="79.51" cy="97.37" r="60.5"/>
    <circle class="cls-2" cx="79.51" cy="97.37" r="9.5"/>
    <path class="cls-3" d="M97.7,53.69c-5.19-2.66-10.1,12.16-18.21,34.19h0c2.55,0,5.05,1.01,6.87,2.91,0,0,0,0,0,0,2.24-5.48,16.53-34.43,11.34-37.1Z"/>
    <path class="cls-4" d="M6.17,35.21c3.69,5.95,14.18-1.81,27.95-10.92S54.64,10.99,50.96,5.03s-16.18,2.33-24.11,7.58C18.93,17.87,1.94,28.42,6.17,35.21Z"/>
    <path class="cls-6" d="M34.11,24.3c-3.75,2.48-7.25,4.86-10.44,6.89l4.32,6.96c3.11-2.7,6.47-5.2,10.09-7.45,2.73-1.7,5.54-3.19,8.38-4.51l-4.45-7.17c-2.29,1.58-4.92,3.31-7.9,5.28Z"/>
    <path class="cls-4" d="M89.04,3.74c-2.07,4.55,6.98,7.44,13.86,9.05s15.68,4.39,17.49-.27c1.31-3.36-5.22-6.17-15.24-9.37s-14.62-2.69-16.11,.59Z"/>
    <path class="cls-6" d="M102.9,12.79c-1.72-.4-3.58-.88-5.36-1.45l-1.77,9.25c3.93,.83,7.8,1.96,11.57,3.38l1.89-9.69c-2.12-.46-4.3-1.03-6.32-1.5Z"/>
    <line class="cls-1" x1="112.41" y1="76.93" x2="122.98" y2="70.36"/>
    <line class="cls-1" x1="46.02" y1="118.18" x2="35.25" y2="124.87"/>
    <line class="cls-1" x1="51.47" y1="52.24" x2="58.87" y2="64.15"/>
    <line class="cls-1" x1="102.13" y1="133.78" x2="107.54" y2="142.49"/>
    <line class="cls-1" x1="116.43" y1="115.38" x2="120.79" y2="117.43"/>
    <line class="cls-1" x1="117.52" y1="93.18" x2="121.94" y2="92.27"/>
    <line class="cls-1" x1="76.97" y1="57.62" x2="76.93" y2="52.47"/>
    <line class="cls-1" x1="45.59" y1="77.83" x2="39.55" y2="75.69"/>
    <line class="cls-1" x1="42.14" y1="98.81" x2="34.63" y2="99.85"/>
    <line class="cls-1" x1="100.84" y1="68.22" x2="105.38" y2="61.83"/>
    <line class="cls-1" x1="57.56" y1="130.18" x2="55.05" y2="135.27"/>
    <line class="cls-1" x1="79.98" y1="136.98" x2="80.39" y2="143.32"/>
    <path class="cls-1" d="M88.93,157.15c-23.29,3.66-47.58-6.57-60.8-27.85-17.63-28.38-8.92-65.68,19.46-83.32s65.68-8.92,83.32,19.46c2.06,3.31,3.75,6.74,5.1,10.25"/>
    <path class="cls-1" d="M79.49,175.88c-26.21-.03-51.81-13.18-66.66-37.08C-10.05,101.97,1.26,53.57,38.08,30.69s85.23-11.57,108.11,25.25"/>
    <path class="cls-1" d="M43.81,3.43c-5.26,1.44-12,5.9-16.95,9.19C18.93,17.87,1.94,28.42,6.17,35.21c1.66,2.67,4.68,2.58,8.75,.85"/>
    <path class="cls-1" d="M117.64,8.14c-2.69-1.65-7.08-3.26-12.49-4.99-10.01-3.2-14.62-2.69-16.11,.59-.75,1.65-.04,3.08,1.49,4.31"/>
    <path class="cls-1" d="M97.7,53.69c-5.19-2.66-10.1,12.16-18.21,34.19h0c2.55,0,5.05,1.01,6.87,2.91"/>
  </g>
</svg>