<?xml version="1.0" encoding="UTF-8"?>
<svg id="Calque_2" data-name="Calque 2" xmlns="http://www.w3.org/2000/svg" viewBox="0 0 114.62 160.94">
  <defs>
    <style>
      .cls-1 {
        fill: none;
        stroke-linecap: round;
        stroke-linejoin: round;
      }

      .cls-1, .cls-2 {
        stroke: #260f26;
        stroke-width: 2px;
      }

      .cls-3 {
        fill: #fffcf9;
      }

      .cls-4 {
        fill: #f38192;
      }

      .cls-5 {
        fill: #d08aff;
      }

      .cls-2 {
        fill: #260f26;
        stroke-miterlimit: 10;
      }

      .cls-6 {
        fill: #dfb0ff;
      }
    </style>
  </defs>
  <g id="crayon">
    <path class="cls-2" d="M20.47,122.86c-5,2.75-10.08,4.78-13.76,5.17-2.45,.26-3.75-.66-4.55-2.98-1.08-3.16-1.32-8.43-1.06-14.13,6.98,1.14,16.12,6.82,19.37,11.94Z"/>
    <path class="cls-3" d="M36.58,109.98c-2.82,4.17-9.39,9.18-16.11,12.88-3.25-5.12-12.39-10.8-19.37-11.94,.46-10.2,2.49-21.73,4.06-24.87,.06-.12,.14-.28,.24-.46,3.26,.75,7.07,2.22,10.9,4.23,4.18,2.21,8.39,5.04,11.92,8.26,3.98,3.62,7.1,7.71,8.36,11.9Z"/>
    <path class="cls-6" d="M62.16,18.63c-2.96,4.51-41.94,64.78-45.86,71.19-3.83-2.01-7.64-3.48-10.9-4.23,3.37-6.28,27.87-47.05,43.08-69.61,3.7,.07,8.64,.57,13.68,2.65Z"/>
    <path class="cls-6" d="M79.33,36.2c-12.74,24.74-38.57,66.38-42.17,72.85-.17,.3-.36,.61-.58,.93-1.26-4.19-4.38-8.28-8.36-11.9,2.94-3.03,43.72-67.18,45.83-70.61,1.95,2.39,3.74,5.26,5.28,8.73Z"/>
    <path class="cls-4" d="M79.33,36.2c-1.54-3.47-3.33-6.34-5.28-8.73-3.61-4.41-7.78-7.15-11.89-8.84-5.04-2.08-9.98-2.58-13.68-2.65C54.32,7.3,58.8,1.32,60.16,1.05c5-1,22,12,26,17,1.12,1.4-1.86,8.49-6.83,18.15Z"/>
    <path class="cls-5" d="M74.05,27.47c-2.11,3.43-42.89,67.58-45.83,70.61-3.53-3.22-7.74-6.05-11.92-8.26,3.92-6.41,42.9-66.68,45.86-71.19,4.11,1.69,8.28,4.43,11.89,8.84Z"/>
    <path class="cls-1" d="M8.72,139.05c7.44,8,62.44,39,90.44,6s9-55-4-58-39,.67-39,25c0,23,18.74,21.37,28,18,11-4,17.15-19.19,8.43-25.83-9.43-7.17-16.85,4.1-15.64,6.96"/>
    <path class="cls-1" d="M23.79,120.92c-1.09,.68-2.21,1.33-3.32,1.94-3.25-5.12-12.39-10.8-19.37-11.94,.46-10.2,2.49-21.73,4.06-24.87,.06-.12,.14-.28,.24-.46,3.26,.75,7.07,2.22,10.9,4.23,1.42,.75,2.85,1.58,4.26,2.47"/>
    <path class="cls-1" d="M5.4,85.59c3.37-6.28,27.87-47.05,43.08-69.61,3.7,.07,8.64,.57,13.68,2.65"/>
    <path class="cls-1" d="M56.38,27.54c-7.51,11.6-20.57,31.8-29.8,46.17"/>
    <path class="cls-1" d="M74.05,27.47c1.06,1.3,2.08,2.75,3.03,4.35"/>
    <path class="cls-1" d="M62.16,18.63c4.11,1.69,8.28,4.43,11.89,8.84-1.59,2.59-25.21,39.75-37.96,59.14"/>
    <path class="cls-1" d="M74.05,27.47c-3.61-4.41-7.78-7.15-11.89-8.84-5.04-2.08-9.98-2.58-13.68-2.65C54.32,7.3,58.8,1.32,60.16,1.05c4.47-.89,18.54,9.41,24.32,15.17"/>
  </g>
</svg>