<?xml version="1.0" encoding="UTF-8"?>
<svg id="Calque_2" data-name="Calque 2" xmlns="http://www.w3.org/2000/svg" xmlns:xlink="http://www.w3.org/1999/xlink" viewBox="0 0 204.8 143.88">
  <defs>
    <style>
      .cls-1 {
        fill: url(#Nouvelle_nuance_de_dégradé_1_6-2);
      }

      .cls-2 {
        fill: none;
        stroke: #260f26;
        stroke-linecap: round;
        stroke-linejoin: round;
        stroke-width: 2px;
      }

      .cls-3 {
        fill: #fffcf9;
      }

      .cls-4 {
        fill: url(#Nouvelle_nuance_de_dégradé_1_6);
      }

      .cls-5 {
        fill: #5d8bde;
      }

      .cls-6 {
        fill: url(#Nouvelle_nuance_de_dégradé_1_5);
      }
    </style>
    <linearGradient id="Nouvelle_nuance_de_dégradé_1_6" data-name="Nouvelle nuance de dégradé 1 6" x1="165.39" y1="34.2" x2="97.44" y2="90.02" gradientUnits="userSpaceOnUse">
      <stop offset="0" stop-color="#7c9ede"/>
      <stop offset=".39" stop-color="#789cde"/>
      <stop offset=".7" stop-color="#6e95de"/>
      <stop offset=".99" stop-color="#5d8bde"/>
      <stop offset="1" stop-color="#5d8bde"/>
    </linearGradient>
    <linearGradient id="Nouvelle_nuance_de_dégradé_1_6-2" data-name="Nouvelle nuance de dégradé 1 6" x1="164.54" y1="33.16" x2="96.58" y2="88.98" xlink:href="#Nouvelle_nuance_de_dégradé_1_6"/>
    <linearGradient id="Nouvelle_nuance_de_dégradé_1_5" data-name="Nouvelle nuance de dégradé 1 5" x1="8.91" y1="11.78" x2="147.24" y2="118.56" gradientTransform="translate(-11.37 13.79) rotate(-9.51)" gradientUnits="userSpaceOnUse">
      <stop offset="0" stop-color="#b78ad4"/>
      <stop offset="1" stop-color="#934ebf"/>
    </linearGradient>
  </defs>
  <g id="loupeETfiltre">
    <ellipse class="cls-5" cx="158.77" cy="36.35" rx="9.71" ry="57.04" transform="translate(31.43 137.9) rotate(-51.47)"/>
    <path class="cls-4" d="M148.22,50.69c-22.41-17.85-38.72-35.43-38.97-41.63,0,0,0,0,0,0-2.2,4.91,7.14,54.91,3.75,59.42-3.38,4.51-56.8,57.59-53.77,61.29,3.32,4.05,34.62-1.75,38-4s32.68-37,36.06-37c3.06,0,53.65-6.48,63.84-9.37-6.55,.6-26.94-11.23-48.9-28.71Z"/>
    <path class="cls-1" d="M152.72,43.94C128.08,24.32,110.81,5.01,114.15,.81l-4.49,6.74c-1.12,1.4,.06,4.48,3.05,8.7,5.96,8.42,19.1,21.36,35.52,34.43,24.64,19.63,47.33,32.13,50.67,27.94l4.49-6.74c-3.34,4.2-26.03-8.31-50.67-27.94Z"/>
    <path class="cls-2" d="M112.25,3.67l-2.59,3.89c-1.12,1.4,.06,4.48,3.05,8.7,5.96,8.42,19.1,21.36,35.52,34.43,24.64,19.63,47.33,32.13,50.67,27.94l4.49-6.74c-2.71,3.4-18.12-4.17-36.97-17.6"/>
    <path class="cls-2" d="M125.15,2.63c9.63,4.36,24.27,13.85,39.67,26.12,24.64,19.63,41.91,38.94,38.57,43.13"/>
    <path class="cls-2" d="M147.7,87.14c16.64-2.11,42.45-5.76,49.42-7.74"/>
    <path class="cls-6" d="M163.52,118.62c-1.65-3.78-16.51-16.99-24.02-22.34-6.91-4.93-10.85-4.27-15.62-2.45-2.09,.8-18.42-13.14-25.74-19.96,4.29-9.07,5.95-19.51,4.17-30.16C97.66,15.92,71.37-2.83,43.59,1.82S-2.94,32.76,1.71,60.54s30.94,46.53,58.72,41.88c10.74-1.8,21.51-5.65,27.34-13.93,7.78,7.25,24.29,19.48,23.63,21.61s.74,10.46,6.59,15.12,25.66,20.04,28.46,18.56,18.73-21.39,17.08-25.17Zm-105.73-31.98c-19.06,3.19-37.11-9.67-40.3-28.74-3.19-19.06,9.67-37.11,28.74-40.3,19.06-3.19,37.11,9.67,40.3,28.74,3.19,19.06-9.67,37.11-28.74,40.3Z"/>
    <path class="cls-3" d="M39.99,28.79c4.44,2.3-6.56,15.29-6.06,24.34s11.36,19.39,8.89,22.84-18.42-7.06-18.27-24.32,12.23-24.52,15.44-22.86Z"/>
    <path class="cls-2" d="M48.61,86.96c-15.37-1.49-28.45-13.11-31.12-29.06-3.19-19.06,9.67-37.11,28.74-40.3,19.06-3.19,37.11,9.67,40.3,28.74"/>
    <path class="cls-2" d="M160.95,125.67c1.92-3.21,3.08-5.89,2.57-7.06-1.65-3.78-16.51-16.99-24.02-22.34-6.91-4.93-10.85-4.27-15.62-2.45-2.09,.8-18.42-13.14-25.74-19.96,4.29-9.07,5.95-19.51,4.17-30.16C97.66,15.92,71.37-2.83,43.59,1.82S-2.94,32.76,1.71,60.54c2.59,15.44,11.86,28.1,24.36,35.49"/>
  </g>
</svg>