<?xml version="1.0" encoding="UTF-8"?>
<svg id="Calque_2" data-name="Calque 2" xmlns="http://www.w3.org/2000/svg" xmlns:xlink="http://www.w3.org/1999/xlink" viewBox="0 0 120.71 117.97">
  <defs>
    <style>
      .cls-1 {
        fill: none;
        stroke: #260f26;
        stroke-linecap: round;
        stroke-linejoin: round;
        stroke-width: 2px;
      }

      .cls-2 {
        fill: url(#Nouvelle_nuance_de_dégradé_1_5-2);
      }

      .cls-3 {
        fill: #d08aff;
      }

      .cls-4 {
        fill: #dfb0ff;
      }

      .cls-5 {
        fill: url(#Nouvelle_nuance_de_dégradé_1_5);
      }
    </style>
    <linearGradient id="Nouvelle_nuance_de_dégradé_1_5" data-name="Nouvelle nuance de dégradé 1 5" x1="84.58" y1="109.65" x2="67.75" y2="33.39" gradientUnits="userSpaceOnUse">
      <stop offset="0" stop-color="#b78ad4"/>
      <stop offset="1" stop-color="#934ebf"/>
    </linearGradient>
    <linearGradient id="Nouvelle_nuance_de_dégradé_1_5-2" data-name="Nouvelle nuance de dégradé 1 5" x1="72.66" y1="123" x2="54.02" y2="38.56" xlink:href="#Nouvelle_nuance_de_dégradé_1_5"/>
  </defs>
  <g id="magasin">
    <path class="cls-5" d="M17.84,2.35c-2.44,.9-1.93,8.85,0,11.54s85.51,1.58,88.52,0,1.81-9.41,0-11.54S21.69,.92,17.84,2.35Z"/>
    <path class="cls-2" d="M109.6,54.85c-1.87-11.05-87.87-7.37-91.87,0-2.53,4.65-2,40.83,0,54.73,.47,3.27,5.62,5.45,13.27,6.77-1.8-3.39-3.2-21.92,0-27.14,3.2-5.21,25.2-5.21,28.2-.21,2.99,4.99,2,24.88,.01,28.97,23.57-.4,48.74-4.05,50.39-8.39,3.13-8.19,1.88-43.69,0-54.73Zm-10.4,49.15c-4,4-20,5-23.07,.9-3.06-4.1-2.56-16.55,0-19.62,3.94-4.73,20.07-5.28,23.07-2.81,3,2.47,4,17.53,0,21.53Z"/>
    <path class="cls-1" d="M106.36,2.35C104.56,.21,21.69,.92,17.84,2.35c-2.44,.9-1.93,8.85,0,11.54"/>
    <path class="cls-1" d="M111.3,100.95c.65-15.43-.36-38.24-1.7-46.1-1.87-11.05-87.87-7.37-91.87,0-2.18,4.02-1.89,32.74-.53,50.15"/>
    <path class="cls-1" d="M76.13,104.9c-3.06-4.1-2.56-16.55,0-19.62,3.94-4.73,20.07-5.28,23.07-2.81"/>
    <path class="cls-3" d="M37.83,7.68l-7.96,45.54c-.06,4.17-5.08,13.8-17.9,13.79-6.77-.01-12.07-7.85-10.77-15.01C3.2,41,12.78,10.21,15.2,9c1.06-.53,10.29-.99,22.63-1.32Z"/>
    <path class="cls-4" d="M62.24,7.23l-1.04,44.77c-.86,4.28-4.77,15.01-16.34,15.01s-14.88-9.3-14.99-13.79L37.83,7.68c7.39-.2,15.89-.36,24.41-.45Z"/>
    <path class="cls-3" d="M91.88,53.91c-.1-.29-.18-.53-.22-.69-.04,.1-.07,.22-.1,.38v.03c-.37,2.57,.74,12.57-12.81,13.38-14.45,.85-17.55-10.73-17.55-15.01l1.04-44.77c9.07-.11,18.17-.14,25.97-.1l3.67,46.78Z"/>
    <path class="cls-4" d="M106.88,65.3c-9.39,1.56-13.91-8.24-15-11.39l-3.67-46.78c12.17,.07,21.18,.35,21.99,.87,2.63,1.71,8.65,33.36,9.51,40.2,.85,6.84-2.57,15.39-12.83,17.1Z"/>
    <path class="cls-1" d="M31,42.7c1.2-6.7,4.65-24.67,5.42-27.19"/>
    <path class="cls-1" d="M62.2,26c.04,2.1,0,21-1,26"/>
    <path class="cls-1" d="M29.87,53.22c-.06,4.17-5.08,13.8-17.9,13.79-6.77-.01-12.07-7.85-10.77-15.01C3.2,41,12.78,10.21,15.2,9c1.06-.53,10.29-.99,22.63-1.32"/>
    <path class="cls-1" d="M37.83,7.68c7.39-.2,15.89-.36,24.41-.45"/>
    <path class="cls-1" d="M44.86,67.01c-11.58,0-14.88-9.3-14.99-13.79"/>
    <path class="cls-1" d="M88.2,18c.87,4.35,4,33,4,37,0,3,.1,11.2-13.45,12.01"/>
    <path class="cls-1" d="M62.24,7.23c9.07-.11,18.17-.14,25.97-.1"/>
    <path class="cls-1" d="M88.21,7.13c12.17,.07,21.18,.35,21.99,.87,2.63,1.71,8.65,33.36,9.51,40.2"/>
  </g>
</svg>