<?xml version="1.0" encoding="UTF-8"?>
<svg id="Calque_2" data-name="Calque 2" xmlns="http://www.w3.org/2000/svg" xmlns:xlink="http://www.w3.org/1999/xlink" viewBox="0 0 184.48 65.29">
  <defs>
    <style>
      .cls-1 {
        fill: none;
        stroke: #260f26;
        stroke-linecap: round;
        stroke-linejoin: round;
        stroke-width: 2px;
      }

      .cls-2 {
        fill: url(#Nouvelle_nuance_de_dégradé_1_5-2);
      }

      .cls-3 {
        fill: url(#Nouvelle_nuance_de_dégradé_1_5);
      }

      .cls-4 {
        fill: url(#Nouvelle_nuance_de_dégradé_1_7);
      }
    </style>
    <linearGradient id="Nouvelle_nuance_de_dégradé_1_5" data-name="Nouvelle nuance de dégradé 1 5" x1="0" y1="33.14" x2="45.84" y2="33.14" gradientUnits="userSpaceOnUse">
      <stop offset="0" stop-color="#b78ad4"/>
      <stop offset="1" stop-color="#934ebf"/>
    </linearGradient>
    <linearGradient id="Nouvelle_nuance_de_dégradé_1_5-2" data-name="Nouvelle nuance de dégradé 1 5" x1="69.13" y1="35.01" x2="104.54" y2="35.01" xlink:href="#Nouvelle_nuance_de_dégradé_1_5"/>
    <linearGradient id="Nouvelle_nuance_de_dégradé_1_7" data-name="Nouvelle nuance de dégradé 1 7" x1="125.97" y1="33.14" x2="184.48" y2="33.14" gradientUnits="userSpaceOnUse">
      <stop offset="0" stop-color="#f39ba8"/>
      <stop offset="1" stop-color="#f36177"/>
    </linearGradient>
  </defs>
  <g id="Calque_14" data-name="Calque 14">
    <g>
      <path class="cls-3" d="M0,53.36c0-1.49,5.03-6.52,7.92-8.57,.75-.56,1.4-.93,1.68-.93,1.77,0,4.1,6.99,13.79,6.99,4.47,0,7.45-2.89,7.45-6.71,0-4.57-5.12-7.55-13.51-7.55-2.7,0-4.38-1.3-4.38-5.87,0-3.91,.75-5.31,3.54-5.87,3.91-.75,11.18-3.82,11.18-8.66,0-1.68-1.03-2.7-2.89-2.7-3.35,0-7.08,2.8-9.22,5.5-1.02,1.3-1.58,2.33-3.45,2.33-2.05,0-9.88-4.1-9.88-6.24C2.24,11.9,9.32,1,24.78,1c11.65,0,18.17,5.59,18.17,13.79,0,10.53-9.69,13.88-9.69,13.88,0,0,12.58,2.98,12.58,15.65,0,11.09-7.92,20.96-21.99,20.96C7.64,65.29,0,56.06,0,53.36Z"/>
      <path class="cls-2" d="M102.58,28.3c1.03,0,1.96,2.14,1.96,6.89s-.93,6.52-1.96,6.52h-31.49c-1.03,0-1.96-1.77-1.96-6.52s.93-6.89,1.96-6.89h31.49Z"/>
      <path class="cls-4" d="M127.55,5.57c-.28-.47-.65-1.12-.65-1.58,0-1.49,1.96-2.05,8.48-2.05,7.64,0,10.16,.93,11.18,2.42l9.88,15.19c4.01-5.96,5.68-10.53,6.8-15.19,.37-1.68,5.12-2.42,10.71-2.42,4.84,0,10.53,.37,10.53,2.42,0,7.36-8.2,16.86-19.01,28.98l18.08,27.39c.37,.47,.65,1.12,.65,1.58,0,1.49-2.89,2.05-9.41,2.05-7.64,0-9.22-.93-10.25-2.42l-9.97-15.19c-4.1,5.96-6.34,10.9-7.36,15.19-.37,1.68-5.12,2.42-10.71,2.42-4.84,0-10.53-.37-10.53-2.42,0-6.8,9.88-17.8,19.57-28.88L127.55,5.57Z"/>
      <path class="cls-1" d="M1.36,51c1.7-2.09,4.62-4.83,6.56-6.21,.75-.56,1.4-.93,1.68-.93,1.77,0,4.1,6.99,13.79,6.99,4.47,0,7.45-2.89,7.45-6.71,0-4.57-5.12-7.55-13.51-7.55-2.7,0-4.38-1.3-4.38-5.87,0-3.91,.75-5.31,3.54-5.87,3.91-.75,11.18-3.82,11.18-8.66,0-1.68-1.03-2.7-2.89-2.7-3.35,0-7.08,2.8-9.22,5.5-1.02,1.3-1.58,2.33-3.45,2.33-2.05,0-9.88-4.1-9.88-6.24C2.24,11.9,9.32,1,24.78,1c11.65,0,18.17,5.59,18.17,13.79"/>
      <path class="cls-1" d="M69.13,35.19c0-4.75,.93-6.89,1.96-6.89h31.49"/>
      <path class="cls-1" d="M163.54,60.41l-7.63-11.63"/>
      <path class="cls-1" d="M126.97,57.63c2.75-6.68,10.72-15.6,18.56-24.58L127.55,5.57c-.28-.47-.65-1.12-.65-1.58,0-1.49,1.96-2.05,8.48-2.05,7.64,0,10.16,.93,11.18,2.42l9.88,15.19c4.01-5.96,5.68-10.53,6.8-15.19,.37-1.68,5.12-2.42,10.71-2.42,2.88,0,6.06,.13,8.16,.67"/>
    </g>
  </g>
</svg>