<svg xmlns="http://www.w3.org/2000/svg" xmlns:xlink="http://www.w3.org/1999/xlink" width="473.417" height="1368.397" viewBox="0 0 473.417 1368.397"><defs><linearGradient id="a" x1="1.023" y1="0.809" x2="-0.506" y2="0.066" gradientUnits="objectBoundingBox"><stop offset="0" stop-color="#fffcf9"/><stop offset="0.05" stop-color="#e6d5ec"/><stop offset="0.12" stop-color="#cdacde"/><stop offset="0.18" stop-color="#b88ad3"/><stop offset="0.25" stop-color="#a76fca"/><stop offset="0.32" stop-color="#9c5cc3"/><stop offset="0.39" stop-color="#9551c0"/><stop offset="0.46" stop-color="#934ebf"/></linearGradient><linearGradient id="b" x1="1.309" y1="0.948" x2="-0.598" y2="-0.149" gradientUnits="objectBoundingBox"><stop offset="0" stop-color="#fffcf9"/><stop offset="0.06" stop-color="#eef0f5"/><stop offset="0.17" stop-color="#c4d1ec"/><stop offset="0.32" stop-color="#80a1de"/><stop offset="0.33" stop-color="#7c9ede"/><stop offset="0.53" stop-color="#6b94de"/><stop offset="0.76" stop-color="#608dde"/><stop offset="1" stop-color="#5d8bde"/></linearGradient><linearGradient id="c" x1="1.323" y1="0.789" x2="-1.267" y2="-0.077" gradientUnits="objectBoundingBox"><stop offset="0" stop-color="#fffcf9"/><stop offset="0.1" stop-color="#f6e6fa"/><stop offset="0.31" stop-color="#dfb0fe"/><stop offset="0.31" stop-color="#dfb0ff"/><stop offset="0.4" stop-color="#d9a1ff"/><stop offset="0.52" stop-color="#d393ff"/><stop offset="0.68" stop-color="#d08cff"/><stop offset="1" stop-color="#d08aff"/></linearGradient><linearGradient id="d" x1="0.535" y1="0.024" x2="0.273" y2="1.213" gradientUnits="objectBoundingBox"><stop offset="0" stop-color="#dfb0ff"/><stop offset="0.06" stop-color="#e0b5fe"/><stop offset="0.13" stop-color="#e5c4fc"/><stop offset="0.16" stop-color="#e9cefc"/><stop offset="0.58" stop-color="#f5e7fa"/><stop offset="1" stop-color="#fffcf9"/></linearGradient><linearGradient id="e" x1="0.532" y1="-0.007" x2="0.278" y2="1.146" xlink:href="#d"/><linearGradient id="f" x1="0.531" y1="-0.036" x2="0.284" y2="1.206" xlink:href="#d"/><linearGradient id="g" x1="0.544" y1="-0.081" x2="0.299" y2="1.322" xlink:href="#d"/><linearGradient id="h" x1="0.627" y1="-0.155" x2="0.381" y2="1.115" xlink:href="#d"/><radialGradient id="i" cx="0.111" cy="1.762" r="1.344" gradientTransform="translate(-0.099) scale(1.198 1)" gradientUnits="objectBoundingBox"><stop offset="0" stop-color="#dfb0ff"/><stop offset="0.36" stop-color="#ddadff"/><stop offset="0.6" stop-color="#daa4ff"/><stop offset="0.8" stop-color="#d495ff"/><stop offset="0.9" stop-color="#d08aff"/></radialGradient><radialGradient id="j" cx="0.873" cy="-0.694" r="1.321" gradientTransform="translate(-0.128) scale(1.256 1)" xlink:href="#i"/><radialGradient id="k" cx="0.159" cy="3.464" r="2.734" gradientTransform="translate(0.253) scale(0.494 1)" gradientUnits="objectBoundingBox"><stop offset="0" stop-color="#b78ad4"/><stop offset="0.3" stop-color="#b586d2"/><stop offset="0.53" stop-color="#af7ccf"/><stop offset="0.75" stop-color="#a56cc9"/><stop offset="0.95" stop-color="#9654c1"/><stop offset="1" stop-color="#934ebf"/></radialGradient><radialGradient id="l" cx="0.744" cy="-2.59" r="2.734" xlink:href="#k"/><radialGradient id="m" cx="-0.297" cy="0.483" r="0.825" gradientTransform="translate(-0.549) scale(2.098 1)" xlink:href="#k"/><radialGradient id="n" cx="1.18" cy="0.476" r="0.832" gradientTransform="translate(-0.553) scale(2.107 1)" xlink:href="#k"/><radialGradient id="o" cx="0.88" cy="1.412" r="2.209" gradientTransform="translate(-0.251) scale(1.503 1)" xlink:href="#k"/><radialGradient id="p" cx="-0.13" cy="-0.533" r="2.233" gradientTransform="translate(-0.251) scale(1.502 1)" xlink:href="#k"/><linearGradient id="q" x1="1.051" y1="0.736" x2="-0.183" y2="0.081" xlink:href="#c"/></defs><g transform="translate(-1615.651 104.645)"><g transform="matrix(0.985, -0.174, 0.174, 0.985, 1583.842, 862.77)"><path d="M81.074,191.688c-5.813-3.63-12.967-3.1-19.253-16.518S75.261,72.33,84.467,59.179,162.057,0,177.839,0s96.2,46.87,104,55.655,33.535,90.36,29.866,98.882-6.983,13.782-14.532,17.727-158.548,61.3-164.584,59.574-51.525-40.163-51.525-40.163Z" transform="translate(19.09 0)" fill="url(#a)"/><path d="M151.681,182.609c-.776-8.193-2.38-17.806-8.811-24.172S19.567,129.558,3.707,144.09s23.58,147.37,36.731,153.945,89.663,8.1,107.3-2.525" transform="translate(-0.006 43.89)" fill="url(#b)"/><path d="M269.962,125.454c12.217,1.052,95.529,26.039,109.035,45.621s31.05,150.71,19.358,192.083c-8.482,30.024-176.815,33.3-192.6,27.709s-86.56-51.381-92.6-65.965-6.036-148.54,15.005-164.413,117.859-37.112,141.781-35.034Z" transform="translate(34.554 39.485)" fill="url(#c)"/><path d="M183.434,370.413c-14.466-21.042-14.466-169.647-2.63-182.8s147.291-32.877,170.962-26.3" transform="translate(54.262 50.417)" fill="none" stroke="#260f26" stroke-linecap="round" stroke-miterlimit="10" stroke-width="2"/><path d="M194.82,189.193C190.875,172.1,142.216,155,127.75,155" transform="translate(40.246 48.839)" fill="none" stroke="#260f26" stroke-linecap="round" stroke-miterlimit="10" stroke-width="2"/><ellipse cx="17.201" cy="22.357" rx="17.201" ry="22.357" transform="translate(283.725 269.594)" fill="#260f26" stroke="#260f26" stroke-linecap="round" stroke-miterlimit="10" stroke-width="2"/><ellipse cx="17.201" cy="22.357" rx="17.201" ry="22.357" transform="translate(357.278 256.851)" fill="#260f26" stroke="#260f26" stroke-linecap="round" stroke-miterlimit="10" stroke-width="2"/><ellipse cx="17.201" cy="22.357" rx="17.201" ry="22.357" transform="translate(283.632 351.538)" fill="#260f26" stroke="#260f26" stroke-linecap="round" stroke-miterlimit="10" stroke-width="2"/><ellipse cx="17.201" cy="22.357" rx="17.201" ry="22.357" transform="translate(357.278 335.757)" fill="#260f26" stroke="#260f26" stroke-linecap="round" stroke-miterlimit="10" stroke-width="2"/><ellipse cx="16.097" cy="5.997" rx="16.097" ry="5.997" transform="translate(305.45 190.32)" fill="#260f26" stroke="#260f26" stroke-linecap="round" stroke-miterlimit="10" stroke-width="2"/><ellipse cx="16.097" cy="5.997" rx="16.097" ry="5.997" transform="translate(227.741 187.992)" fill="#260f26" stroke="#260f26" stroke-linecap="round" stroke-miterlimit="10" stroke-width="2"/><ellipse cx="15.15" cy="6.352" rx="15.15" ry="6.352" transform="translate(197.575 288.9) rotate(-86.25)" fill="#260f26" stroke="#260f26" stroke-linecap="round" stroke-miterlimit="10" stroke-width="2"/><ellipse cx="15.15" cy="6.352" rx="15.15" ry="6.352" transform="translate(160.996 273.731) rotate(-86.25)" fill="#260f26" stroke="#260f26" stroke-linecap="round" stroke-miterlimit="10" stroke-width="2"/><ellipse cx="15.15" cy="6.352" rx="15.15" ry="6.352" transform="translate(175.758 316.275) rotate(-86.25)" fill="#260f26" stroke="#260f26" stroke-linecap="round" stroke-miterlimit="10" stroke-width="2"/><ellipse cx="15.15" cy="6.352" rx="15.15" ry="6.352" transform="translate(192.631 365) rotate(-86.25)" fill="#260f26" stroke="#260f26" stroke-linecap="round" stroke-miterlimit="10" stroke-width="2"/><ellipse cx="15.15" cy="6.352" rx="15.15" ry="6.352" transform="translate(156.052 349.831) rotate(-86.25)" fill="#260f26" stroke="#260f26" stroke-linecap="round" stroke-miterlimit="10" stroke-width="2"/><path d="M124.546,157c-10.376,4.143-34.876,22.778-42.083,32.877-6.575,9.206-36.823,61.81-44.713,85.481" transform="translate(11.887 49.47)" fill="none" stroke="#260f26" stroke-linecap="round" stroke-miterlimit="10" stroke-width="2"/><path d="M11.75,149c10.521,2.63,64.571,32.286,78.906,43.4s35.508,32.877,42.083,43.4" transform="translate(3.695 46.949)" fill="none" stroke="#260f26" stroke-linecap="round" stroke-miterlimit="10" stroke-width="2"/><path d="M15.75,182.586c3.945-5.26,13.151-17.1,22.357-6.576s-4.629,24.5-6.917,26.71,10.863-17.5,20.068-8.3,3.945,23.672-9.206,34.192" transform="translate(4.955 54.131)" fill="none" stroke="#260f26" stroke-linecap="round" stroke-miterlimit="10" stroke-width="2"/><path d="M55.916,162.317c-6.339-2.065-9.193-6.483-5.063-11.836,5.339-6.917,13.125-.763,20.213,9.982,14.177,21.489,10.679,16.636,18.477-.079" transform="translate(15.407 46.493)" fill="none" stroke="#260f26" stroke-linecap="round" stroke-miterlimit="10" stroke-width="2"/><path d="M108.056,173c-5.26,2.63-13.151,9.206-7.891,18.411s11.3,5.339,14.466,2.63" transform="translate(31.008 54.511)" fill="none" stroke="#260f26" stroke-linecap="round" stroke-miterlimit="10" stroke-width="2"/><path d="M60.176,231.548c-2.8,9.311,3.656,20.594,15.163,23.816,15.045,4.208,20.884-25.421,32.1-20.7,9.4,3.958,13.638,10.56,12.533,18.359-1.013,7.233-9.363,14.624-19.214,8.785-12.993-7.693-.934-36.034-19.306-42.517-13.23-4.682-18.832,4.169-21.265,12.27Z" transform="translate(18.749 68.687)" fill="none" stroke="#260f26" stroke-linecap="round" stroke-miterlimit="10" stroke-width="2"/><path d="M88.12,46.739C111.818,39.1,161.765,25,167.854,25c6.4,0,66.5,13.059,92.057,19.726" transform="translate(27.759 7.877)" fill="none" stroke="#260f26" stroke-linecap="round" stroke-miterlimit="10" stroke-width="2"/><path d="M102.107,106.623C94.216,92.078,84.274,68.774,79.75,53.94" transform="translate(25.121 16.996)" fill="none" stroke="#260f26" stroke-linecap="round" stroke-miterlimit="10" stroke-width="2"/><path d="M211.588,99c-22,2.525-78.09,5.024-100.013,6.207-4.432.237-7.259.368-7.825.368" transform="translate(32.684 31.194)" fill="none" stroke="#260f26" stroke-linecap="round" stroke-miterlimit="10" stroke-width="2"/><path d="M235.107,48.19c-7.023,13.624-25.2,41.636-34.8,55.747" transform="translate(63.109 15.184)" fill="none" stroke="#260f26" stroke-linecap="round" stroke-miterlimit="10" stroke-width="2"/><path d="M68.75,168.757c5.944-2.5,34.035-22.3,43.254-31.023a14.609,14.609,0,0,0,2.775-3.169c.881-1.762,7.812-13.7,16.636-28.906,17.53-30.195,42.543-73.238,42.543-74.987,0-2.63,1.315-19.726,1.315-23.672" transform="translate(21.655 2.205)" fill="none" stroke="#260f26" stroke-linecap="round" stroke-miterlimit="10" stroke-width="2"/><path d="M276.314,144.674c-7.614-2-63.125-21.041-65.755-24.987S152.7,27.63,148.75,25" transform="translate(46.863 7.877)" fill="none" stroke="#260f26" stroke-linecap="round" stroke-miterlimit="10" stroke-width="2"/><path d="M104.781,105.052c-2.63-3.945,36.178,47.186,38.138,48.659" transform="translate(32.968 33.033)" fill="none" stroke="#260f26" stroke-linecap="round" stroke-miterlimit="10" stroke-width="2"/><path d="M199.531,97c-1.315,5.26-13.151,36.823-15.781,40.768" transform="translate(57.891 30.564)" fill="none" stroke="#260f26" stroke-linecap="round" stroke-miterlimit="10" stroke-width="2"/><path d="M135.669,69.6c-.671-5.379,1.591-9.008,6.944-7.825,6.944,1.539,5.1,9.39-.342,18.319-10.9,17.859-8.535,13.611,6.457,13.559" transform="translate(42.69 19.394)" fill="none" stroke="#260f26" stroke-linecap="round" stroke-miterlimit="10" stroke-width="2"/><path d="M98.048,63.325c-4.169-1.775-4.327-6.878-2.17-11.231,4.419-8.943,11.533-.96,13.151,8.43,3.459,20.082,6.089,21.962,15.1-4.235" transform="translate(29.772 15.186)" fill="none" stroke="#260f26" stroke-linecap="round" stroke-miterlimit="10" stroke-width="2"/><path d="M75.681,110.434c-1.262,3.551-3.682,2.67-5.523-.237-3.774-5.944.723-11.02,5.313-10.639,9.824.8,10.981-1.276-.473-15.018" transform="translate(21.655 26.638)" fill="none" stroke="#260f26" stroke-linecap="round" stroke-miterlimit="10" stroke-width="2"/><path d="M193.99,42.09c1.565.921,12.322,5.813,12.1,7.365s-20.752,6.036-24.579,6.234" transform="translate(57.186 13.262)" fill="none" stroke="#260f26" stroke-linecap="round" stroke-miterlimit="10" stroke-width="2"/><path d="M86.836,114.024c-1.552.066-11.6,1.512-12.151.289S86.967,100.347,89.65,98.44" transform="translate(23.52 31.018)" fill="none" stroke="#260f26" stroke-linecap="round" stroke-miterlimit="10" stroke-width="2"/><path d="M116.665,144.408c-1.657.96-11.639,8.311-13.059,7.351s3.972-21.739,5.6-25.289" transform="translate(32.564 39.85)" fill="none" stroke="#260f26" stroke-linecap="round" stroke-miterlimit="10" stroke-width="2"/><path d="M217.985,126.767a65.431,65.431,0,0,1-5.155-11.547" transform="translate(67.054 36.305)" fill="none" stroke="#260f26" stroke-linecap="round" stroke-miterlimit="10" stroke-width="2"/><path d="M226.065,121l-1.315,2.63" transform="translate(70.81 38.126)" fill="none" stroke="#260f26" stroke-linecap="round" stroke-miterlimit="10" stroke-width="2"/><ellipse cx="8.548" cy="15.124" rx="8.548" ry="15.124" transform="translate(199.558 81.536)" fill="none" stroke="#260f26" stroke-linecap="round" stroke-miterlimit="10" stroke-width="2"/><ellipse cx="13.243" cy="7.036" rx="13.243" ry="7.036" transform="translate(113.417 189.611) rotate(-80.74)" fill="none" stroke="#260f26" stroke-linecap="round" stroke-miterlimit="10" stroke-width="2"/><path d="M208.531,54c-3.945,0-15.781,2.63-15.781,3.945s7.772,13.585,9.8,15.992" transform="translate(60.727 17.015)" fill="none" stroke="#260f26" stroke-linecap="round" stroke-miterlimit="10" stroke-width="2"/><path d="M211.757,60c-3.945,1.315-16.807,6.839-20.9,8.68" transform="translate(60.132 18.905)" fill="none" stroke="#260f26" stroke-linecap="round" stroke-miterlimit="10" stroke-width="2"/><path d="M244.331,107.8c2.88-8.075-2.656-23.751-9.955-27.209s-11.625,1.381-11.625,7.838,6.128,10.337,10.258,10.008,8.39-6.97,7.009-11.625" transform="translate(70.18 25.029)" fill="none" stroke="#260f26" stroke-linecap="round" stroke-miterlimit="10" stroke-width="2"/><path d="M214.75,89.676S229.413,70.87,229.768,70.16" transform="translate(67.659 22.107)" fill="none" stroke="#260f26" stroke-linecap="round" stroke-miterlimit="10" stroke-width="2"/><path d="M151,146.41c.25-10.258,21-12.033,18.766-25.145-1.618-9.429-8.706-9.982-14.3-8.877-6.431,1.276-10.968,8.759-9.074,16.689,2.485,10.376,21.949,4.458,22.869,12.691" transform="translate(45.984 35.283)" fill="none" stroke="#260f26" stroke-linecap="round" stroke-miterlimit="10" stroke-width="2"/><path d="M213.6,127.1a6.556,6.556,0,0,0-.381-5.892c-2.92-4.918-6.97-3.38-9.824-1.289a8.4,8.4,0,0,0-2.538,9.653" transform="translate(63.106 37.159)" fill="none" stroke="#260f26" stroke-linecap="round" stroke-miterlimit="10" stroke-width="2"/></g><g transform="matrix(1, 0.017, -0.017, 1, 1685.652, -104.645)"><path d="M85.5,257.518,2.467,84.919A24.89,24.89,0,0,1,14.105,51.7L116.433,2.467a24.89,24.89,0,0,1,33.221,11.638l3.527,7.328L85.508,257.513Z" transform="translate(0 0)" fill="url(#d)"/><g transform="translate(27.413 99.06)"><path d="M2.692.081C.447.944-2.8,18.279,4.526,16.888c2.372-.453,3.042-3.155,2.825-5.079a.132.132,0,0,1,.245-.08c1.127,1.853,2.678,3.6,4.97,2.311C18.8,10.531,5.8-1.112,2.692.086Z" transform="translate(0 0)" fill="#260f26" stroke="#260f26" stroke-width="2"/><path d="M.82,7.4a9.048,9.048,0,0,0,3-.552C4.1,6.7,1.226,1.4.184.042A.1.1,0,0,0,0,.1c.009,1.4.094,7.224.816,7.3Z" transform="translate(7.657 13.167)" fill="#260f26" stroke="#260f26" stroke-width="2"/></g><path d="M12.77,19.7l-.49-1.014c1.669-.934,2.4-1.613,2.193-2.047a1.856,1.856,0,0,0-.406-.552l-3.853-3.706L3.188,15.764a19.473,19.473,0,0,0,.872,5.347c.354.731,1.5.646,3.49-.151l.49,1.014L.49,25.606,0,24.592a4.363,4.363,0,0,0,1.6-1.438,3.469,3.469,0,0,0,.528-1.65q.042-.856-.49-7.738L.594.542,1.721,0,16.712,14.071a3.412,3.412,0,0,0,3.919.6l.49,1.014L12.77,19.7ZM2.363,5.074l.754,9.191,6.012-2.891-6.767-6.3Z" transform="translate(16.817 69.362)" fill="#260f26"/><path d="M85.94,264.565a24.89,24.89,0,0,1-30.9-16.858L1.017,63.946a24.89,24.89,0,0,1,16.858-30.9L126.819,1.017a24.89,24.89,0,0,1,30.9,16.858Z" transform="translate(28.178 11.98)" fill="url(#e)"/><path d="M55.038,246.69,1.017,62.929a24.89,24.89,0,0,1,16.858-30.9L126.819,0" transform="translate(28.178 12.997)" fill="none" stroke="#260f26" stroke-linecap="round" stroke-miterlimit="10" stroke-width="2"/><g transform="translate(52.418 90.988)"><path d="M4.169.028c-2.339.561-7.856,17.311-.41,16.9C6.169,16.8,7.192,14.2,7.234,12.27a.132.132,0,0,1,.255-.047c.868,1.985,2.174,3.923,4.621,2.947C18.75,12.52,7.414-.745,4.174.033Z" transform="translate(0 0)" fill="#260f26" stroke="#260f26" stroke-width="2"/><path d="M.314,7.437a8.952,8.952,0,0,0,3.046-.151c.3-.113-1.849-5.748-2.7-7.234A.1.1,0,0,0,.47.09C.3,1.476-.393,7.262.31,7.437Z" transform="translate(6.873 13.67)" fill="#260f26" stroke="#260f26" stroke-width="2"/></g><path d="M20.9,22.715A73.677,73.677,0,0,0,9.563,14.722l-.358.1,2.179,7.4a1.838,1.838,0,0,0,.835,1.141,4.427,4.427,0,0,0,2.561-.033l.316,1.08-8.832,2.6-.316-1.08A10.9,10.9,0,0,0,7.9,25.049a1.27,1.27,0,0,0,.4-.655,1.867,1.867,0,0,0-.057-1.028L3.721,7.983Q3.19,6.18.311,6.767L0,5.7,8.832,3.1l.311,1.066A6.092,6.092,0,0,0,7.078,5.3a1.527,1.527,0,0,0-.207,1.58l2.164,7.361.269-.08A47.662,47.662,0,0,0,13.081,7.5c.9-1.995,1.25-3.32,1.056-3.985-.123-.41-.934-.443-2.443-.1l-.311-1.066L19.39,0,19.7,1.066a6.512,6.512,0,0,0-1.726.816,4.214,4.214,0,0,0-1.108.929q-.255.368-1.443,2.971-1.8,3.876-3.348,6.55,3.042,1.91,7.031,4.706,2.822,1.995,3.589,2.4a5.506,5.506,0,0,0,1.594.566,6.312,6.312,0,0,0,2.278-.137l.316,1.08L20.9,22.71Z" transform="translate(38.296 58.186)" fill="#260f26"/><path d="M31.92,246.441a24.767,24.767,0,0,1-6.324-13.52L.222,43.214A24.871,24.871,0,0,1,21.579,15.265L134.05.222A24.871,24.871,0,0,1,162,21.579Z" transform="translate(59.053 23.418)" fill="url(#f)"/><path d="M24.565,224.588.223,42.61A24.9,24.9,0,0,1,21.594,14.637L131.009,0" transform="translate(58.972 23.847)" fill="none" stroke="#260f26" stroke-linecap="round" stroke-miterlimit="10" stroke-width="2"/><g transform="translate(74.402 86.813)"><path d="M5.81.011C3.419.256-4.272,16.124,3.16,16.7c2.41.189,3.763-2.245,4.06-4.159a.133.133,0,0,1,.259-.014c.6,2.084,1.636,4.178,4.187,3.532C18.6,14.313,9.125-.334,5.806.006Z" transform="translate(0 0)" fill="#260f26" stroke="#260f26" stroke-width="2"/><path d="M.177,7.336a9.094,9.094,0,0,0,3.042.255C3.525,7.52,2.148,1.649,1.5.064a.1.1,0,0,0-.193.009C.95,1.422-.5,7.067.177,7.336Z" transform="translate(5.832 13.966)" fill="#260f26" stroke="#260f26" stroke-width="2"/></g><path d="M14.866,22.39a4.7,4.7,0,0,0,1.49,3.023,3.491,3.491,0,0,0,2.683,1.141,14.171,14.171,0,0,0,2.532-.377c.165-.042.325-.08.476-.113l.09,1.217A15.991,15.991,0,0,1,17.521,28.3a5.827,5.827,0,0,1-4.15-1.136A6.017,6.017,0,0,1,11.2,23.243a10.061,10.061,0,0,1-7.7-2.919,11.945,11.945,0,0,1-3.452-7.9A11.669,11.669,0,0,1,2.507,3.853,10.037,10.037,0,0,1,9.83.033a10.106,10.106,0,0,1,7.847,2.683,11.734,11.734,0,0,1,3.664,8.125,12.126,12.126,0,0,1-1.419,6.974,10.678,10.678,0,0,1-5.055,4.574ZM9.929,1.405A5.743,5.743,0,0,0,5.067,4.536a13.568,13.568,0,0,0-1.25,7.606,13.443,13.443,0,0,0,2.367,7.342,5.764,5.764,0,0,0,5.263,2.358,5.768,5.768,0,0,0,4.871-3.117,13.534,13.534,0,0,0,1.24-7.606,13.5,13.5,0,0,0-2.367-7.352A5.758,5.758,0,0,0,9.929,1.405Z" transform="translate(68.614 51.886)" fill="#260f26"/><path d="M2.539,218.092,0,26.707a24.871,24.871,0,0,1,24.54-25.2L138,0a24.871,24.871,0,0,1,25.2,24.54l.339,25.54Z" transform="translate(91.146 36.893)" fill="url(#g)"/><path d="M1.94,173.113,0,26.648A24.891,24.891,0,0,1,24.561,1.429L132.6,0" transform="translate(91.094 36.777)" fill="none" stroke="#260f26" stroke-linecap="round" stroke-miterlimit="10" stroke-width="2"/><path d="M0,.41,30.863,0a1.5,1.5,0,0,1,1.514,1.476l.061,4.452" transform="translate(194.919 56.583)" fill="none" stroke="#260f26" stroke-linecap="round" stroke-miterlimit="10" stroke-width="2"/><g transform="translate(98.246 82.927)"><path d="M.149,7.262a9.076,9.076,0,0,0,3.023.42c.311-.057-.75-5.993-1.311-7.611a.1.1,0,0,0-.193,0C1.238,1.4-.516,6.956.149,7.262Z" transform="translate(9.154 16.162)" fill="#260f26" stroke="#260f26" stroke-width="2"/><path d="M21.691,13.649a5.424,5.424,0,0,1-10.813.358c0-.038-.057-.038-.061,0A5.423,5.423,0,1,1,5.422,8.014c.146,0,.292,0,.434.019a5.451,5.451,0,0,1-.67-2.721,5.421,5.421,0,0,1,10.841.113A5.337,5.337,0,0,1,15.32,8.1a5.656,5.656,0,0,1,.943-.08,5.422,5.422,0,0,1,5.418,5.635Z" transform="translate(0 0)" fill="#260f26" stroke="#260f26" stroke-width="2"/></g><path d="M15.594,1.108a6.163,6.163,0,0,0-2.528.556,1.578,1.578,0,0,0-.556,1.4V16.217a6.532,6.532,0,0,1-1.863,4.518,6.333,6.333,0,0,1-4.9,2.028,5.961,5.961,0,0,1-4.173-1.438A4.957,4.957,0,0,1,0,17.471,3.11,3.11,0,0,1,.594,15.5a1.884,1.884,0,0,1,1.551-.759,2.145,2.145,0,0,1,1.542.542,1.837,1.837,0,0,1,.556,1.386A6.147,6.147,0,0,1,3.056,19.4a3.487,3.487,0,0,0-.424.863V20.3a3.4,3.4,0,0,0,2.881,1.283,2.973,2.973,0,0,0,2.763-1.462q.87-1.464.868-5.145V3.244c0-1.264-1.113-1.971-3.334-2.131V0h9.785V1.113Z" transform="translate(101.169 52.395)" fill="#260f26"/><rect width="163.215" height="241.145" rx="29" transform="translate(121.985 48.016) rotate(9.26)" fill="url(#h)"/><path d="M2.97,225.723A24.761,24.761,0,0,1,.329,209.93L31.155,20.888A24.891,24.891,0,0,1,59.727.328L171.8,18.606a24.862,24.862,0,0,1,8.2,2.862" transform="translate(86.787 51.511)" fill="none" stroke="#260f26" stroke-linecap="round" stroke-miterlimit="10" stroke-width="2"/><path d="M33.94,33.2c2.872.981,1.372-5.7.646-16.736s-5.876-14.42-14.3-16.1S3.718,2.988,1.271,9.08s-.853,14.18.561,15.245Z" transform="translate(155.461 227.562)" fill="#fcdfcd"/><path d="M1.69.1c-2.872-.981-1.372,5.7-.646,16.736s5.876,14.42,14.3,16.1,16.57-2.622,19.018-8.714.853-14.18-.561-15.245L1.69.1Z" transform="translate(175.739 109.198)" fill="#fcdfcd"/><path d="M15.943,5.859A6.6,6.6,0,0,0,11.7,5.387a4.572,4.572,0,0,0-2.655,2.5L8.87,7.274C7.927,6.486,4.2,6.264,2.74,8.688S1.245,19.7,0,20.406l15.726,4.951c3.3.472,5.659-7.073,8.016-10.846s3.772-1.886,6.13-1.886,4.173-7.719-2.886-7.116a.291.291,0,0,1-.316-.335c.41-2.716-3.928-9.558-11.261-1.033l.528,1.721Z" transform="translate(174.731 236.451)" fill="#7c9ede"/><path d="M16.209,19.393a5.332,5.332,0,0,0,3.81.434,4.69,4.69,0,0,0,2.909-2.334l-.08.132c.943.787,4.673.853,6.13-1.57S30.724,5.68,31.973,4.972L16.247.021c-3.3-.472-5.659,7.073-8.016,10.846S4.458,12.753,2.1,12.753s-4.173,7.719,2.886,7.116A.291.291,0,0,1,5.3,20.2c-.41,2.716,3.928,9.558,11.261,1.033l-.354-1.849Z" transform="translate(160.281 108.839)" fill="#7c9ede"/><path d="M.117.028c-.811-.514,2.9,5.927,1.952,24.441a14.894,14.894,0,0,1,6.13.472c2.212.453,4.3.816,5.659,2.358.835-3.985,5.112-20.032,8.922-23.219-2.754.226-2.881.74-5.432.9S7.667,4.871,4.63,2.881.989.585.112.028Z" transform="translate(180.589 137.205)" fill="url(#i)"/><path d="M22,27.751c.811.514-2.664-5.47-1.721-23.979a16.845,16.845,0,0,1-6.366.014A12.1,12.1,0,0,1,8.016,0C7.182,3.985,3.81,20.39,0,23.578c2.754-.226,2.216-.613,4.763-.773s9.681.1,12.718,2.094,3.64,2.3,4.517,2.853Z" transform="translate(163.796 204.586)" fill="url(#j)"/><path d="M53.423,9.464C51.367,10.827,40.776,26.445,38.29,26.417S6.1,18.372,4.211,16.957.976,1.905,0,0" transform="translate(172.317 91.902)" fill="url(#k)"/><path d="M0,16.952C2.056,15.59,12.647-.028,15.132,0S47.325,8.045,49.212,9.459s3.235,15.052,4.211,16.957" transform="translate(141.081 251.821)" fill="url(#l)"/><path d="M10.134.171C9.058.26,3.569,8.3,1.212,23.39S.269,55.928,2.626,61.865s8.488,20.942,32.066,25.657c3.3-17.448,7.022-39.465,7.022-39.465-1.834-7.22-5.135-20.895-17.867-35.513S11.511.058,10.134.171Z" transform="translate(193.236 141.113)" fill="url(#m)"/><path d="M31.594,86.578c1.075-.09,6.13-7.545,8.488-22.635s.627-32.349-1.731-38.286S29.237,4.527,6.286,0C2.985,17.448,0,38.479,0,38.479,1.834,45.7,4.56,59.51,16.976,74.317,29.43,89.171,30.217,86.691,31.594,86.578Z" transform="translate(132.202 142.057)" fill="url(#n)"/><path d="M21.1,11.426C20.222,5.612,19.9,1.231,18.317.1S2.817,7.21.341,15.59,9.655,33.7,10.126,32.6a19.581,19.581,0,0,1,6.092-5.965c2.4-1.254,4.635-1.551,5.225-2.2s.255-9.049-.344-13.01Z" transform="translate(161.686 137.238)" fill="url(#o)"/><path d="M.421,21.262C1.3,27.076,1.7,31.1,3.288,32.231s15.42-6.753,17.9-15.132S11.87-1.009,11.4.085,7.574,4.1,5.179,5.352,1.053,7.064.463,7.71-.169,17.3.426,21.262Z" transform="translate(183.619 200.648)" fill="url(#p)"/><path d="M22.408,21.22,0,17.094,1.188,0l22.5,4.235Z" transform="translate(171.567 174.406)" fill="#260f26" stroke="#260f26" stroke-linecap="round" stroke-miterlimit="10" stroke-width="2"/><path d="M0,9.9c.472,8.016,0,27.822,24.049,39.139,1.415-7.545,2.358-16.5-3.791-29.534C14.161,6.6,5.687,2.037,2.358,0,.943,5.187,0,9.9,0,9.9Z" transform="translate(193.504 176.764)" fill="#7c9ede"/><path d="M25.325,38.625C24.854,30.609,24.986,11.317.936,0-.478,7.545-1.082,15.99,5.067,29.02c6.1,12.911,14.571,17.471,17.9,19.508C24.382,43.341,25.325,38.625,25.325,38.625Z" transform="translate(148.242 145.17)" fill="#7c9ede"/><path d="M0,8.69C0,7.247,8.087-1.184,16.306.141s8.743,8.224,8.714,8.549-1.24,8.79-1.575,8.8S1.419,13.726.948,13.255,0,9.308,0,8.685Z" transform="translate(171.813 161.147)" fill="#7c9ede"/><path d="M25.022,8.8c0,1.443-8.087,9.874-16.306,8.549S-.027,9.125,0,8.8,1.241.009,1.576,0,23.6,3.763,24.074,4.235s.943,3.947.943,4.569Z" transform="translate(169.925 191.802)" fill="#7c9ede"/><path d="M16.255,12.213c-1.174,4.749-7.776,6.635-12.492,2.862S-2.456,4.258,6.551,0" transform="translate(137.959 209.891)" fill="#fcdfcd" stroke="#260f26" stroke-linecap="round" stroke-miterlimit="10" stroke-width="2"/><path d="M0,4.868C1.174.119,7.776-1.767,12.491,2.005S18.711,12.823,9.7,17.081" transform="translate(212.607 143.164)" fill="#fcdfcd" stroke="#260f26" stroke-linecap="round" stroke-miterlimit="10" stroke-width="2"/><path d="M0,0A44.778,44.778,0,0,1,3.009,17.792" transform="translate(170.219 165.574)" fill="none" stroke="#260f26" stroke-linecap="round" stroke-miterlimit="10" stroke-width="2"/><path d="M7.88,9.694C7.281,4.4,6.234-.218,4.64.008A14.14,14.14,0,0,0,0,1.96" transform="translate(174.717 137.145)" fill="none" stroke="#260f26" stroke-linecap="round" stroke-miterlimit="10" stroke-width="2"/><path d="M28.491,27.529C21.347,14.283,10.921,2.706,5.357.094,3.829-.623,1.811,2.862,0,7.346" transform="translate(198.946 141.162)" fill="none" stroke="#260f26" stroke-linecap="round" stroke-miterlimit="10" stroke-width="2"/><path d="M0,9.9c.811,2.674,2.829,14.147,17.919,14.147S37.253,12.26,33.952,0" transform="translate(176.528 118.291)" fill="none" stroke="#260f26" stroke-linecap="round" stroke-miterlimit="10" stroke-width="2"/><path d="M0,3.211c1.415,3.3,3.772,3.772,6.13,3.3S10.846,2.447,8.96,0" transform="translate(174.17 122.153)" fill="none" stroke="#260f26" stroke-linecap="round" stroke-miterlimit="10" stroke-width="2"/><path d="M0,0C0,1.627.509,5.918.255,7.309" transform="translate(183.13 97.802)" fill="none" stroke="#260f26" stroke-linecap="round" stroke-miterlimit="10" stroke-width="2"/><path d="M1.264,0C.943,1.122,0,5.366,0,5.838" transform="translate(195.395 100.664)" fill="none" stroke="#260f26" stroke-linecap="round" stroke-miterlimit="10" stroke-width="2"/><path d="M3.772,0C3.3.943.472,5.187,0,6.13" transform="translate(205.765 102.258)" fill="none" stroke="#260f26" stroke-linecap="round" stroke-miterlimit="10" stroke-width="2"/><path d="M10.157,19.144l6.819-2.174-4.008-5.8a.21.21,0,0,1,.094-.311A5.658,5.658,0,0,0,10.638,0,5.714,5.714,0,0,0,5.187,5.625,5.653,5.653,0,0,0,6.276,9a.128.128,0,0,1-.047.193L0,12.1l4.074,5.22a.251.251,0,0,1-.132.4A5.661,5.661,0,0,0,5.927,28.764a5.666,5.666,0,0,0,4.126-9.228.243.243,0,0,1,.108-.387ZM5.663,24.619A1.884,1.884,0,1,1,7.54,22.733a1.888,1.888,0,0,1-1.877,1.886ZM9.36,7.388a1.882,1.882,0,1,1,1.485.726A1.89,1.89,0,0,1,9.36,7.388Z" transform="translate(219.916 115.467)" fill="#7c9ede"/><ellipse cx="5.489" cy="1.65" rx="5.489" ry="1.65" transform="matrix(0.175, -0.985, 0.985, 0.175, 199.297, 132.216)" fill="#260f26" stroke="#260f26" stroke-linecap="round" stroke-miterlimit="10" stroke-width="2"/><path d="M2.7,17.047A46.049,46.049,0,0,1,.008,0" transform="translate(193.458 186.747)" fill="none" stroke="#260f26" stroke-linecap="round" stroke-miterlimit="10" stroke-width="2"/><path d="M8.8,5.39A16.8,16.8,0,0,1,3.027,7.965C1.622,8.163.623,4.532,0,0" transform="translate(184.436 225.018)" fill="none" stroke="#260f26" stroke-linecap="round" stroke-miterlimit="10" stroke-width="2"/><path d="M0,0C7.111,14.378,18.622,27.43,24.582,30.227c1.594.745,3.711-3.06,5.578-7.8" transform="translate(137.945 198.658)" fill="none" stroke="#260f26" stroke-linecap="round" stroke-miterlimit="10" stroke-width="2"/><path d="M.325,18.971C-1.09,15.67,2.546,4.914,3.064,0" transform="translate(170.163 183.366)" fill="none" stroke="#260f26" stroke-linecap="round" stroke-miterlimit="10" stroke-width="2"/><path d="M34.993,14.038C34.182,11.365,32.253,0,17.163,0S-2.26,11.681,1.041,23.941" transform="translate(155.21 227.8)" fill="none" stroke="#260f26" stroke-linecap="round" stroke-miterlimit="10" stroke-width="2"/><path d="M9.645,3.456C8.23.155,5.873-.317,3.515.155S-1.2,4.22.685,6.667" transform="translate(183.006 241.321)" fill="none" stroke="#260f26" stroke-linecap="round" stroke-miterlimit="10" stroke-width="2"/><path d="M8.106.488C7.163-.3,3.433-.365,1.976,2.059S.472,9.024,0,11.381" transform="translate(175.585 243.185)" fill="none" stroke="#260f26" stroke-linecap="round" stroke-miterlimit="10" stroke-width="2"/><path d="M.326,7.309C.326,5.682-.183,1.391.071,0" transform="translate(183.365 265.03)" fill="none" stroke="#260f26" stroke-linecap="round" stroke-miterlimit="10" stroke-width="2"/><path d="M0,5.838C.321,4.716,1.264.472,1.264,0" transform="translate(170.167 263.639)" fill="none" stroke="#260f26" stroke-linecap="round" stroke-miterlimit="10" stroke-width="2"/><path d="M0,6.13C.472,5.187,3.3.943,3.772,0" transform="translate(157.284 261.752)" fill="none" stroke="#260f26" stroke-linecap="round" stroke-miterlimit="10" stroke-width="2"/><path d="M16.981,16.671l-4.074-5.22a.252.252,0,0,1,.132-.4A5.661,5.661,0,0,0,11.053.006,5.666,5.666,0,0,0,6.927,9.234a.243.243,0,0,1-.108.387L0,11.795l4.008,5.8a.21.21,0,0,1-.094.311,5.658,5.658,0,0,0,2.424,10.86,5.714,5.714,0,0,0,5.451-5.621A5.653,5.653,0,0,0,10.7,19.764a.128.128,0,0,1,.047-.193l6.229-2.9ZM6.13,24.409a1.878,1.878,0,1,1,1.886-1.877A1.881,1.881,0,0,1,6.13,24.409Zm3.3-18.386a1.884,1.884,0,1,1,1.886,1.886A1.881,1.881,0,0,1,9.431,6.023Z" transform="translate(129.929 225.913)" fill="#7c9ede"/><ellipse cx="5.489" cy="1.65" rx="5.489" ry="1.65" transform="matrix(0.175, -0.985, 0.985, 0.175, 162.381, 248.182)" fill="#260f26" stroke="#260f26" stroke-linecap="round" stroke-miterlimit="10" stroke-width="2"/><path d="M3.023,0C4.437,3.3.523,14.477,0,19.39" transform="translate(193.504 167.748)" fill="none" stroke="#260f26" stroke-linecap="round" stroke-miterlimit="10" stroke-width="2"/><path d="M.839,0C-1.491,10.219-.34,33.778,22.53,48.1" transform="translate(148.339 145.641)" fill="none" stroke="#260f26" stroke-linecap="round" stroke-miterlimit="10" stroke-width="2"/><path d="M21.692,48.57C24.021,38.352,22.87,14.321,0,0" transform="translate(195.862 176.764)" fill="none" stroke="#260f26" stroke-linecap="round" stroke-miterlimit="10" stroke-width="2"/><rect width="102.955" height="179.776" rx="3.4" transform="matrix(0.985, 0.175, -0.175, 0.985, 148.369, 87.67)" fill="none" stroke="#260f26" stroke-linecap="round" stroke-miterlimit="10" stroke-width="2"/><path d="M18.316,2.792a6.143,6.143,0,0,0-2.589.108,1.583,1.583,0,0,0-.792,1.283l-2.3,12.949a6.507,6.507,0,0,1-2.622,4.121,6.343,6.343,0,0,1-5.178,1.141A5.946,5.946,0,0,1,.982,20.249,4.947,4.947,0,0,1,.1,16.184a3.082,3.082,0,0,1,.929-1.83,1.875,1.875,0,0,1,1.66-.476,2.159,2.159,0,0,1,1.424.8,1.847,1.847,0,0,1,.307,1.462,6.162,6.162,0,0,1-1.646,2.476,3.414,3.414,0,0,0-.566.773v.033A3.392,3.392,0,0,0,4.82,21.192,2.973,2.973,0,0,0,7.8,20.235q1.111-1.287,1.754-4.914L11.6,3.772q.332-1.867-2.914-2.678L8.875,0l9.634,1.707L18.316,2.8Z" transform="translate(125.227 65.835)" fill="#260f26"/><g transform="translate(122.882 95.156)"><path d="M8.735.005C6.349-.3-4.765,13.388,2.341,15.651c2.3.736,4.178-1.325,4.9-3.122a.132.132,0,0,1,.255.047c.1,2.164.637,4.442,3.273,4.4C17.921,16.859,12.046.434,8.735.005Z" transform="translate(0 0)" fill="#260f26" stroke="#260f26" stroke-width="2"/><path d="M.089,6.863a8.972,8.972,0,0,0,2.9.943c.316,0,.316-6.031.047-7.719A.1.1,0,0,0,2.848.054C2.193,1.285-.509,6.448.085,6.863Z" transform="translate(3.973 13.914)" fill="#260f26" stroke="#260f26" stroke-width="2"/></g><path d="M.231,19.348a6.237,6.237,0,0,0,2.589-.024,1.582,1.582,0,0,0,.83-1.259l2.7-12.873A6.521,6.521,0,0,1,9.1,1.155,6.334,6.334,0,0,1,14.307.174a5.925,5.925,0,0,1,3.787,2.268,4.966,4.966,0,0,1,.75,4.093,3.1,3.1,0,0,1-.985,1.8,1.872,1.872,0,0,1-1.674.424,2.171,2.171,0,0,1-1.4-.844,1.847,1.847,0,0,1-.259-1.471A6.151,6.151,0,0,1,16.25,4.022a3.481,3.481,0,0,0,.589-.754V3.24a3.4,3.4,0,0,0-2.551-1.848,2.966,2.966,0,0,0-3,.868Q10.131,3.511,9.379,7.116l-2.4,11.478Q6.585,20.447,9.8,21.361l-.226,1.089L0,20.442l.226-1.089Z" transform="translate(222.005 269.986)" fill="#260f26"/><g transform="translate(229.669 241.277)"><path d="M6.1,16.85c2.4.179,12.76-14.09,5.546-15.967C9.3.275,7.539,2.43,6.911,4.259a.133.133,0,0,1-.259-.033c-.222-2.16-.877-4.4-3.5-4.216C-3.982.51,2.766,16.6,6.091,16.85Z" transform="translate(0 4.932)" fill="#260f26" stroke="#260f26" stroke-width="2"/><path d="M3.075.788A8.976,8.976,0,0,0,.128,0C-.188.019.137,6.041.5,7.715a.1.1,0,0,0,.189.023C1.274,6.475,3.7,1.17,3.075.788Z" transform="translate(6.571 0)" fill="#260f26" stroke="#260f26" stroke-width="2"/></g><path d="M0,10.893c.943.788,4.673.854,6.13-1.57S7.635,2.358,8.106,0" transform="translate(183.601 115.395)" fill="none" stroke="#260f26" stroke-linecap="round" stroke-miterlimit="10" stroke-width="2"/></g><g transform="translate(2014.977 651.379) rotate(-171)"><path d="M126.735,290.9c-5.556-.506-35.392-4.69-48.8-47.044-2.871-9.066-2.8-15.681-2.585-32.921-8.66-6-43.826-28.125-61.552-62.025S-3.284,100.527,8.387,86.451s41.794,8.613,49.641,2.578c8.66-6.661-5.669-41.341-3.3-60.287C56.7,13.088,65.356,7.759,88.338,2.916c26.233-5.529,40.455-2.3,44.379,2.272s24.581,26.972,28.9,49.748c3.317-8.413,12.983-28.524,21.31-31.522S227.842,17.2,241.192,21.8,267.2,74.374,266.2,81.508c-1.905,13.583-20.984,43.493-30.323,55.8,5.176,7.94,14.928,26.06,20.664,37.657,5.329,6.661,6.015,12.584,4.583,16.874-3.251,9.772-2.585,24.428-47.336,37.025-11.271,3.171-19.2,4.057-30.863,5.722-2.331,14.322-4.83,61-56.2,56.316Z" transform="translate(0 0)" fill="url(#q)"/><path d="M85.389,250.1c-13-11.045-21.63-32.761-12.49-62.112-19.984-6-85.933-46.631-70.612-85.267s65.282,17.32,73.276-3.331S62.906,22.782,72.232,7.461s57.515-3.251,63.064,2.7,3.551,61.246,14.209,63.244,25.314-50.627,37.97-51.96c9.646-1.013,35.812,4.57,48.689,12.877" transform="translate(22.774 32.607)" fill="none" stroke="#260f26" stroke-linecap="round" stroke-miterlimit="10" stroke-width="2"/><path d="M19.26,0C9.674,14.049.941,26.373.075,32.155c-1.552,10.365,21.41,3.564,33.307,10.259" transform="translate(220.839 131.15)" fill="none" stroke="#260f26" stroke-linecap="round" stroke-miterlimit="10" stroke-width="2"/><path d="M0,0C4.87,3.224,16.194,15.215,18.859,19.212" transform="translate(69.492 15.526)" fill="none" stroke="#260f26" stroke-linecap="round" stroke-miterlimit="10" stroke-width="2"/><path d="M0,0C3.331,2.665,13.789,16.287,17.22,21.8" transform="translate(186.275 28.743)" fill="none" stroke="#260f26" stroke-linecap="round" stroke-miterlimit="10" stroke-width="2"/></g></g></svg>