<svg xmlns="http://www.w3.org/2000/svg" xmlns:xlink="http://www.w3.org/1999/xlink" width="593.441" height="1461.311" viewBox="0 0 593.441 1461.311"><defs><linearGradient id="a" x1="0.158" y1="0.719" x2="1.509" y2="-0.146" gradientUnits="objectBoundingBox"><stop offset="0" stop-color="#fffcf9"/><stop offset="0.08" stop-color="#e1e6f2"/><stop offset="0.21" stop-color="#b5c7e9"/><stop offset="0.33" stop-color="#96b0e3"/><stop offset="0.43" stop-color="#82a2df"/><stop offset="0.5" stop-color="#7c9ede"/><stop offset="0.67" stop-color="#769ade"/><stop offset="0.9" stop-color="#6590de"/><stop offset="1" stop-color="#5d8bde"/></linearGradient><linearGradient id="b" x1="-0.076" y1="0.554" x2="1.356" y2="0.407" xlink:href="#a"/><linearGradient id="c" x1="-0.807" y1="1.617" x2="1.572" y2="-0.608" xlink:href="#a"/><linearGradient id="d" x1="-1.17" y1="1.865" x2="2.135" y2="-1.007" xlink:href="#a"/><linearGradient id="e" x1="-3.372" y1="2.827" x2="5.317" y2="-2.027" xlink:href="#a"/><linearGradient id="f" x1="-5.779" y1="3.74" x2="3.551" y2="-1.337" xlink:href="#a"/><linearGradient id="g" x1="-2.115" y1="2.071" x2="2.575" y2="-0.741" xlink:href="#a"/><linearGradient id="h" x1="-1.03" y1="1.613" x2="2.13" y2="-0.809" xlink:href="#a"/><linearGradient id="i" x1="-0.846" y1="1.356" x2="2.001" y2="-0.574" xlink:href="#a"/><linearGradient id="j" x1="-0.139" y1="1.01" x2="1.85" y2="-0.839" xlink:href="#a"/><linearGradient id="k" x1="-5.138" y1="2.322" x2="4.867" y2="-0.887" xlink:href="#a"/><linearGradient id="l" x1="0.37" y1="1.036" x2="1.38" y2="-3.118" gradientUnits="objectBoundingBox"><stop offset="0" stop-color="#fffcf9"/><stop offset="0.14" stop-color="#efd6fb"/><stop offset="0.26" stop-color="#e3bafe"/><stop offset="0.34" stop-color="#dfb0ff"/><stop offset="1" stop-color="#d08aff"/></linearGradient><linearGradient id="m" x1="-0.039" y1="0.892" x2="1.012" y2="0.186" xlink:href="#l"/><linearGradient id="n" x1="-1.549" y1="12.016" x2="0.879" y2="-1.784" xlink:href="#l"/><linearGradient id="o" x1="-1.296" y1="9.415" x2="1.024" y2="-2.221" xlink:href="#l"/><linearGradient id="p" x1="-1.056" y1="7.238" x2="1.033" y2="-2.027" xlink:href="#l"/><linearGradient id="q" x1="0.067" y1="3.039" x2="1.528" y2="-5.841" xlink:href="#l"/><linearGradient id="r" x1="-1.235" y1="10.731" x2="0.535" y2="0.295" xlink:href="#l"/><linearGradient id="s" x1="-4.41" y1="20.606" x2="0.444" y2="0.728" xlink:href="#l"/><linearGradient id="t" x1="-2.89" y1="5.257" x2="0.25" y2="0.863" xlink:href="#l"/><linearGradient id="v" x1="0.504" y1="-0.115" x2="0.498" y2="0.869" gradientUnits="objectBoundingBox"><stop offset="0" stop-color="#dfb0ff"/><stop offset="0.06" stop-color="#e0b4fe"/><stop offset="0.12" stop-color="#e4c1fd"/><stop offset="0.16" stop-color="#e9cefc"/><stop offset="1" stop-color="#fffcf9"/></linearGradient><radialGradient id="w" cx="0.188" cy="0.387" r="0.526" gradientTransform="translate(-0.274) scale(1.549 1)" gradientUnits="objectBoundingBox"><stop offset="0" stop-color="#dfb0ff"/><stop offset="0.33" stop-color="#ddacff"/><stop offset="0.65" stop-color="#d8a0ff"/><stop offset="0.96" stop-color="#d18dff"/><stop offset="1" stop-color="#d08aff"/></radialGradient><radialGradient id="x" cx="0.81" cy="0.614" r="0.54" gradientTransform="translate(-0.244) scale(1.487 1)" xlink:href="#w"/><linearGradient id="y" x1="0.646" y1="-0.076" x2="0.358" y2="1.061" xlink:href="#v"/><radialGradient id="z" cx="0.564" cy="0.094" r="0.649" gradientTransform="translate(0.144) scale(0.713 1)" gradientUnits="objectBoundingBox"><stop offset="0" stop-color="#b78ad4"/><stop offset="0.43" stop-color="#b587d3"/><stop offset="0.62" stop-color="#b180d0"/><stop offset="0.78" stop-color="#a973cc"/><stop offset="0.9" stop-color="#9e61c5"/><stop offset="1" stop-color="#934ebf"/></radialGradient><radialGradient id="aa" cx="0.44" cy="0.937" r="0.675" gradientTransform="translate(0.152) scale(0.696 1)" xlink:href="#z"/><linearGradient id="ab" x1="0.384" y1="-0.052" x2="0.549" y2="0.885" gradientUnits="objectBoundingBox"><stop offset="0" stop-color="#b78ad4"/><stop offset="1" stop-color="#934ebf"/></linearGradient><linearGradient id="ac" x1="0.277" y1="0.024" x2="0.79" y2="1.007" gradientUnits="objectBoundingBox"><stop offset="0.04" stop-color="#5d8bde"/><stop offset="0.37" stop-color="#6f96de"/><stop offset="0.67" stop-color="#7c9ede"/><stop offset="0.72" stop-color="#80a1de"/><stop offset="0.78" stop-color="#8daae1"/><stop offset="0.84" stop-color="#a2b9e5"/><stop offset="0.9" stop-color="#c0cfec"/><stop offset="0.97" stop-color="#e7eaf4"/><stop offset="1" stop-color="#fffcf9"/></linearGradient><linearGradient id="ad" x1="0.303" y1="0.072" x2="0.624" y2="1.016" gradientUnits="objectBoundingBox"><stop offset="0" stop-color="#dfb0ff"/><stop offset="0.75" stop-color="#d08aff"/><stop offset="0.8" stop-color="#d18dfe"/><stop offset="0.85" stop-color="#d699fe"/><stop offset="0.89" stop-color="#deacfd"/><stop offset="0.94" stop-color="#e9c6fb"/><stop offset="0.98" stop-color="#f7e8fa"/><stop offset="1" stop-color="#fffcf9"/></linearGradient></defs><g transform="translate(192.808 87.255)"><g transform="matrix(0.995, -0.105, 0.105, 0.995, -102.408, 346.764)"><g transform="translate(116.889 55.22)"><ellipse cx="59.602" cy="20.253" rx="59.602" ry="20.253" transform="translate(0 231.419)" fill="url(#a)"/><path d="M282.362,171.394c15.337,23.237,20.412,56.5,16.712,94.711s-10.671,85.146-19.036,92.117-19.519,12.083-19.055,22.308,2.324,26.955,56.4,27.318c53.288.353,56.913-19,56.072-25.924-1.859-15.337-7.436-14.407-16.731-21.378s-14.077-31.3-19.984-94.808c-5.577-59.952,9.3-85.75,12.548-95.738" transform="translate(-256.573 -146.213)" fill="url(#b)"/><path d="M439.151,356.9C432,346.595,427.713,321,422.573,265.738,417,205.786,431.868,179.987,435.121,170" transform="translate(-342.409 -146.213)" fill="none" stroke="#260f26" stroke-linecap="round" stroke-miterlimit="10" stroke-width="2"/><path d="M261,623c.465,10.225,2.324,26.955,56.4,27.318,46.624.311,55.231-14.468,56.09-22.805" transform="translate(-256.589 -388.683)" fill="none" stroke="#260f26" stroke-linecap="round" stroke-miterlimit="10" stroke-width="2"/><path d="M313.656,151.465c-4.183,1.394-8.365,5.577-6.971,9.76s24.632,5.781,33.462,5.447,33.011-3.188,33.927-7.771-3.253-7.436-6.042-7.9" transform="translate(-280.896 -136.043)" fill="url(#c)"/><path d="M315.19,164.411c7.259,2.375,22.8,2.942,29.655,3.021,11.619.13,33.011-3.188,33.927-7.771.72-3.606-1.631-6.093-4.025-7.241" transform="translate(-285.595 -136.803)" fill="none" stroke="#260f26" stroke-linecap="round" stroke-miterlimit="10" stroke-width="2"/><path d="M333.241,242.828c-2.533-.6-4.369,5.112-2.426,7.436,2.793,3.346,18.929,3.732,23.293,3.718s19.557-.72,23.781-5.577c2.426-2.788-.544-7.278-2.426-6.506-3.4,1.394-14.561,3.253-21.355,3.253A116.968,116.968,0,0,1,333.241,242.828Z" transform="translate(-293.523 -184.65)" fill="url(#d)"/><path d="M331.8,146.1c-1.58.418-11.34,1.348-11.8,4.136-.325,1.943,16.2,2.881,18.557,3.067" transform="translate(-288.164 -133.42)" fill="url(#e)"/><path d="M406.853,146.1c3.012.418,13.236,1.348,13.236,2.742s-13.664,3.644-17.289,4.146" transform="translate(-332.488 -133.42)" fill="url(#f)"/><path d="M322.03,156.79c3.5,1.385,15.62,2.082,17.614,2.235" transform="translate(-289.256 -139.142)" fill="none" stroke="#260f26" stroke-linecap="round" stroke-miterlimit="10" stroke-width="2"/><path d="M402.8,156.146c3.625-.5,17.289-2.751,17.289-4.146" transform="translate(-332.488 -136.579)" fill="none" stroke="#260f26" stroke-linecap="round" stroke-miterlimit="10" stroke-width="2"/><path d="M350.333,135.37c-4.15,1.222-8.324,5.647-8.333,9.123s13.166,3.346,18.432,3.3,15.959-.511,15.959-2.835c0-3.253-4.522-8.486-10.4-9.588" transform="translate(-299.945 -127.677)" fill="url(#g)"/><path d="M336.866,281.366c-6.953-2.324-9.481,5.53-7.376,8.407,3.035,4.146,20.556,4.624,25.3,4.606s18.646-.553,23.776-6.042c3.476-3.718-.869-10.224-6.516-7.9a47.148,47.148,0,0,1-17.261,3.007C347.412,283.443,341.017,282.756,336.866,281.366Z" transform="translate(-292.864 -205.063)" fill="url(#h)"/><path d="M326.4,299.074c-3.039-3.253-6.516,8.365,1.738,11.619a61.64,61.64,0,0,0,23.7,3.936c7.58-.218,21.137-1.264,25.826-7.19s-.023-13.18-2.17-10.224c-3.04,4.183-16.08,6.042-23.461,6.042S329.467,302.36,326.4,299.074Z" transform="translate(-289.778 -213.94)" fill="url(#i)"/><path d="M321.474,162.62a11.656,11.656,0,0,0-2.784,4.229" transform="translate(-287.468 -142.263)" fill="#4e3c4e" stroke="#260f26" stroke-linecap="round" stroke-miterlimit="10" stroke-width="2"/><path d="M339.51,165a14.208,14.208,0,0,0-2.57,5.6" transform="translate(-297.237 -143.537)" fill="#4e3c4e" stroke="#260f26" stroke-linecap="round" stroke-miterlimit="10" stroke-width="2"/><path d="M369.494,166.31a36.42,36.42,0,0,0-1,5.828" transform="translate(-314.124 -144.238)" fill="#4e3c4e" stroke="#260f26" stroke-linecap="round" stroke-miterlimit="10" stroke-width="2"/><path d="M395.13,165a22.438,22.438,0,0,1,1.678,5.935" transform="translate(-328.383 -143.537)" fill="#4e3c4e" stroke="#260f26" stroke-linecap="round" stroke-miterlimit="10" stroke-width="2"/><path d="M422.52,160.92a17.623,17.623,0,0,1,2.514,6.293" transform="translate(-343.044 -141.353)" fill="#4e3c4e" stroke="#260f26" stroke-linecap="round" stroke-miterlimit="10" stroke-width="2"/><path d="M439.66,158.4a19.46,19.46,0,0,1,2.491,4.894" transform="translate(-352.218 -140.004)" fill="#4e3c4e" stroke="#260f26" stroke-linecap="round" stroke-miterlimit="10" stroke-width="2"/><path d="M309.751,551.22c-10.922-3.453-15.309,6.73-12.1,10.634,4.62,5.619,32.407,7.255,39.936,7.5s29.618.344,38.026-6.581c5.693-4.689-.892-13.492-9.969-10.759-6.037,1.817-15.825,3.388-27.536,2.965C326.6,554.567,316.28,553.284,309.751,551.22Z" transform="translate(-275.657 -349.886)" fill="url(#j)"/><path d="M342.5,145a5.831,5.831,0,0,0-.5,2.24c-.009,3.476,13.166,3.346,18.432,3.3s15.959-.511,15.959-2.835c0-2.124-1.924-5.084-4.894-7.2" transform="translate(-299.945 -130.428)" fill="none" stroke="#260f26" stroke-linecap="round" stroke-miterlimit="10" stroke-width="2"/><path d="M367.4,118.9c-3.221.46-7.9,2.324-7.436,5.577s2.324,5.345,7.436,5.228,8.463-.925,8.649-5.4-5.4-5.87-8.649-5.4Z" transform="translate(-309.543 -118.817)" fill="url(#k)"/><path d="M362.6,135.029c1.106,1.4,3.03,2.184,6.228,2.115,4.717-.107,7.938-.8,8.551-4.434" transform="translate(-310.971 -126.253)" fill="none" stroke="#260f26" stroke-linecap="round" stroke-miterlimit="10" stroke-width="2"/><path d="M333.035,568.963c3.1.209,5.684.33,7.315.381,7.529.246,29.618.344,38.026-6.581,5.693-4.689-.892-13.492-9.969-10.759-6.037,1.817-15.825,3.388-27.536,2.965-11.5-.414-21.825-1.7-28.354-3.76-4.954-1.566-8.561-.33-10.726,1.854" transform="translate(-278.422 -349.88)" fill="none" stroke="#260f26" stroke-linecap="round" stroke-miterlimit="10" stroke-width="2"/><path d="M315.56,582.83a106.546,106.546,0,0,0,14.472,2.5" transform="translate(-285.793 -367.182)" fill="none" stroke="#260f26" stroke-linecap="round" stroke-miterlimit="10" stroke-width="2"/><path d="M339.623,313.783a64.619,64.619,0,0,0,12.307.846c7.58-.218,21.137-1.264,25.826-7.19s-.023-13.18-2.17-10.224c-3.04,4.183-16.08,6.042-23.46,6.042s-22.559-.9-25.631-4.183c-1.417-1.52-2.932.2-3.3,2.8" transform="translate(-289.877 -213.94)" fill="none" stroke="#260f26" stroke-linecap="round" stroke-miterlimit="10" stroke-width="2"/><path d="M383.419,282.124a5.476,5.476,0,0,0-6.678-1.687,47.15,47.15,0,0,1-17.261,3.007c-7.38,0-13.775-.688-17.925-2.078a6.573,6.573,0,0,0-4.025-.2" transform="translate(-297.552 -205.063)" fill="none" stroke="#260f26" stroke-linecap="round" stroke-miterlimit="10" stroke-width="2"/><path d="M344.747,253.5c4.522.409,8.988.483,10.987.479,4.369-.014,19.557-.72,23.781-5.577,2.426-2.788-.544-7.278-2.426-6.506-3.4,1.394-14.56,3.253-21.355,3.253a116.966,116.966,0,0,1-20.867-2.324,1.874,1.874,0,0,0-1.826.688" transform="translate(-295.149 -184.65)" fill="none" stroke="#260f26" stroke-linecap="round" stroke-miterlimit="10" stroke-width="2"/></g><g transform="translate(0 0)"><ellipse cx="73.662" cy="23.354" rx="73.662" ry="23.354" transform="translate(0 293.952)" fill="url(#l)"/><path d="M34.169,116.854c18.125,27.42,24.9,65.018,20.254,109.155S41.011,324.368,30.5,332.417,5.964,346.374,6.55,358.187s-1.929,33.044,70.879,31.552,71.529-21.95,70.474-29.944c-2.338-17.716-9.346-16.642-21.03-24.7s-17.693-36.153-25.115-109.518c-7.008-69.252,11.684-99.052,15.769-110.591" transform="translate(-3.496 -61.549)" fill="url(#m)"/><path d="M61.772,119c18.125,27.42,24.9,65.018,20.254,109.155S68.613,326.514,58.1,334.564" transform="translate(-31.098 -63.695)" fill="none" stroke="#260f26" stroke-linecap="round" stroke-width="2"/><path d="M18.52,665.111c8.124,6.748,26.714,15.114,64.823,15.114,56.7,0,69.712-16.471,71.064-25.854" transform="translate(-9.913 -350.254)" fill="none" stroke="#260f26" stroke-linecap="round" stroke-width="2"/><path d="M97.355,199.126c-3.179-.7-5.489,5.907-3.049,8.589,3.513,3.867,23.786,4.313,29.279,4.294s24.576-.832,29.888-6.441c3.049-3.221-.683-8.407-3.049-7.515-4.271,1.613-18.3,3.76-26.839,3.76a159.4,159.4,0,0,1-26.226-2.686Z" transform="translate(-49.932 -105.954)" fill="url(#n)"/><path d="M101.913,243.638c-8.737-2.686-11.916,6.39-9.267,9.713,3.816,4.787,25.835,5.34,31.8,5.317s23.433-.637,29.883-6.981c4.369-4.294-1.092-11.809-8.189-9.128a63.972,63.972,0,0,1-21.694,3.472c-9.276,0-17.312-.795-22.531-2.4Z" transform="translate(-49.104 -129.529)" fill="url(#o)"/><path d="M88.753,264.089c-3.82-3.76-8.189,9.662,2.184,13.422a83.645,83.645,0,0,0,29.781,4.545c9.527-.251,26.57-1.459,32.458-8.3,6-6.981-.028-15.225-2.728-11.809-3.82,4.833-20.207,6.98-29.484,6.98S92.61,267.886,88.753,264.089Z" transform="translate(-45.224 -139.779)" fill="url(#p)"/><path d="M67.837,555.365c-13.724-3.987-19.241,7.771-15.211,12.279,5.809,6.493,40.726,8.384,50.193,8.668s37.226.4,47.79-7.6c7.152-5.414-1.125-15.583-12.525-12.427-7.589,2.1-19.891,3.913-34.61,3.425-14.454-.479-27.434-1.957-35.632-4.341Z" transform="translate(-27.479 -296.826)" fill="url(#q)"/><ellipse cx="41.663" cy="9.837" rx="41.663" ry="9.837" transform="translate(30.09 43.604)" fill="url(#r)"/><path d="M158,117.78c-2.849,4.522-20.412,8-41.655,8-13.45,0-25.426-1.394-33.127-3.565" transform="translate(-44.544 -63.042)" fill="none" stroke="#260f26" stroke-linecap="round" stroke-width="2"/><ellipse cx="15.624" cy="5.208" rx="15.624" ry="5.208" transform="translate(56.708 38.975)" fill="url(#s)"/><path d="M150.559,87.87c2.956.888,4.8,2.147,4.8,3.546,0,2.7-6.864,4.88-15.337,4.88-6.13,0-11.419-1.143-13.873-2.8" transform="translate(-67.522 -47.033)" fill="none" stroke="#260f26" stroke-linecap="round" stroke-width="2"/><path d="M150.4,15.165V28.958a2.18,2.18,0,0,1-2.18,2.18h-4.239a.452.452,0,0,0-.293.795,5.209,5.209,0,0,1,2.063,3.853c0,4.62-8.217,8.365-18.357,8.365s-18.358-3.746-18.358-8.365a5.2,5.2,0,0,1,2.045-3.839.459.459,0,0,0-.3-.809H105.17a2.18,2.18,0,0,1-2.18-2.18V15.16a2.178,2.178,0,0,1,2.175-2.175h5.41a.351.351,0,0,0,.228-.618,5.34,5.34,0,0,1-2.235-4c0-4.62,8.217-8.365,18.358-8.365s18.357,3.746,18.357,8.365a5.121,5.121,0,0,1-1.929,3.732.515.515,0,0,0,.358.888h4.5a2.18,2.18,0,0,1,2.18,2.18Z" transform="translate(-55.126 0)" fill="url(#t)"/><path d="M152.7,198.665a2.345,2.345,0,0,0-2.268-.613c-4.271,1.613-18.3,3.76-26.839,3.76a159.4,159.4,0,0,1-26.226-2.686c-3.179-.7-5.489,5.907-3.049,8.589,3.513,3.867,23.786,4.313,29.279,4.294,1.7,0,4.713-.088,8.212-.367" transform="translate(-49.938 -105.953)" fill="none" stroke="#260f26" stroke-linecap="round" stroke-width="2"/><path d="M151.476,242.265a7.879,7.879,0,0,0-4.9.307,63.971,63.971,0,0,1-21.694,3.472c-9.276,0-17.312-.795-22.531-2.4-5.442-1.673-8.733,1.222-9.792,4.443" transform="translate(-49.543 -129.536)" fill="none" stroke="#260f26" stroke-linecap="round" stroke-width="2"/><path d="M154.863,263.5c-1.148-2.2-3.146-3.16-4.415-1.557-3.82,4.833-20.207,6.98-29.484,6.98s-28.354-1.036-32.212-4.833c-3.82-3.76-8.189,9.662,2.184,13.422a83.646,83.646,0,0,0,29.781,4.545,128.2,128.2,0,0,0,12.9-.934" transform="translate(-45.224 -139.778)" fill="none" stroke="#260f26" stroke-linecap="round" stroke-width="2"/><path d="M150.4,15.165V28.958a2.18,2.18,0,0,1-2.18,2.18h-4.239a.452.452,0,0,0-.293.795,5.209,5.209,0,0,1,2.063,3.853c0,4.62-8.217,8.365-18.357,8.365s-18.358-3.746-18.358-8.365a5.2,5.2,0,0,1,2.045-3.839.459.459,0,0,0-.3-.809H105.17a2.18,2.18,0,0,1-2.18-2.18V15.16a2.178,2.178,0,0,1,2.175-2.175h5.41a.351.351,0,0,0,.228-.618,5.34,5.34,0,0,1-2.235-4c0-4.62,8.217-8.365,18.358-8.365s18.357,3.746,18.357,8.365a5.121,5.121,0,0,1-1.929,3.732.515.515,0,0,0,.358.888h4.5a2.18,2.18,0,0,1,2.18,2.18Z" transform="translate(-55.126 0)" fill="url(#t)"/><path d="M154.4,68.71a5.209,5.209,0,0,1,2.063,3.853c0,4.62-8.217,8.365-18.358,8.365-6.265,0-11.791-1.427-15.1-3.611" transform="translate(-65.836 -36.777)" fill="none" stroke="#260f26" stroke-linecap="round" stroke-width="2"/><path d="M204.26,596.576c7.05-.507,14.528-1.524,20.519-3.485" transform="translate(-109.331 -317.453)" fill="none" stroke="#260f26" stroke-linecap="round" stroke-width="2"/><path d="M146.915,556.452a14.594,14.594,0,0,0-8.826-.172c-7.589,2.1-19.891,3.913-34.61,3.425-14.454-.479-27.434-1.957-35.632-4.341-13.724-3.987-19.241,7.771-15.211,12.279,5.809,6.493,40.726,8.384,50.193,8.668,2.328.07,5.763.13,9.774.06" transform="translate(-27.484 -296.826)" fill="none" stroke="#260f26" stroke-linecap="round" stroke-width="2"/></g></g><g transform="translate(-203.279 1214.33) rotate(-57)"><g transform="translate(-13.725 -8.416)"><rect width="234.848" height="373.5" rx="39.8" transform="translate(0 119.653) rotate(-30.63)" fill="url(#v)"/><path d="M36.495,197.921,8.25,150.221A51.9,51.9,0,0,1,26.467,79.114L139.223,12.35a51.9,51.9,0,0,1,71.106,18.217L347.756,262.624" transform="translate(18.201 14.091)" fill="none" stroke="#260f26" stroke-linecap="round" stroke-linejoin="round" stroke-width="2"/><g transform="translate(34.625 35.097)"><path d="M216.631,186.669c.978,87.941-30.435,159.582-70.141,160.025-13.627.156-26.471-8.111-37.49-22.585l20.655,34.869a29.614,29.614,0,0,0,40.567,10.393l122.262-72.4a29.614,29.614,0,0,0,10.393-40.567L190.59,66.82c15.465,29.027,25.506,71.9,26.041,119.849Z" transform="translate(16.406 -2.244)" fill="url(#w)"/><path d="M102.049,203.314c-.978-87.941,30.435-159.582,70.141-160.025,15.348-.17,29.679,10.328,41.558,28.323L190.186,31.827a29.614,29.614,0,0,0-40.567-10.393L27.357,93.844a29.614,29.614,0,0,0-10.393,40.567L124.543,316.07C111.1,287.369,102.532,247.493,102.049,203.314Z" transform="translate(-12.828 -17.298)" fill="url(#x)"/></g><g transform="translate(34.625 35.11)"><path d="M108.99,270.456l20.655,34.869a29.614,29.614,0,0,0,40.567,10.393l122.262-72.4" transform="translate(16.403 51.396)" fill="none" stroke="#260f26" stroke-linecap="round" stroke-linejoin="round" stroke-width="2"/><path d="M213.749,71.621,190.186,31.837a29.614,29.614,0,0,0-40.567-10.393L27.357,93.841a29.614,29.614,0,0,0-10.393,40.567l44.544,75.227" transform="translate(-12.828 -17.308)" fill="none" stroke="#260f26" stroke-linecap="round" stroke-linejoin="round" stroke-width="2"/></g><path d="M205.624,176.872l-10.015-20.46-15.244,9.793L134.739,88.54,106.86,109.273l1.278,107.6,11.227,21.307L170.26,204.49l14.031,22.9,22.833-15.335-15.452-25.441,13.94-9.728ZM132.2,199.6l-3.025-70.637,28.4,53.75-25.376,16.9Z" transform="translate(50.381 39.456)" fill="#fffcf9"/><path d="M53.556,107.068l-2.334-5.333-4,2.334L36.422,83.74l-7.341,4.981-.861,27.5,2.634,5.555,13.366-8.046,3.338,6,6-3.664L49.892,109.4Zm-19,4.994V93.989l6.663,14.044-6.663,4.029Z" transform="translate(26.475 37.996)" fill="#fffcf9"/><path d="M205.624,176.872l-10.015-20.46-15.244,9.793L134.739,88.54,106.86,109.273l1.278,107.6,11.227,21.307L170.26,204.49l14.031,22.9,22.833-15.335-15.452-25.441,13.94-9.728ZM132.2,199.6l-3.025-70.637,28.4,53.75-25.376,16.9Z" transform="translate(50.381 39.456)" fill="none" stroke="#260f26" stroke-linecap="round" stroke-linejoin="round" stroke-width="2"/></g><g transform="translate(155.634 -13.569)"><rect width="234.848" height="373.5" rx="50" transform="translate(186.75 0) rotate(30)" fill="url(#y)"/><path d="M479.187,99.268A51.657,51.657,0,0,0,456.9,73.488L343.416,7.963a51.9,51.9,0,0,0-70.9,19L137.673,260.532a51.9,51.9,0,0,0,19,70.9l73.3,42.314" transform="translate(-111.727 17.998)" fill="none" stroke="#260f26" stroke-linecap="round" stroke-linejoin="round" stroke-width="2"/><g transform="translate(72.927 136.044)"><path d="M323.053,203.874,268.26,171.353,379.868,99.06a24.655,24.655,0,0,1,4.16,5.346C397.394,127.565,370.923,168.8,323.053,203.874Z" transform="translate(-142.842 -88.238)" fill="#7c9ede"/><path d="M392.833,101.583,281.225,173.876l-55.615-33c7.472-5.229,15.413-10.288,23.759-15.113,60.961-35.195,122.288-44.974,143.464-24.176Z" transform="translate(-155.807 -90.761)" fill="#dfb0ff"/><path d="M297.5,162.194,180.087,238.242a25.353,25.353,0,0,1-4.551-5.738C161.674,208.5,190.649,165.05,241.883,129.19Z" transform="translate(-172.079 -79.079)" fill="#5d8bde"/><path d="M350.424,187.021a318.827,318.827,0,0,1-29.131,18.973C260.71,240.98,199.749,250.851,178.22,230.548L295.631,154.5Z" transform="translate(-170.212 -71.385)" fill="#b78ad4"/></g><g transform="translate(34.153 34.95)"><path d="M339.149,221.87c-76.166,43.97-154,51.729-173.86,17.343-6.82-11.8-5.92-27.045,1.291-43.749l-20.264,35.1a29.613,29.613,0,0,0,10.836,40.45l123.057,71.041a29.613,29.613,0,0,0,40.45-10.836L430.819,140.41c-17.708,27.71-50.164,57.493-91.683,81.46Z" transform="translate(-142.344 25.426)" fill="url(#z)"/><path d="M258.464,135.973c76.166-43.97,154-51.729,173.86-17.343,7.667,13.288,5.555,30.931-4.3,50.112L451.14,128.7A29.613,29.613,0,0,0,440.3,88.247L317.247,17.206A29.613,29.613,0,0,0,276.8,28.042L171.24,210.874c18.425-25.793,48.978-52.811,87.237-74.9Z" transform="translate(-133.56 -13.234)" fill="url(#aa)"/></g><g transform="translate(179.86 51.486)"><path d="M277.294,43.3,268.87,38.31,286.03,27.2a3.867,3.867,0,0,1,.639.822c2.06,3.56-2.021,9.9-9.376,15.3Z" transform="translate(-249.589 -25.524)" fill="#7c9ede"/><path d="M288.025,27.578l-17.16,11.11-8.554-5.072c1.148-.808,2.373-1.578,3.651-2.321,9.376-5.412,18.8-6.911,22.063-3.716Z" transform="translate(-251.583 -25.915)" fill="#dfb0ff"/><path d="M273.365,36.893l-18.047,11.7a4.216,4.216,0,0,1-.7-.887c-2.125-3.69,2.321-10.367,10.2-15.883Z" transform="translate(-254.084 -24.12)" fill="#5d8bde"/><path d="M281.5,40.714a48.387,48.387,0,0,1-4.486,2.921c-9.31,5.385-18.686,6.9-22,3.782l18.047-11.7,8.424,4.994Z" transform="translate(-253.799 -22.934)" fill="#b78ad4"/></g><g transform="translate(171.811 363.823)"><path d="M257.82,271.813l8.424,4.994-17.16,11.11a3.868,3.868,0,0,1-.639-.822c-2.06-3.56,2.021-9.9,9.376-15.3Z" transform="translate(-247.911 -263.507)" fill="#7c9ede"/><path d="M248.81,286.76l17.16-11.11,8.554,5.072c-1.147.809-2.373,1.578-3.651,2.321-9.376,5.412-18.8,6.911-22.063,3.716Z" transform="translate(-247.638 -262.336)" fill="#dfb0ff"/><path d="M261.97,278.377l18.047-11.7a4.217,4.217,0,0,1,.7.887c2.126,3.69-2.321,10.367-10.2,15.883l-8.554-5.072Z" transform="translate(-243.638 -265.063)" fill="#5d8bde"/><path d="M255.51,273.746A48.388,48.388,0,0,1,260,270.825c9.31-5.385,18.686-6.9,22-3.782l-18.047,11.7-8.424-4.994Z" transform="translate(-245.602 -265.44)" fill="#b78ad4"/></g><path d="M413.265,106.929a24.655,24.655,0,0,0-4.16-5.346c-21.177-20.8-82.5-11.019-143.464,24.176-8.345,4.825-16.287,9.884-23.759,15.113-51.234,35.86-80.208,79.308-66.347,103.315a25.351,25.351,0,0,0,4.551,5.738c21.529,20.3,82.49,10.432,143.073-24.554A318.827,318.827,0,0,0,352.291,206.4C400.16,171.32,426.631,130.088,413.265,106.929Z" transform="translate(-99.152 45.283)" fill="none" stroke="#260f26" stroke-linecap="round" stroke-linejoin="round" stroke-width="2"/><g transform="translate(34.166 34.937)"><path d="M166.59,182.62l-20.264,35.1a29.613,29.613,0,0,0,10.836,40.45l58.992,34.06" transform="translate(-142.354 38.27)" fill="none" stroke="#260f26" stroke-linecap="round" stroke-linejoin="round" stroke-width="2"/><path d="M452.486,101.72a29.5,29.5,0,0,0-12.192-13.483L317.237,17.2a29.613,29.613,0,0,0-40.45,10.836L171.23,210.864" transform="translate(-133.576 -13.224)" fill="none" stroke="#260f26" stroke-linecap="round" stroke-linejoin="round" stroke-width="2"/></g></g></g><g transform="matrix(0.974, 0.225, -0.225, 0.974, -4.605, -87.26)"><g transform="translate(0.003 0.004)"><path d="M11.495,36.838C2.042,41.565,1.1,43.456.151,48.182S2.987,82.109,5.823,84.519s42.538-9.869,43.484-7.978S23.633,119.079,24.654,125.7s5.955,10.011,5.851,12.572S12.44,150.274,16.221,158.782s33.085,15.125,56.718,15.125c27.414,0,50.082-6.57,53.882-14.179,4.726-9.453-13.234-17.961-15.125-19.851,1.891-3.781,4.726-12.289,3.781-26.468s-17.961-50.1-17.961-60.5,2.836-43.484,0-48.21S63.486-.973,58.76.917s-9.453,2.836-10.4,6.617,0,17.015-1.891,19.851S15.276,34.948,11.495,36.838Z" transform="translate(-0.003 -0.004)" fill="url(#ab)"/><path d="M62.736,5.56c-.085,5.435-.425,15.465-1.862,18.348-.8,1.607-2.6,2.571-4.944,3.261" transform="translate(-3.063 -0.308)" fill="none" stroke="#260f26" stroke-linecap="round" stroke-linejoin="round" stroke-width="2"/><path d="M13.28,44.09c.794,9.406,3.7,28.264,5.549,36.829" transform="translate(-0.73 -2.416)" fill="none" stroke="#260f26" stroke-linecap="round" stroke-linejoin="round" stroke-width="2"/><path d="M68.647,35.849C64,35.934,61.16,41.625,61.16,47.3s3.63,10.4,7.487,10.4,8.375-2.94,8.479-10.928S74.243,35.736,68.647,35.84Z" transform="translate(-3.349 -1.964)" fill="#934ebf"/><path d="M68.647,35.85C64,35.935,61.16,41.626,61.16,47.3a12.216,12.216,0,0,0,2.817,7.969,6.377,6.377,0,0,0,4.67,2.429c3.857,0,8.375-2.94,8.479-10.928" transform="translate(-3.349 -1.965)" fill="none" stroke="#260f26" stroke-linecap="round" stroke-linejoin="round" stroke-width="2"/><path d="M54.515,80.248c1.73-.123,2.912.1,3.167.681.416.945-16.429,43.6-17.545,49.155-.945,4.726.945,18.906,10.4,23.632" transform="translate(-2.187 -4.392)" fill="none" stroke="#260f26" stroke-linecap="round" stroke-linejoin="round" stroke-width="2"/><path d="M37.21,150.51c12.053,9.623,41.423,19.038,65.481,5.785" transform="translate(-2.039 -8.237)" fill="none" stroke="#260f26" stroke-linecap="round" stroke-linejoin="round" stroke-width="2"/></g><g transform="translate(127.728 7.177)"><path d="M154.47,33.661c-10.19,2.789-11.495,4.452-13.338,8.9s-3.857,33.823-1.541,36.753,43.644-1.361,44.2.671-33.492,36.7-33.785,43.389,3.885,10.984,3.28,13.47-20.069,8.243-18.017,17.327,29.493,21.307,52.662,25.92c26.884,5.36,50.394,3.346,55.612-3.365,6.485-8.347-9.462-20.2-10.947-22.422,2.59-3.337,7.042-11.126,8.886-25.221,1.9-14.5-7.818-52.644-5.785-62.843s11.287-42.094,9.425-47.284S212.861,6.749,207.851,7.675s-9.822.936-11.495,4.452-3.327,16.684-5.738,19.095-32.074,1.314-36.148,2.429Z" transform="translate(-135.12 -7.592)" fill="url(#ac)"/><path d="M211.443,12.46c-1.153,5.341-3.431,15.011-5.4,17.545-1.144,1.475-3.214,2.061-5.785,2.259" transform="translate(-138.683 -7.858)" fill="none" stroke="#260f26" stroke-linecap="round" stroke-linejoin="round" stroke-width="2"/><path d="M155.455,41.71c-.955,9.273-1.692,25.911-1.635,34.73" transform="translate(-136.143 -9.459)" fill="none" stroke="#260f26" stroke-linecap="round" stroke-linejoin="round" stroke-width="2"/><path d="M211.45,43.245c-4.585-.822-8.47,4.2-9.585,9.765s1.531,10.909,5.313,11.665,8.782-1.248,10.446-9.056-.671-11.381-6.173-12.374Z" transform="translate(-138.757 -9.538)" fill="#7c9ede"/><path d="M211.45,43.245c-4.585-.822-8.47,4.2-9.585,9.765s1.531,10.909,5.313,11.665,8.782-1.248,10.446-9.056" transform="translate(-138.757 -9.538)" fill="none" stroke="#260f26" stroke-linecap="round" stroke-linejoin="round" stroke-width="2"/><path d="M189.171,84.22c1.314.246,2.146.652,2.269,1.172.227,1.011-26.052,40.95-26.818,44.779-.926,4.632-2.77,18.726,5.577,25.211" transform="translate(-136.688 -11.784)" fill="none" stroke="#260f26" stroke-linecap="round" stroke-linejoin="round" stroke-width="2"/><path d="M157.74,148.71c10.228,12.894,41.725,30.325,70.4,16.5" transform="translate(-136.357 -15.312)" fill="none" stroke="#260f26" stroke-linecap="round" stroke-linejoin="round" stroke-width="2"/></g><g transform="translate(52.122 95.437)"><path d="M65.765,141.806c-9.122,5.331-9.945,7.288-10.578,12.062s5.057,33.671,8.044,35.893,41.8-12.639,42.869-10.814-22.829,44.126-21.373,50.668,6.6,9.6,6.664,12.157S74.15,254.939,78.479,263.182s34,12.922,57.587,11.372c27.357-1.8,49.543-9.841,52.833-17.677,4.093-9.746-14.387-17.053-16.391-18.821,1.635-3.895,3.914-12.572,2.042-26.657-1.928-14.491-21.2-48.815-21.884-59.194s-.019-43.578-3.157-48.106-34.333-3.431-38.918-1.229-9.245,3.45-9.945,7.288,1.115,16.978-.586,19.936-30.628,9.595-34.286,11.722Z" transform="translate(-55.138 -100.96)" fill="url(#ad)"/><path d="M114.74,108.51c.255,5.577.473,14.662-.709,17.469-.775,1.843-2.826,2.968-5.521,3.857" transform="translate(-58.058 -101.373)" fill="none" stroke="#260f26" stroke-linecap="round" stroke-linejoin="round" stroke-width="2"/><path d="M67.78,148.84c1.276,8.668,5.076,26,7.553,35.127" transform="translate(-55.83 -103.579)" fill="none" stroke="#260f26" stroke-linecap="round" stroke-linejoin="round" stroke-width="2"/><path d="M122.579,137.327c-4.641.388-7.09,6.258-6.721,11.911s4.311,10.134,8.158,9.888,8.158-3.479,7.742-11.457-3.592-10.814-9.179-10.342Z" transform="translate(-58.458 -102.946)" fill="#d08aff"/><path d="M122.579,137.33c-4.641.388-7.09,6.258-6.721,11.911s4.311,10.134,8.158,9.888,8.158-3.479,7.742-11.457" transform="translate(-58.458 -102.949)" fill="none" stroke="#260f26" stroke-linecap="round" stroke-linejoin="round" stroke-width="2"/><path d="M111.284,182.562c1.862-.284,3.167-.151,3.469.425.482.917-14.539,46.31-14.283,50.2.312,4.717,2.184,18.8,11.92,22.9" transform="translate(-57.618 -105.416)" fill="none" stroke="#260f26" stroke-linecap="round" stroke-linejoin="round" stroke-width="2"/><path d="M97.48,252.95c12.1,9.3,43.994,17.847,68,1.569" transform="translate(-57.455 -109.274)" fill="none" stroke="#260f26" stroke-linecap="round" stroke-linejoin="round" stroke-width="2"/></g></g></g></svg>