<svg xmlns="http://www.w3.org/2000/svg" width="96.731" height="215.745" viewBox="0 0 96.731 215.745"><g transform="translate(87.398 215.745) rotate(180)" fill="#3b45a2" stroke-linecap="round"><path d="M 83.15794372558594 214.7435455322266 C 82.98107147216797 214.7221069335938 81.84417724609375 214.4486389160156 77.65972137451172 211.0749969482422 C 74.69566345214844 208.685302734375 70.75080108642578 205.1814117431641 66.25154876708984 200.9421691894531 C 56.80913543701172 192.0453643798828 45.37052536010742 180.3492279052734 34.86869049072266 168.8526916503906 C 22.6724681854248 155.5013580322266 12.30388450622559 143.0807189941406 4.883801460266113 132.9335784912109 C 0.6868846416473389 127.1941909790039 -2.564809799194336 122.1842498779297 -4.780948638916016 118.0429458618164 C -7.13792085647583 113.6384124755859 -8.333003997802734 110.2153625488281 -8.333003997802734 107.8688049316406 C -8.333003997802734 105.5167770385742 -7.133059978485107 102.0944671630859 -4.766504287719727 97.69699859619141 C -2.543115377426147 93.56561279296875 0.7212179899215698 88.56735992431641 4.935856819152832 82.84107971191406 C 12.34699535369873 72.77188873291016 22.74843978881836 60.38677597045898 35.01577377319336 47.02469253540039 C 45.44330215454102 35.66661071777344 56.89585876464844 23.98308181762695 66.43688201904297 14.96991539001465 C 70.91860961914062 10.73610973358154 74.85308074951172 7.214025974273682 77.81491088867188 4.784414768218994 C 82.07750701904297 1.287791848182678 83.15131378173828 1.020456075668335 83.28861999511719 1.000155687332153 C 83.56452178955078 1.00709056854248 83.85345458984375 1.247217416763306 84.14768981933594 1.714137196540833 C 85.79552459716797 4.329081535339355 86.49727630615234 12.45435905456543 85.97913360595703 22.91910934448242 C 85.51283264160156 32.3363037109375 84.18252563476562 41.24474716186523 82.81597137451172 44.10147094726562 C 81.903076171875 46.0097770690918 77.08107757568359 51.06977462768555 71.49768829345703 56.92877578735352 C 64.44618988037109 64.32833099365234 55.67038345336914 73.53730010986328 48.54963302612305 82.66446685791016 C 40.03632736206055 93.57655334472656 35.89791107177734 101.8209686279297 35.89791107177734 107.8688049316406 C 35.89791107177734 113.5496368408203 39.51002502441406 120.9916915893555 46.94063568115234 130.6202545166016 C 53.25105285644531 138.7972259521484 61.18341064453125 147.135498046875 68.18202209472656 154.4922180175781 C 75.29213714599609 161.9661712646484 81.43266296386719 168.4209136962891 82.79935455322266 171.5996704101562 C 83.64321899414062 173.5623016357422 84.42096710205078 176.6968536376953 85.04852294921875 180.6644439697266 C 85.65732574462891 184.5134124755859 86.08313751220703 188.8677978515625 86.27988433837891 193.2568664550781 C 86.70969390869141 202.8444976806641 85.94888305664062 210.6470489501953 84.29441070556641 213.6196441650391 C 84.03557586669922 214.0846710205078 83.63037872314453 214.6518707275391 83.15794372558594 214.7435455322266 Z" stroke="none"/><path d="M 83.2047119140625 2.105865478515625 C 82.63462829589844 2.394363403320312 81.16049194335938 3.295150756835938 77.83724212646484 6.063461303710938 C 74.79621124267578 8.596694946289062 70.81997680664062 12.18502807617188 66.33838653564453 16.44052124023438 C 56.76903533935547 25.52711486816406 45.38659286499023 37.17669677734375 35.10959243774414 48.40216064453125 C 23.01503372192383 61.61293029785156 12.77918243408203 73.83616638183594 5.508590698242188 83.75048828125 C 1.392974853515625 89.36264038085938 -1.789932250976562 94.25560760498047 -3.951759338378906 98.29351806640625 C -6.746406555175781 103.5134887695312 -7.333023071289062 106.3817825317383 -7.333023071289062 107.8688125610352 C -7.333023071289062 109.3513717651367 -6.749610900878906 112.2150192260742 -3.970291137695312 117.43798828125 C -1.818733215332031 121.481315612793 1.347297668457031 126.3804016113281 5.439826965332031 131.9992065429688 C 12.70806121826172 141.97802734375 22.89938735961914 154.2250518798828 34.91200637817383 167.416259765625 C 45.24871063232422 178.7671356201172 56.61088562011719 190.4280548095703 66.08521270751953 199.4090270996094 C 70.58400726318359 203.6735534667969 74.57270812988281 207.2505798339844 77.62017822265625 209.7534332275391 C 81.01123046875 212.5384826660156 82.49974822998047 213.3929595947266 83.05927276611328 213.6517944335938 C 83.37379455566406 213.307373046875 84.17123413085938 212.1057434082031 84.75411987304688 208.4094543457031 C 85.27091979980469 205.1324005126953 85.483154296875 200.7887268066406 85.36795043945312 195.8480529785156 C 85.25933074951172 191.1908721923828 84.85620880126953 186.2575225830078 84.23288726806641 181.956787109375 C 83.59965515136719 177.5876770019531 82.76426696777344 174.0496978759766 81.88068389892578 171.9946136474609 C 80.58473968505859 168.9804382324219 74.20835876464844 162.2777862548828 67.45759582519531 155.1815795898438 C 60.44229888916016 147.8073120117188 52.49097442626953 139.4491424560547 46.14900588989258 131.2312622070312 C 38.57818222045898 121.4210205078125 34.89791870117188 113.7791061401367 34.89791870117188 107.8688125610352 C 34.89791870117188 101.5895233154297 39.10553359985352 93.14387512207031 47.7612419128418 82.04928588867188 C 54.91244506835938 72.88310241699219 63.7071533203125 63.65428161621094 70.77385711669922 56.23878479003906 C 76.06850433349609 50.68278503417969 81.06956481933594 45.43490600585938 81.91388702392578 43.66990661621094 C 82.22044372558594 43.02908325195312 83.02241516113281 40.91166687011719 83.84656524658203 35.10493469238281 C 84.44274139404297 30.90414428710938 84.87059020996094 25.9852294921875 85.05123901367188 21.25428771972656 C 85.24842071533203 16.09089660644531 85.14165496826172 11.52423095703125 84.74253845214844 8.047927856445312 C 84.26945495605469 3.927520751953125 83.51899719238281 2.5274658203125 83.2047119140625 2.105865478515625 M 83.27629852294922 -1.52587890625e-05 C 89.60765075683594 -1.52587890625e-05 87.00144958496094 37.66937255859375 83.71806335449219 44.53298950195312 C 80.43468475341797 51.39657592773438 36.89791870117188 89.06525421142578 36.89791870117188 107.8688125610352 C 36.89791870117188 126.6723709106445 79.56991577148438 161.5567626953125 83.71806335449219 171.2046356201172 C 87.86618041992188 180.8524932861328 89.49688720703125 214.8039855957031 83.27629852294922 215.7376098632812 C 83.24364471435547 215.7425079345703 83.20783233642578 215.7450103759766 83.17078399658203 215.7450103759766 C 76.15025329589844 215.7450103759766 -9.333023071289062 128.9108428955078 -9.333023071289062 107.8688125610352 C -9.333023071289062 86.71575927734375 76.9449462890625 -1.52587890625e-05 83.27629852294922 -1.52587890625e-05 Z" stroke="none" fill="#260f26"/></g></svg>