<svg xmlns="http://www.w3.org/2000/svg" width="113.036" height="113.036" viewBox="0 0 113.036 113.036"><g transform="translate(-244.976 5.4)"><g transform="translate(301.4 -5.4) rotate(45)" fill="#3b45a2" stroke-linecap="round" stroke-linejoin="round"><path d="M 39.54640960693359 78.79631805419922 C 37.29006576538086 78.79634094238281 35.15178680419922 78.69673919677734 33.52546691894531 78.51586151123047 C 31.38583946228027 78.27790069580078 30.71098136901855 77.97117614746094 30.5414924621582 77.87210845947266 C 30.45321464538574 77.59934234619141 30.27433013916016 76.61274719238281 30.34245491027832 73.16542053222656 C 30.39362144470215 70.57627105712891 30.56466484069824 67.29244232177734 30.73007583618164 64.11673736572266 C 30.8989315032959 60.87505340576172 31.07353210449219 57.52299499511719 31.11577606201172 54.96888732910156 C 31.18068695068359 51.04423141479492 30.93760871887207 50.07123947143555 30.43548774719238 49.56910705566406 C 29.98527717590332 49.1189079284668 29.1668872833252 48.87493133544922 26.13676452636719 48.87493133544922 C 23.49560928344727 48.87493133544922 19.85678672790527 49.0634651184082 16.00430870056152 49.26305389404297 C 12.20939826965332 49.45966339111328 8.285287857055664 49.6629753112793 5.49628734588623 49.66298675537109 C 2.877344608306885 49.66299438476562 2.193821430206299 49.47623062133789 2.042304754257202 49.41641235351562 C 1.959858655929565 49.32241058349609 1.54367470741272 48.73962020874023 1.256142973899841 46.30986404418945 C 1.054109573364258 44.60266494750977 0.9671874046325684 42.35041809082031 1.011387348175049 39.96799468994141 C 1.053965210914612 37.67304229736328 1.212509632110596 35.41050720214844 1.457798480987549 33.59716415405273 C 1.772098541259766 31.27373313903809 2.107654333114624 30.55220222473145 2.211520195007324 30.37540435791016 C 2.422469854354858 30.29440879821777 3.215169906616211 30.09457397460938 5.896442890167236 30.09457397460938 C 8.877998352050781 30.09457397460938 12.9923210144043 30.33030700683594 16.97118759155273 30.55827522277832 C 20.72844314575195 30.77354049682617 24.27732086181641 30.97687530517578 26.72345352172852 30.97691917419434 C 26.72377014160156 30.97691917419434 26.72409629821777 30.97691917419434 26.72441101074219 30.97691917419434 C 29.30682945251465 30.97691917419434 30.02106094360352 30.75227928161621 30.43557548522949 30.3377628326416 C 30.85415458679199 29.91918563842773 31.16887664794922 29.2574634552002 31.10016441345215 24.96070861816406 C 31.05936431884766 22.40949630737305 30.89132118225098 19.05504035949707 30.72882080078125 15.8110408782959 C 30.56945419311523 12.62970733642578 30.40465354919434 9.34007453918457 30.35509872436523 6.746574401855469 C 30.28955459594727 3.317354440689087 30.45878028869629 2.317013263702393 30.54475593566895 2.034395456314087 C 30.73174667358398 1.92639172077179 31.47065544128418 1.59487521648407 33.81756591796875 1.32427442073822 C 35.63122177124023 1.115163207054138 37.92771911621094 1.000007748603821 40.28404235839844 1.000007748603821 C 42.58506393432617 1.000007748603821 44.78472137451172 1.111607670783997 46.47780990600586 1.314263224601746 C 48.75114440917969 1.586371898651123 49.41444396972656 1.931026220321655 49.56180191040039 2.027905225753784 C 49.65255355834961 2.278939485549927 49.85072326660156 3.241626024246216 49.77973175048828 6.787596702575684 C 49.72746658325195 9.39859676361084 49.54929733276367 12.70271873474121 49.37699890136719 15.89804077148438 C 49.20359802246094 19.1136302947998 49.02431106567383 22.43868637084961 48.98048782348633 24.96999740600586 C 48.91315460205078 28.85989570617676 49.15883255004883 29.82956314086914 49.66693115234375 30.33767509460449 C 50.10633087158203 30.77707481384277 50.86251068115234 31.01518630981445 53.59527587890625 31.01518630981445 C 56.09173202514648 31.01518630981445 59.63209915161133 30.80948638916016 63.38033294677734 30.59170722961426 C 67.27590942382812 30.36536407470703 71.30410766601562 30.13131904602051 74.23612213134766 30.13131904602051 C 77.137939453125 30.13131904602051 77.84288787841797 30.3708553314209 77.98533630371094 30.43974113464355 C 78.05855560302734 30.52287864685059 78.47635650634766 31.09396362304688 78.7763671875 33.56072998046875 C 78.98386383056641 35.26678466796875 79.08331298828125 37.51549530029297 79.056396484375 39.89263153076172 C 79.03045654296875 42.18398666381836 78.89156341552734 44.44275283813477 78.66529846191406 46.25284194946289 C 78.38737487792969 48.47618865966797 78.07952117919922 49.23564147949219 77.96562957763672 49.4527587890625 C 77.72724151611328 49.51216506958008 77.00489807128906 49.62560272216797 74.96659851074219 49.62564086914062 C 72.29967498779297 49.62569808959961 68.41107940673828 49.43797302246094 64.6505126953125 49.25643157958984 C 60.83462142944336 49.07221984863281 56.88880920410156 48.88174057006836 54.12763214111328 48.88174057006836 C 50.937744140625 48.88174057006836 50.12268829345703 49.11318588256836 49.66685485839844 49.56901931762695 C 48.83811950683594 50.39775085449219 48.78359985351562 52.96735382080078 49.34272003173828 64.84391021728516 C 49.48584365844727 67.884033203125 49.63383102416992 71.02766418457031 49.68233108520508 73.47246551513672 C 49.74268341064453 76.51499938964844 49.62252044677734 77.52639770507812 49.5489387512207 77.85519409179688 C 49.29788970947266 77.97038269042969 48.47675323486328 78.25600433349609 46.1714973449707 78.49397277832031 C 44.28311920166016 78.68891906738281 41.9302864074707 78.79628753662109 39.54640960693359 78.79631805419922 Z" stroke="none"/><path d="M 40.28406524658203 1.999992370605469 C 38.11268615722656 1.999992370605469 35.96865463256836 2.1004638671875 34.24691009521484 2.282890319824219 C 32.69996643066406 2.446800231933594 31.86003112792969 2.634605407714844 31.43252944946289 2.760345458984375 C 31.3692626953125 3.331375122070312 31.30634689331055 4.532768249511719 31.36095809936523 7.02197265625 C 31.41642761230469 9.550025939941406 31.57460403442383 12.70747375488281 31.72756958007812 15.76097106933594 C 32.33702850341797 27.92727661132812 32.260498046875 29.92704010009766 31.14267730712891 31.04486465454102 C 30.42839431762695 31.75915908813477 29.39586639404297 31.97692108154297 26.72347640991211 31.97692108154297 C 24.24873352050781 31.97692108154297 20.68600463867188 31.77276992797852 16.91410064697266 31.5566291809082 C 12.94924926757812 31.32944107055664 8.849403381347656 31.09449768066406 5.896476745605469 31.09457015991211 C 4.242813110351562 31.09461212158203 3.375274658203125 31.17249298095703 2.941497802734375 31.23649978637695 C 2.812271118164062 31.64791107177734 2.609291076660156 32.46907043457031 2.416290283203125 33.97815704345703 C 2.199615478515625 35.6722412109375 2.056640625 37.76101684570312 2.013687133789062 39.85973358154297 C 1.9686279296875 42.06118011474609 2.03326416015625 44.09768676757812 2.200614929199219 45.74907684326172 C 2.36468505859375 47.36800003051758 2.583183288574219 48.17441558837891 2.715934753417969 48.5404052734375 C 3.110786437988281 48.595703125 3.916023254394531 48.66297912597656 5.496315002441406 48.66297912597656 C 8.259490966796875 48.66297912597656 12.17055511474609 48.46034622192383 15.95286560058594 48.26438140869141 C 19.81852340698242 48.06410980224609 23.46979522705078 47.87493515014648 26.13677215576172 47.87493515014648 C 29.21656036376953 47.87493515014648 30.38613510131836 48.10556030273438 31.14258193969727 48.86200714111328 C 32.28546524047852 50.00488662719727 32.36215972900391 52.00764083862305 31.72872161865234 64.16877746582031 C 31.57013320922852 67.21353149414062 31.40614700317383 70.36196136474609 31.34867477416992 72.88373565673828 C 31.29183959960938 75.37800598144531 31.35783386230469 76.57540130615234 31.42344284057617 77.14109802246094 C 31.82026290893555 77.25379943847656 32.58078002929688 77.41716003417969 33.95122909545898 77.55535888671875 C 35.51444244384766 77.71298980712891 37.4492301940918 77.79631042480469 39.54641723632812 77.79631042480469 C 41.76369857788086 77.79631042480469 43.97753524780273 77.70102691650391 45.78009796142578 77.52803039550781 C 47.30047607421875 77.38211059570312 48.16837310791016 77.21755218505859 48.63962554931641 77.10002899169922 C 48.68646621704102 76.51497650146484 48.72493743896484 75.38487243652344 48.67689895629883 73.22522735595703 C 48.62380599975586 70.83804321289062 48.48146438598633 67.81471252441406 48.34383010864258 64.89091491699219 C 47.74151229858398 52.09681701660156 47.82210159301758 49.99956893920898 48.95974731445312 48.86192321777344 C 49.72007751464844 48.10159301757812 50.87924194335938 47.88173675537109 54.127685546875 47.88173675537109 C 56.91323852539062 47.88173675537109 60.87172317504883 48.07281494140625 64.69987487792969 48.25760650634766 C 68.44817352294922 48.43854522705078 72.32408905029297 48.62564086914062 74.96662902832031 48.62564086914062 C 76.135498046875 48.62564086914062 76.82855987548828 48.58874893188477 77.23122406005859 48.55118179321289 C 77.35508728027344 48.11556243896484 77.53556060791016 47.30276870727539 77.70291137695312 45.88252258300781 C 77.90257263183594 44.18796920776367 78.02762603759766 42.09839248657227 78.05503082275391 39.99872207641602 C 78.08375549316406 37.7972526550293 78.0067138671875 35.76079177856445 77.83222961425781 34.10952377319336 C 77.65773010253906 32.45801162719727 77.43347930908203 31.65063095092773 77.30181884765625 31.29352951049805 C 76.90391540527344 31.22520446777344 76.03061676025391 31.13130187988281 74.23613739013672 31.13130950927734 C 71.33324432373047 31.1313362121582 67.31991577148438 31.36450958251953 63.438720703125 31.59001541137695 C 59.6754150390625 31.80866241455078 56.12082672119141 32.01519393920898 53.59525299072266 32.01519393920898 C 50.82080841064453 32.01519393920898 49.69444274902344 31.77939224243164 48.95983123779297 31.04478073120117 C 47.80439376831055 29.88935852050781 47.72833633422852 27.90048599243164 48.37844085693359 15.84419250488281 C 48.54345321655273 12.78402709960938 48.71408843994141 9.619667053222656 48.773193359375 7.078742980957031 C 48.83334350585938 4.4925537109375 48.75756072998047 3.290008544921875 48.6866340637207 2.741081237792969 C 48.29540252685547 2.61810302734375 47.50688171386719 2.429962158203125 46.02851104736328 2.269485473632812 C 44.42748641967773 2.095695495605469 42.38740539550781 1.999992370605469 40.28406524658203 1.999992370605469 M 40.28406143188477 0 C 45.00563812255859 0 49.66471481323242 0.459075927734375 50.37416076660156 1.428192138671875 C 51.82024383544922 3.403579711914062 48.9621696472168 28.21870040893555 50.37403869628906 29.63056945800781 C 51.47026062011719 30.72679138183594 66.51478576660156 29.13137435913086 74.23612213134766 29.13131713867188 C 76.45947265625 29.13129806518555 78.07523345947266 29.2635612487793 78.576416015625 29.63045120239258 C 80.818115234375 31.27148818969727 80.27444458007812 49.03289794921875 78.57633209228516 50.27600479125977 C 77.24687194824219 51.24923706054688 61.52890777587891 49.88174057006836 54.127685546875 49.88173675537109 C 52.07528305053711 49.88173675537109 50.66327667236328 49.98681640625 50.37395858764648 50.2761344909668 C 49.04132080078125 51.60877227783203 51.55454635620117 76.86560821533203 50.37382888793945 78.47850036621094 C 49.19310760498047 80.09139251708984 31.11586761474609 80.37407684326172 29.72826385498047 78.47858428955078 C 28.34067535400391 76.58308410644531 31.10772323608398 51.65557098388672 29.72837066650391 50.27621459960938 C 28.63803482055664 49.18589019775391 13.11040496826172 50.66297912597656 5.496315002441406 50.66298294067383 C 3.477996826171875 50.66298294067383 2.015998840332031 50.55921936035156 1.526031494140625 50.27633666992188 C -0.8123626708984375 48.92627716064453 -0.1806564331054688 31.33754730224609 1.526107788085938 29.63078308105469 C 2.909126281738281 28.24778366088867 19.69824981689453 29.9769287109375 26.72347259521484 29.97692489624023 C 28.36812591552734 29.97692489624023 29.47688293457031 29.88223648071289 29.72846603393555 29.63065338134766 C 31.0546989440918 28.30441665649414 28.38751220703125 3.260231018066406 29.72858047485352 1.428298950195312 C 30.41172790527344 0.4951095581054688 35.38156127929688 0 40.28406143188477 0 Z" stroke="none" fill="#260f26"/></g></g></svg>