<svg xmlns="http://www.w3.org/2000/svg" xmlns:xlink="http://www.w3.org/1999/xlink" width="97.5" height="84" viewBox="0 0 97.5 84"><defs><filter id="a" x="0" y="0" width="97.5" height="84" filterUnits="userSpaceOnUse"><feOffset dx="-3" dy="3" input="SourceAlpha"/><feGaussianBlur result="b"/><feFlood flood-color="#260f26"/><feComposite operator="in" in2="b"/><feComposite in="SourceGraphic"/></filter></defs><g transform="matrix(1, 0, 0, 1, 0, 0)" filter="url(#a)"><g transform="translate(97.5 81) rotate(180)" fill="#616cd0"><path d="M 68.00312805175781 80 L 26.4968376159668 80 C 25.0797004699707 80 23.75577545166016 79.23957824707031 23.04172515869141 78.01548767089844 L 2.333400011062622 42.51547622680664 C 1.608212471008301 41.27228927612305 1.608212471008301 39.72771072387695 2.333400011062622 38.48452377319336 L 23.0417366027832 2.984524965286255 C 23.75580024719238 1.760424971580505 25.0797119140625 1 26.49684906005859 1 L 68.00312805175781 1 C 69.42027282714844 1 70.74418640136719 1.760424971580505 71.45822143554688 2.984512567520142 L 92.16661071777344 38.48452377319336 C 92.89178466796875 39.72771072387695 92.89178466796875 41.27228927612305 92.16660308837891 42.51548767089844 L 71.458251953125 78.01548767089844 C 70.74420166015625 79.23957824707031 69.42027282714844 80 68.00312805175781 80 Z" stroke="none"/><path d="M 26.49685668945312 2 C 25.43399810791016 2 24.44105529785156 2.570320129394531 23.905517578125 3.488388061523438 L 3.197174072265625 38.98837280273438 C 2.653282165527344 39.9207878112793 2.653282165527344 41.0792121887207 3.197174072265625 42.01160049438477 L 23.90550994873047 77.51161193847656 C 24.4410400390625 78.42967987060547 25.43399047851562 79 26.49684143066406 79 L 68.00313568115234 79 C 69.06598663330078 79 70.05892944335938 78.42967987060547 70.59446716308594 77.51161193847656 L 91.30281066894531 42.01162719726562 C 91.84671020507812 41.07922744750977 91.84671020507812 39.92077255249023 91.30281066894531 38.98838806152344 L 70.59445190429688 3.488372802734375 C 70.05892181396484 2.570304870605469 69.06598663330078 2 68.00313568115234 2 L 26.49685668945312 2 M 26.49685668945312 0 L 68.00313568115234 0 C 69.78146362304688 0 71.42597198486328 0.9445571899414062 72.32201385498047 2.480636596679688 L 93.03037261962891 37.98064041137695 C 93.93850708007812 39.53745269775391 93.93850708007812 41.46254730224609 93.03037261962891 43.01935958862305 L 72.32202911376953 78.51936340332031 C 71.42597198486328 80.05545043945312 69.78146362304688 81 68.00313568115234 81 L 26.49684143066406 81 C 24.718505859375 81 23.07399749755859 80.05544281005859 22.17794799804688 78.51936340332031 L 1.469612121582031 43.01934814453125 C 0.5614776611328125 41.46254730224609 0.5614776611328125 39.53746795654297 1.469612121582031 37.98064041137695 L 22.17796325683594 2.480636596679688 C 23.07401275634766 0.9445571899414062 24.71852111816406 0 26.49685668945312 0 Z" stroke="none" fill="#260f26"/></g></g></svg>