<svg xmlns="http://www.w3.org/2000/svg" width="64.286" height="75" viewBox="0 0 64.286 75"><g transform="translate(0 75) rotate(-90)" fill="#4e364e"><path d="M 53.37815093994141 63.28571701049805 L 21.62184906005859 63.28571701049805 C 20.20471000671387 63.28571701049805 18.88079071044922 62.52529525756836 18.16674041748047 61.30119705200195 L 2.333400011062622 34.1583366394043 C 1.608199954032898 32.91513824462891 1.608199954032898 31.37056732177734 2.333400011062622 30.12736701965332 L 18.16674041748047 2.984516620635986 C 18.88079071044922 1.760416626930237 20.20471954345703 0.9999966025352478 21.62186050415039 0.9999966025352478 L 53.37815093994141 0.9999966025352478 C 54.79529190063477 0.9999966025352478 56.11920928955078 1.760416626930237 56.83325958251953 2.984516620635986 L 72.66660308837891 30.12737655639648 C 73.39179992675781 31.37056732177734 73.39179992675781 32.91514587402344 72.66660308837891 34.15834808349609 L 56.83325958251953 61.30119705200195 C 56.11920928955078 62.52529525756836 54.79529190063477 63.28571701049805 53.37815093994141 63.28571701049805 Z" stroke="none"/><path d="M 21.62185668945312 2 C 20.55899810791016 2 19.56606674194336 2.5703125 19.03052139282227 3.488388061523438 L 3.197174072265625 30.63123321533203 C 2.653289794921875 31.56363296508789 2.653289794921875 32.72207641601562 3.197174072265625 33.65446853637695 L 19.03052139282227 60.79733276367188 C 19.56605529785156 61.71540069580078 20.55899047851562 62.28571319580078 21.62184524536133 62.28571319580078 L 53.37814331054688 62.28571319580078 C 54.44100189208984 62.28571319580078 55.43394470214844 61.71538925170898 55.96949005126953 60.79732513427734 L 71.80282592773438 33.65447998046875 C 72.34671020507812 32.72207641601562 72.34671020507812 31.56363296508789 71.80282592773438 30.63124465942383 L 55.96949005126953 3.488388061523438 C 55.43394470214844 2.570323944091797 54.44100189208984 2 53.37814331054688 2 L 21.62185668945312 2 M 21.62185668945312 0 L 53.37814331054688 0 C 55.15647888183594 0 56.80098724365234 0.9445571899414062 57.69704437255859 2.480644226074219 L 73.53038024902344 29.62350082397461 C 74.43851470947266 31.18031311035156 74.43851470947266 33.10540008544922 73.53038024902344 34.66221237182617 L 57.69704437255859 61.80506896972656 C 56.80098724365234 63.34115600585938 55.15647888183594 64.28571319580078 53.37814331054688 64.28571319580078 L 21.62184524536133 64.28571319580078 C 19.84350967407227 64.28571319580078 18.19900131225586 63.34115600585938 17.30295562744141 61.80506896972656 L 1.469619750976562 34.66221237182617 C 0.5614852905273438 33.10539245605469 0.5614852905273438 31.18031311035156 1.469619750976562 29.62350082397461 L 17.3029670715332 2.480644226074219 C 18.19901275634766 0.9445571899414062 19.84352111816406 0 21.62185668945312 0 Z" stroke="none" fill="#260f26"/></g></svg>