<svg xmlns="http://www.w3.org/2000/svg" width="64" height="75" viewBox="0 0 64 75"><g transform="translate(0 75) rotate(-90)" fill="#934ebf"><path d="M 53.38459014892578 63 L 21.61540031433105 63 C 20.20144081115723 63 18.87902069091797 62.24214935302734 18.16419982910156 61.02217864990234 L 2.343899965286255 34.02217864990234 C 1.613029956817627 32.77484893798828 1.613029956817627 31.22513961791992 2.343899965286255 29.97781944274902 L 18.16420936584473 2.977819919586182 C 18.87903022766113 1.757850050926208 20.20145034790039 1 21.61540985107422 1 L 53.38460159301758 1 C 54.79856109619141 1 56.12097930908203 1.757850050926208 56.83578872680664 2.977809906005859 L 72.65611267089844 29.97781944274902 C 73.38697052001953 31.22513961791992 73.38697052001953 32.77486038208008 72.65611267089844 34.02217864990234 L 56.83578872680664 61.02217864990234 C 56.12097930908203 62.24214935302734 54.79856109619141 63 53.38459014892578 63 Z" stroke="none"/><path d="M 21.61539840698242 2 C 20.554931640625 2 19.5631217956543 2.568389892578125 19.02701187133789 3.483356475830078 L 3.206687927246094 30.48335647583008 C 2.658546447753906 31.41885375976562 2.658546447753906 32.58114624023438 3.206687927246094 33.51664352416992 L 19.02700042724609 60.51662063598633 C 19.5631217956543 61.43159866333008 20.554931640625 62 21.61539840698242 62 L 53.38459014892578 62 C 54.44505310058594 62 55.4368782043457 61.43161010742188 55.97298812866211 60.51663208007812 L 71.79329681396484 33.51663208007812 C 72.34144592285156 32.58114624023438 72.34144592285156 31.41885375976562 71.79329681396484 30.48335647583008 L 55.97298812866211 3.483356475830078 C 55.4368782043457 2.568389892578125 54.445068359375 2 53.38459777832031 2 L 21.61539840698242 2 M 21.61539840698242 0 L 53.38459777832031 0 C 55.15946578979492 0 56.80131149291992 0.9409103393554688 57.69858932495117 2.472267150878906 L 73.51889801025391 29.47226715087891 C 74.43357849121094 31.03330993652344 74.43357849121094 32.96669006347656 73.51889801025391 34.52773284912109 L 57.69858932495117 61.5277214050293 C 56.80131149291992 63.05908966064453 55.15946578979492 64 53.38459014892578 64 L 21.61539840698242 64 C 19.84053421020508 64 18.19868850708008 63.05908966064453 17.30139923095703 61.5277214050293 L 1.481086730957031 34.52773284912109 C 0.5664215087890625 32.96669006347656 0.5664215087890625 31.03329849243164 1.481086730957031 29.47226715087891 L 17.30141067504883 2.472267150878906 C 18.19868850708008 0.9409103393554688 19.84053421020508 0 21.61539840698242 0 Z" stroke="none" fill="#260f26"/></g></svg>