<svg xmlns="http://www.w3.org/2000/svg" width="94.5" height="81" viewBox="0 0 94.5 81"><g transform="translate(94.5 81) rotate(180)" fill="#3b45a2"><path d="M 68.00315093994141 80 L 26.49684906005859 80 C 25.0797119140625 80 23.75578689575195 79.23957824707031 23.0417366027832 78.01548767089844 L 2.333400011062622 42.51547622680664 C 1.608212471008301 41.27228927612305 1.608212471008301 39.72771072387695 2.333412408828735 38.48450088500977 L 23.0417366027832 2.984524965286255 C 23.75580024719238 1.760424971580505 25.07972526550293 1 26.49686241149902 1 L 68.00315093994141 1 C 69.4202880859375 1 70.74420928955078 1.760424971580505 71.45827484130859 2.984524965286255 L 92.16661071777344 38.48452377319336 C 92.89178466796875 39.72771072387695 92.89178466796875 41.27228927612305 92.16660308837891 42.51548767089844 L 71.45827484130859 78.01548767089844 C 70.74422454833984 79.23957824707031 69.42030334472656 80 68.00315093994141 80 Z" stroke="none"/><path d="M 26.49685668945312 2 C 25.43399810791016 2 24.44105529785156 2.570320129394531 23.905517578125 3.488388061523438 L 3.197189331054688 38.98838806152344 C 2.653282165527344 39.92077255249023 2.653282165527344 41.0792121887207 3.197189331054688 42.01161193847656 L 23.905517578125 77.51162719726562 C 24.44105529785156 78.42969512939453 25.43399810791016 79 26.49685668945312 79 L 68.00314331054688 79 C 69.06600952148438 79 70.05894470214844 78.42969512939453 70.594482421875 77.51161193847656 L 91.30281066894531 42.01160049438477 C 91.84671020507812 41.0792121887207 91.84671020507812 39.9207878112793 91.30281066894531 38.98838806152344 L 70.594482421875 3.488372802734375 C 70.05894470214844 2.570304870605469 69.06600189208984 2 68.00314331054688 2 L 26.49685668945312 2 M 26.49685668945312 0 L 68.00314331054688 0 C 69.78147888183594 0 71.42600250244141 0.9445571899414062 72.32203674316406 2.480636596679688 L 93.03037261962891 37.98064041137695 C 93.93850708007812 39.53746795654297 93.93850708007812 41.46254730224609 93.03037261962891 43.01934814453125 L 72.32203674316406 78.51936340332031 C 71.42600250244141 80.05545043945312 69.78147888183594 81 68.00314331054688 81 L 26.49685668945312 81 C 24.718505859375 81 23.07399749755859 80.05544281005859 22.17796325683594 78.51936340332031 L 1.469627380371094 43.01935958862305 C 0.5614776611328125 41.46253204345703 0.5614776611328125 39.53745269775391 1.469627380371094 37.98064041137695 L 22.17796325683594 2.480636596679688 C 23.07401275634766 0.9445571899414062 24.71852111816406 0 26.49685668945312 0 Z" stroke="none" fill="#260f26"/></g></svg>