<svg xmlns="http://www.w3.org/2000/svg" xmlns:xlink="http://www.w3.org/1999/xlink" width="1227.53" height="170.45" viewBox="0 0 1227.53 170.45"><defs><linearGradient id="a" x1="0.477" y1="0.192" x2="0.595" y2="1.537" gradientUnits="objectBoundingBox"><stop offset="0" stop-color="#faf2ff"/><stop offset="1" stop-color="#d08aff"/></linearGradient><linearGradient id="b" x1="0.472" y1="0.154" x2="0.586" y2="1.442" xlink:href="#a"/><linearGradient id="c" x1="0.476" y1="0.083" x2="0.612" y2="1.31" xlink:href="#a"/><linearGradient id="d" x1="0.45" y1="0.006" x2="0.58" y2="1.286" xlink:href="#a"/><linearGradient id="e" x1="0.432" y1="-0.089" x2="0.561" y2="1.17" xlink:href="#a"/><linearGradient id="f" x1="0.417" y1="-0.138" x2="0.587" y2="1.137" xlink:href="#a"/><linearGradient id="g" x1="0.435" y1="-0.184" x2="0.554" y2="1.055" xlink:href="#a"/><linearGradient id="h" x1="0.419" y1="-0.304" x2="0.55" y2="1.006" xlink:href="#a"/><linearGradient id="i" x1="0.369" y1="-0.781" x2="0.669" y2="2.139" xlink:href="#a"/><linearGradient id="j" x1="0.375" y1="-0.409" x2="0.558" y2="0.921" xlink:href="#a"/><linearGradient id="k" x1="0.423" y1="-0.39" x2="0.532" y2="0.844" xlink:href="#a"/><linearGradient id="l" x1="0.415" y1="-0.457" x2="0.529" y2="0.79" xlink:href="#a"/></defs><g style="isolation:isolate"><path d="M17.03,131.92c0-12.04,4.99-24.94,11.35-34.92,9.46-4.47,19.78-8.6,30.44-8.6h1.55c-1.2,3.78-4.47,12.56-4.47,16.17,0,2.92,1.89,3.96,4.64,3.96,4.47,0,10.83-2.41,14.96-4.13a691.588,691.588,0,0,1,45.06-83.07c12.04-6.02,29.07-9.63,42.31-10.84A761.367,761.367,0,0,0,98.54,135.7c-19.09,6.02-41.62,10.32-61.75,10.32-12.56,0-19.78.52-19.78-14.1Z" fill="url(#a)"/><path d="M117.65,139.15c-.34-22.7,33.71-95.11,45.41-116.61,11.52-4.13,24.42-6.36,37.15-7.74-8.43,14.28-38.36,70.86-38.18,84.79,0,2.58,1.72,3.96,4.3,3.96,4.47,0,13.59-4.13,18.06-5.85,11.18-28.21,25.8-55.55,41.11-81.35,12.21-6.36,29.07-9.98,42.83-11.18A761.969,761.969,0,0,0,205.21,135.2c-22.36,5.33-46.44,11.52-69.49,11.52-4.47,0-17.89-.17-18.06-7.57Z" fill="url(#b)"/><path d="M248.19,116.27c7.91-.86,39.21-9.46,39.21-18.06,0-11.52-50.05-4.82-50.05-26.14,0-4.64,2.75-8.6,5.68-12.04,28.9-34.06,78.43-49.36,121.09-55.73L346.75,45.41c-13.76,0-38.01,5.85-49.71,13.07-1.89,1.2-6.36,3.61-6.36,6.54,0,8.94,41.11,8.6,41.11,27.86,0,5.85-3.44,11.52-6.71,16.17-16.86,23.91-54.35,38.87-82.04,43.86l5.16-36.63Z" fill="url(#c)"/><path d="M335.39,148.78c5.85-14.28,12.73-28.21,19.26-42.14,9.29-19.44,18.58-38.87,28.38-57.96-11.01.34-25.28,5.5-36.46,7.57,5.16-13.24,8.43-22.02,17.72-34.06,33.88-6.54,68.28-12.04,102.68-15.48L451.32,38.36c-11.52,1.55-21.67,2.06-32.85,5.33-16.68,30.1-32.68,61.58-45.41,93.57-8.26,5.85-22.53,11.87-32.51,11.87-1.72,0-3.44-.17-5.16-.34Z" fill="url(#d)"/><path d="M479.01,151.87c15.65-41.62,39.56-99.41,63.47-135.88a86.577,86.577,0,0,1,37.67-8.94c14.45,0,31.47,4.82,31.47,22.19a39.721,39.721,0,0,1-2.75,13.42c-13.93,39.22-41.11,52.29-79.81,59l-17.54,41.62-32.51,8.6Zm64.84-84.62c10.49-.52,21.16-4.13,27.35-12.9.69-1.03,2.41-3.61,2.58-4.82a5.918,5.918,0,0,0,.17-1.72c0-4.99-2.92-7.74-7.91-7.74a29.107,29.107,0,0,0-9.46,2.06L543.85,67.24Z" fill="url(#e)"/><path d="M576.36,145.17c15.65-40.94,38.87-95.8,62.44-131.75,11.87-4.47,25.63-6.71,38.18-7.22-17.37,29.58-38.01,66.22-49.88,98.04h1.03c12.38,0,27.86-4.13,39.56-8.08-4.13,13.93-11.7,27.69-18.75,40.25-15.65,6.19-39.04,12.73-55.73,12.73-5.68,0-12.04-.69-16.86-3.96Z" fill="url(#f)"/><path d="M729.1,112.83c-9.12,1.38-19.09,3.1-27.52,6.88-5.16,6.02-9.8,16.51-12.56,24.08a84.467,84.467,0,0,1-31.82,6.19,42.231,42.231,0,0,1-6.54-.34c20.98-44.38,50.91-91.5,81.53-130.37,17.2-7.74,44.55-12.56,63.64-14.79C779.49,48,765.21,93.06,754.72,138.29c-11.7,6.19-26.49,11.7-39.73,13.42,3.96-13.24,8.94-26.14,14.1-38.87Zm11.01-33.02c5.5-10.32,9.46-22.19,12.56-33.37L740.8,50.57c-7.57,9.98-13.93,21.33-19.95,32.33,6.02-1.89,13.07-2.24,19.26-3.1Z" fill="url(#g)"/><path d="M773.13,147.92c9.46-16.68,19.44-33.2,29.41-49.54-2.24-24.42-4.64-48.85-6.19-73.1,5.5-10.32,25.28-15.31,35.6-16.34-.17,2.24-.17,4.64-.17,7.05a282.737,282.737,0,0,0,2.41,36.12c8.43-12.9,17.37-25.46,26.32-38.01a127.168,127.168,0,0,1,32.16-4.3,86.48,86.48,0,0,1,11.7.86c-11.52,13.42-22.36,27.86-33.02,42.14-21.67,29.07-42.14,59.17-61.4,89.96-8.08,3.96-22.53,5.33-31.3,5.33-1.89,0-3.78-.17-5.5-.17Z" fill="url(#h)"/><path d="M890.6,57.96c8.08-17.2,16.68-34.05,25.8-50.39,12.56.17,20.81,3.1,31.48,11.01-13.76,15.65-28.9,32.16-39.22,51.43A29.374,29.374,0,0,1,890.6,57.97Z" fill="url(#i)"/><path d="M963.01,15.48c12.73-3.27,26.14-3.61,39.21-3.61-22.7,40.93-44.2,84.45-60.03,128.48a172.953,172.953,0,0,1-33.71,8.6C922.07,103.2,942.19,58.31,963,15.48Z" fill="url(#j)"/><path d="M1016.85,153.25l2.92-66.74c-8.94,14.96-14.96,31.3-20.3,47.82-12.56,3.27-25.28,6.02-38.01,8.08a905.435,905.435,0,0,1,55.9-127.62l39.21-9.29c-1.2,20.98-2.41,42.14-3.44,63.12,8.43-17.54,16-35.43,24.6-52.97,10.66-2.92,21.67-5.68,32.85-5.68a38.957,38.957,0,0,1,7.74.69c-11.18,17.2-20.64,35.43-29.75,53.83-13.42,26.49-25.8,53.49-38.18,80.5l-33.54,8.26Z" fill="url(#k)"/><path d="M1128.13,150.84c.17-11.01.34-21.84.34-32.85,0-10.32,0-20.81-.34-31.13-8.94,14.45-15.82,31.13-21.67,47.13l-34.92,7.74c13.42-38.36,30.79-80.32,51.08-115.41a127.992,127.992,0,0,1,35.78-7.74c-1.03,18.4-1.89,36.98-2.58,55.38,7.57-21.67,15.14-43,24.77-63.29,12.56-3.78,28.21-5.33,41.28-6.02-9.63,18.58-18.06,37.67-26.32,56.93-11.52,26.49-22.53,53.32-33.37,80.15l-34.05,9.12Z" fill="url(#l)"/></g><g style="isolation:isolate"><path d="M3.27,160.65C1.21,158.93,0,154.8,0,149.13c0-10.32,4.3-23.56,11.18-34.92,2.24-1.03,4.47-2.06,6.54-2.92a92.489,92.489,0,0,1,8.43-17.03c14.96-7.22,25.63-9.63,39.04-9.12-1.89,5.85-4.82,14.62-5.5,17.2-.34,1.72-.86,2.75.34,2.75a15.4,15.4,0,0,0,6.71-1.2c11.01-22.02,24.25-45.58,36.64-65.36a40.15,40.15,0,0,1,3.78-1.55c3.78-6.71,7.4-12.73,11.01-18.23,1.03-.52,18.75-9.46,51.43-12.21-24.25,38.01-52.98,93.05-68.46,131.92-5.16,1.72-10.49,3.1-15.65,4.47l-4.13,9.98c-19.78,6.19-43.52,10.15-61.75,10.15-8.6,0-14.45-.86-16.34-2.41Zm93.91-26.32c14.45-35.43,40.94-87.2,62.44-121.77-12.04,1.38-28.72,5.85-37.84,10.15-15.65,25.11-34.74,60.37-45.06,83.07-8.26,3.27-12.73,4.47-16,4.47-4.3,0-6.54-2.06-6.54-5.85a12.614,12.614,0,0,1,.52-3.44c.52-1.89,1.89-6.54,3.44-10.84-7.91.17-16.51,2.58-28.55,8.08-6.71,10.83-10.84,23.56-10.84,33.71,0,4.82,1.03,8.6,2.75,10.15,1.55,1.38,6.71,2.06,15.14,2.06,18.23,0,41.62-3.78,60.54-9.8Z" fill="#4e364e"/><path d="M101.13,156.86c-.34-14.79,21.5-71.72,44.55-115.58.69-.17,2.58-.86,4.99-1.55,2.92-6.19,5.85-12.56,9.46-19.09,9.46-3.44,28.9-7.05,45.92-8.77-19.61,33.37-34.92,65.36-40.42,85.31a17.433,17.433,0,0,0-.34,2.06c0,.69.34,1.03,1.2,1.03a29.35,29.35,0,0,0,8.43-2.41,686.687,686.687,0,0,1,32.85-62.61l3.78-1.55c2.41-4.47,5.16-9.29,10.66-18.75,1.03-.52,18.58-9.8,51.26-12.56-23.22,38.01-51.08,95.29-66.39,136.05-4.64,1.2-9.8,2.24-15.14,3.44l-4.3,11.18c-33.54,7.91-55.38,11.52-68.8,11.52-11.52,0-17.37-2.58-17.72-7.74Zm48.85-12.73c13.07-1.55,29.93-4.82,53.32-10.32,13.07-35.43,38.01-87.2,60.2-125.21-11.52,1.38-27.69,5.85-37.67,10.49-14.79,24.94-31.99,58.82-40.42,80.32-7.4,3.1-14.1,5.85-18.58,6.02-4.47.34-6.71-1.72-6.71-6.02a15.032,15.032,0,0,1,.52-3.78c5.33-18.92,19.78-50.22,35.6-77.4-10.83,1.38-24.08,4.13-32.33,6.88-23.05,43.69-44.72,99.59-44.03,114.03.17,4.13,4.64,6.19,13.59,6.19a143.8,143.8,0,0,0,16.51-1.2Z" fill="#4e364e"/><path d="M230.99,133.47a73.508,73.508,0,0,0,11.7-2.41l2.41-17.89c3.96-.34,11.35-2.06,17.2-3.78a93.3,93.3,0,0,0-13.93-2.75c-17.54-2.06-28.21-8.6-28.21-17.37,0-3.78,2.06-8.08,5.68-12.04,3.27-3.61,6.02-6.36,8.26-8.6q1.29-4.9,6.19-10.84C266.59,27.69,308.56,8.94,369.62,0L349.15,48.85a91.938,91.938,0,0,0-14.28,1.2l-5.33,12.56c-8.43,0-20.12,2.06-30.27,5.16,5.16,2.06,10.66,3.27,15.65,4.99,13.76,4.99,20.3,11.52,20.3,20.12,0,5.16-2.58,11.35-7.4,18.23-6.54,9.12-16.17,17.37-28.04,24.25-16.34,16.34-44.2,29.41-73.96,34.74l5.16-36.64Zm14.1,17.37c34.05-6.71,64.67-23.56,78.43-42.83,4.13-5.68,6.36-10.84,6.36-15.14,0-6.54-4.99-11.18-16.68-15.31-6.19-2.24-14.45-3.96-20.12-7.05-2.75-1.55-4.3-3.27-4.3-5.33,0-2.58,2.58-5.33,7.4-8.08,12.21-7.22,34.06-13.07,49.54-13.42L361.37,6.36c-53.15,8.26-92.71,26.83-117.13,54.87-3.27,3.78-4.99,7.4-4.99,10.66,0,8.08,9.8,13.93,26.49,15.82,10.84,1.38,17.54,3.27,20.81,6.02a5.88,5.88,0,0,1,2.58,4.47c0,2.41-1.89,4.99-5.68,7.4-8.26,5.33-22.19,10.49-33.71,12.21l-4.64,33.02Z" fill="#4e364e"/><path d="M318.2,165.98c7.4-18.23,32.68-71.55,47.64-100.1-6.19,0-26.83,6.02-36.46,7.57,4.64-8.6,10.66-24.6,16-34.06l4.82-.86c3.61-7.22,8.77-13.93,11.87-19.44C394.75,12.73,441.7,5.85,472.84,2.58L453.58,41.45c-2.92.34-8.43,1.38-13.59,2.24l-5.85,11.87a88.715,88.715,0,0,0-19.09,1.89c-9.63,17.89-29.07,53.83-40.94,83.76a63.757,63.757,0,0,1-17.2,7.91c-.86,2.41-1.89,4.82-2.75,7.05-8.43,5.85-21.5,10.15-30.79,10.15-1.72,0-3.44-.17-5.16-.34Zm51.6-28.04c9.63-23.91,29.41-63.47,47.64-95.63,13.93-4.3,28.72-4.99,32.68-5.5L464.05,8.6c-23.74,2.58-72.58,9.98-98.73,15.14a227.2,227.2,0,0,0-15.48,30.1c4.47-.86,10.32-2.41,15.82-3.61,9.29-2.24,15.14-3.27,20.12-3.27-14.62,28.38-38.87,79.46-47.82,100.27,1.03,0,1.89.17,2.92.17,7.91,0,20.3-4.13,28.9-9.46Z" fill="#4e364e"/><path d="M461.81,169.07c20.29-53.83,46.96-110.59,63.47-135.88l4.13-1.89a205.51,205.51,0,0,1,10.84-18.06,91.056,91.056,0,0,1,39.56-9.46c22.02,0,35.26,9.63,35.26,25.46a44.956,44.956,0,0,1-2.92,14.62c-8.6,23.05-21.16,38.36-39.39,47.99-9.29,11.18-22.88,18.23-45.92,23.91-3.27,7.4-7.57,17.89-12.73,30.44l-15.48,4.13-4.3,10.15-32.51,8.6Zm48.5-27.35,17.54-41.62c45.41-8.08,66.73-23.56,79.46-57.96a38.881,38.881,0,0,0,2.58-12.73c0-13.24-10.84-20.81-29.58-20.81a87.448,87.448,0,0,0-36.64,8.6c-15.31,23.39-43.86,84.45-61.75,132.27l28.38-7.74ZM555.2,40.76a32.8,32.8,0,0,1,11.01-2.24c5.85,0,9.46,3.44,9.46,9.12,0,1.03-.17,1.89-.17,2.41-.17.34-5.85,17.72-34.57,19.09l14.28-28.38Zm-5.5,22.36a44.643,44.643,0,0,0,6.36-1.72,5.564,5.564,0,0,0-3.61-3.44Z" fill="#4e364e"/><path d="M559.16,162.37c19.26-50.39,45.58-106.29,62.43-131.75.52-.17,1.89-.69,3.61-1.2,4.13-7.57,7.91-13.76,11.35-18.92,1.2-.34,18.06-6.71,46.61-7.91-18.06,30.27-43,78.26-51.08,98.21,9.63-.86,23.74-4.3,40.76-9.98-3.61,12.73-12.73,33.02-21.5,48.33-2.92,1.2-8.77,3.1-14.28,4.64-1.72,3.44-3.44,6.54-5.33,9.8-18.92,7.4-42.31,12.73-55.9,12.73-7.05,0-12.73-1.38-16.68-3.96Zm88.58-27.35c7.22-12.73,13.76-26.32,17.2-36.12-14.28,4.64-31.82,7.74-40.25,7.05,7.74-20.64,28.9-62.78,49.19-97.87a151.114,151.114,0,0,0-34.05,6.71c-14.96,23.05-43.34,82.9-61.4,129.69,3.78,1.89,8.6,2.92,14.62,2.92C613.86,147.4,643.27,136.56,647.74,135.02Z" fill="#4e364e"/><path d="M711.9,130.03c-4.13.69-8.43,1.38-14.45,2.75-1.72,3.44-4.47,10.15-5.68,13.59a84.012,84.012,0,0,1-16,4.99c-1.38,2.92-2.92,6.88-3.96,9.63a87.218,87.218,0,0,1-31.82,6.19,55.54,55.54,0,0,1-6.54-.34c22.02-46.61,53.66-95.8,96.66-150.33,13.42-6.19,43.17-12.9,71.04-16.17-16,42.48-34.23,101.31-43.52,140.35a159.623,159.623,0,0,1-18.58,8.08l-1.55,6.71c-12.04,6.36-28.9,12.04-39.73,13.42,2.24-7.57,7.91-23.22,14.1-38.87Zm41.28,7.05c8.26-35.09,26.66-95.11,40.08-130.55-23.05,2.92-48.5,9.12-59.85,14.28-22.19,27-63.47,92.53-80.15,127.28,1.2,0,2.75.17,4.47.17a82.531,82.531,0,0,0,29.93-5.68c1.38-3.44,7.05-17.89,12.9-24.25,5.85-2.75,19.09-5.85,31.3-7.57-5.68,14.1-11.87,30.44-14.45,38.7,11.01-1.89,25.28-6.88,35.78-12.38ZM739.76,49.19l15.48-5.5c-3.61,13.24-9.63,29.07-14.1,37.67a236.532,236.532,0,0,0-23.74,4.3C726,69.84,735.29,54.7,739.76,49.2Zm-8.77,28.38q2.07-5.415,4.13-12.38c-3.78,6.36-5.85,9.63-7.74,13.07Z" fill="#4e364e"/><path d="M756.45,164.6c7.74-13.59,19.95-34.23,29.41-49.54-2.06-20.64-4.99-55.56-6.19-73.27,1.89-3.44,7.57-7.91,13.76-10.66l-.52-6.71c1.03-1.72,9.12-15.65,42.66-19.26,0,1.72-.17,5.85-.17,10.66,0,8.94.34,17.54,1.03,25.63,2.24-3.44,3.1-7.05,5.85-10.66l2.58-.34c3.96-5.5,8.43-12.04,13.76-19.26,8.77-2.41,23.56-4.3,34.92-4.3a139.666,139.666,0,0,1,17.37,1.38c-26.66,30.79-68.11,88.41-98.55,136.91a69.146,69.146,0,0,1-12.56,3.96l-6.54,10.15c-6.19,3.27-19.26,5.5-31.48,5.5-1.72,0-3.44-.17-5.33-.17Zm52.46-23.22c27.52-44.03,67.08-99.41,92.36-129.51-1.72-.34-3.1-.34-8.26-.34-14.45,0-28.38,3.27-31.48,3.96-12.04,17.03-23.39,33.37-28.55,41.28a357.278,357.278,0,0,1-2.75-40.59v-5.5c-13.76,1.89-27.86,8.43-32.16,14.96,1.2,17.54,4.13,52.12,6.19,73.1-10.15,16.86-21.33,35.6-28.38,47.64,19.61.34,30.79-4.13,33.02-4.99Z" fill="#4e364e"/><path d="M873.58,75.16c7.22-15.65,17.72-36.12,25.63-50.22h3.96c3.61-6.71,7.4-13.93,11.18-20.64,15.65,0,24.08,3.1,38.53,13.93-24.08,27.18-35.09,41.8-42.48,55.73a50.566,50.566,0,0,1-8.77-2.75,128.615,128.615,0,0,0-10.32,16c-6.54-1.03-13.76-6.02-17.72-12.04ZM945.3,18.92c-9.29-6.71-16.86-9.29-27.86-9.46-7.22,12.73-17.03,31.82-24.77,48.33a29.236,29.236,0,0,0,14.96,10.32C914.34,55.9,926.38,40.25,945.3,18.92Z" fill="#4e364e"/><path d="M947.54,30.96l4.64-1.03c2.92-5.85,5.68-11.7,8.43-17.37,8.6-2.24,26.66-3.96,47.99-4.47-28.55,51.94-50.91,99.24-63.64,134.85a145.4,145.4,0,0,1-15.31,5.16c-1.2,2.92-1.89,4.99-2.92,7.74-9.63,3.61-20.47,6.36-33.71,8.6,11.35-38.01,28.21-79.63,54.52-133.47Zm-6.71,108.01c13.42-37.32,32.51-78.26,58.48-125.39-15.14,0-25.8,1.03-35.09,3.44-25.28,51.77-41.97,92.36-53.32,129.69,11.7-2.06,21.33-4.47,29.93-7.74Z" fill="#4e364e"/><path d="M999.65,170.45l1.38-32.85c-4.99,1.2-9.63,2.41-15.14,3.44l-3.61,10.49c-12.04,3.1-28.21,6.54-38.01,8.08,13.42-38.53,36.98-92.36,55.9-127.62l5.33-1.38c4.3-8.6,8.08-15.82,9.63-18.92l45.06-10.66c-.86,16.34-1.72,29.93-2.24,40.42,2.06-4.82,3.78-8.77,4.3-10.32,1.89-.52,3.61-1.03,6.88-1.72,2.75-6.19,5.33-13.42,5.85-16.51,14.45-4.13,26.66-6.19,35.95-6.19a43.5,43.5,0,0,1,12.9,1.72c-33.02,50.57-70.35,137.94-71.03,139.49l-14.79,3.61c-2.75,5.85-4.3,9.29-4.82,10.66l-33.54,8.26Zm18.92-19.44,30.44-7.57c4.13-8.6,37.67-86.69,66.39-131.58-1.03,0-2.41-.17-3.96-.17-8.43,0-19.78,1.89-32.51,5.5-3.44,9.29-21.5,47.3-27.86,58.82.52-13.07,2.06-40.59,3.61-68.28-5.85,1.38-21.67,5.16-36.12,8.43-17.72,33.88-42.66,90.3-54.52,124.01,8.08-1.2,22.7-4.3,34.06-7.22a263.711,263.711,0,0,1,23.74-53.32l-3.27,71.38Z" fill="#4e364e"/><path d="M1111.79,168.04c.34-13.59.34-20.98.34-30.62v-9.29c-2.24,5.68-3.1,8.26-3.27,8.77l-14.45,3.27c-2.06,4.82-3.61,9.12-4.3,11.01l-34.92,7.74c13.76-39.56,35.26-88.06,51.08-115.41a12.583,12.583,0,0,1,4.3-1.55c2.92-5.68,6.54-12.56,9.98-18.58,11.18-4.47,27.18-7.74,41.45-8.43-.52,7.74-.86,14.79-1.2,21.33,2.58-5.68,4.64-9.12,5.16-8.43,2.06-.52,3.1-.86,4.3-1.2,3.44-7.74,6.02-14.96,8.08-18.58A282.95,282.95,0,0,1,1227.53.85c-13.59,26.32-40.42,87.2-62.95,143.79l-14.45,3.78c-2.06,4.82-3.61,8.77-4.3,10.49l-34.06,9.12Zm49.19-27.86c3.78-9.12,38.18-94.94,57.96-133.64-14.28,1.03-28.9,3.44-38.18,6.36,0-2.41-10.84,26.32-27,71.55.69-17.2,1.89-44.89,2.92-63.98-11.01.86-24.77,3.96-32.85,7.22-14.96,26.49-37.5,77.05-49.71,111.63l31.13-6.88c1.89-4.99,11.87-31.3,24.25-51.08.34,8.6.69,25.63.69,40.59,0,9.29-.17,16.17-.34,26.66Z" fill="#4e364e"/></g></svg>