<svg xmlns="http://www.w3.org/2000/svg" xmlns:xlink="http://www.w3.org/1999/xlink" width="320.54" height="157.35" viewBox="0 0 320.54 157.35"><defs><linearGradient id="a" x1="-0.046" y1="0.288" x2="4.274" y2="1.871" gradientUnits="objectBoundingBox"><stop offset="0" stop-color="#faf2ff"/><stop offset="1" stop-color="#d08aff"/></linearGradient><linearGradient id="b" x1="-0.636" y1="0.076" x2="3.545" y2="1.592" xlink:href="#a"/><linearGradient id="c" x1="-1.621" y1="-0.123" x2="3.35" y2="1.321" xlink:href="#a"/><linearGradient id="d" x1="-2.227" y1="-0.359" x2="2.561" y2="1.147" xlink:href="#a"/><linearGradient id="e" x1="0.258" y1="0.451" x2="5.009" y2="1.932" xlink:href="#a"/><linearGradient id="f" x1="-0.521" y1="0.244" x2="5.74" y2="1.745" xlink:href="#a"/><linearGradient id="g" x1="-0.806" y1="0.054" x2="3.534" y2="1.512" xlink:href="#a"/><linearGradient id="h" x1="-1.738" y1="-0.214" x2="3.062" y2="1.329" xlink:href="#a"/><linearGradient id="i" x1="-5.678" y1="-1.415" x2="5.322" y2="2.021" xlink:href="#a"/><linearGradient id="j" x1="-3.753" y1="-0.49" x2="2.969" y2="1.075" xlink:href="#a"/><linearGradient id="k" x1="-2.516" y1="-0.61" x2="1.5" y2="0.842" xlink:href="#a"/><linearGradient id="l" x1="-3.277" y1="-0.854" x2="0.914" y2="0.614" xlink:href="#a"/></defs><g transform="translate(-164 -72.01)"><g transform="translate(164 72)" style="isolation:isolate"><g style="isolation:isolate"><path d="M56.88,55.23c0-5.04,2.09-10.44,4.75-14.62,3.96-1.87,8.28-3.6,12.75-3.6h.65c-.5,1.58-1.87,5.26-1.87,6.77,0,1.22.79,1.66,1.94,1.66a19.294,19.294,0,0,0,6.26-1.73A289.056,289.056,0,0,1,100.23,8.93c5.04-2.52,12.17-4.03,17.71-4.54A318.687,318.687,0,0,0,91.01,56.81a90.043,90.043,0,0,1-25.85,4.32c-5.26,0-8.28.22-8.28-5.9Z" fill="url(#a)"/><path d="M99,58.25c-.14-9.5,14.11-39.82,19.01-48.82a68.831,68.831,0,0,1,15.55-3.24c-3.53,5.98-16.06,29.67-15.99,35.5a1.6,1.6,0,0,0,1.8,1.66c1.87,0,5.69-1.73,7.56-2.45A243.136,243.136,0,0,1,144.14,6.84c5.11-2.66,12.17-4.18,17.93-4.68A319.571,319.571,0,0,0,135.64,56.6c-9.36,2.23-19.44,4.82-29.09,4.82-1.87,0-7.49-.07-7.56-3.17Z" fill="url(#b)"/><path d="M153.65,48.68c3.31-.36,16.42-3.96,16.42-7.56,0-4.82-20.95-2.02-20.95-10.94,0-1.94,1.15-3.6,2.38-5.04,12.1-14.26,32.83-20.67,50.69-23.33l-7.27,17.21c-5.76,0-15.91,2.45-20.81,5.47-.79.5-2.66,1.51-2.66,2.74,0,3.74,17.21,3.6,17.21,11.67,0,2.45-1.44,4.82-2.81,6.77-7.06,10.01-22.75,16.27-34.35,18.36l2.16-15.34Z" fill="url(#c)"/><path d="M190.15,62.29c2.45-5.98,5.33-11.81,8.06-17.64,3.89-8.14,7.78-16.27,11.88-24.27-4.61.14-10.58,2.3-15.26,3.17,2.16-5.54,3.53-9.22,7.42-14.26,14.19-2.74,28.59-5.04,42.99-6.48l-6.55,13.25c-4.82.65-9.07.86-13.75,2.23a344.072,344.072,0,0,0-19.01,39.17c-3.46,2.45-9.43,4.97-13.61,4.97-.72,0-1.44-.07-2.16-.14Z" fill="url(#d)"/></g><g style="isolation:isolate"><path d="M7.2,149.58c6.55-17.42,16.56-41.62,26.57-56.88a36.2,36.2,0,0,1,15.77-3.74c6.05,0,13.18,2.02,13.18,9.29a16.623,16.623,0,0,1-1.15,5.62c-5.83,16.42-17.21,21.89-33.41,24.7L20.82,146,7.21,149.6Zm27.15-35.43c4.39-.22,8.86-1.73,11.45-5.4a7.59,7.59,0,0,0,1.08-2.02,2.517,2.517,0,0,0,.07-.72,2.974,2.974,0,0,0-3.31-3.24,12.192,12.192,0,0,0-3.96.86l-5.33,10.51Z" fill="url(#e)"/><path d="M47.95,146.77c6.55-17.14,16.27-40.11,26.14-55.16a52.7,52.7,0,0,1,15.99-3.02c-7.27,12.39-15.91,27.72-20.88,41.04h.43c5.18,0,11.67-1.73,16.56-3.38-1.73,5.83-4.9,11.59-7.85,16.85-6.55,2.59-16.35,5.33-23.33,5.33-2.38,0-5.04-.29-7.06-1.66Z" fill="url(#f)"/><path d="M111.89,133.24a45.368,45.368,0,0,0-11.52,2.88c-2.16,2.52-4.1,6.91-5.26,10.08a35.33,35.33,0,0,1-13.32,2.59,18.037,18.037,0,0,1-2.74-.14,298.45,298.45,0,0,1,34.13-54.58c7.2-3.24,18.65-5.26,26.64-6.19a448.823,448.823,0,0,0-17.21,56.02,52.339,52.339,0,0,1-16.63,5.62c1.66-5.54,3.74-10.95,5.9-16.27Zm4.61-13.83a70.092,70.092,0,0,0,5.26-13.97l-4.97,1.73a108.432,108.432,0,0,0-8.35,13.54A51.08,51.08,0,0,1,116.5,119.41Z" fill="url(#g)"/><path d="M130.32,147.93c3.96-6.99,8.14-13.9,12.31-20.74-.94-10.22-1.94-20.45-2.59-30.6,2.3-4.32,10.58-6.41,14.91-6.84-.07.94-.07,1.94-.07,2.95a118.146,118.146,0,0,0,1.01,15.12c3.53-5.4,7.27-10.66,11.02-15.91a53.282,53.282,0,0,1,13.46-1.8,35.875,35.875,0,0,1,4.9.36c-4.82,5.62-9.36,11.66-13.83,17.64-9.07,12.17-17.64,24.77-25.71,37.66-3.38,1.66-9.43,2.23-13.11,2.23C131.83,148,131.04,147.93,130.32,147.93Z" fill="url(#h)"/><path d="M179.5,110.27c3.38-7.2,6.98-14.26,10.8-21.1,5.26.07,8.71,1.3,13.18,4.61-5.76,6.55-12.1,13.47-16.42,21.53a12.29,12.29,0,0,1-7.56-5.04Z" fill="url(#i)"/><path d="M209.81,92.48c5.33-1.37,10.95-1.51,16.42-1.51-9.5,17.14-18.51,35.35-25.13,53.79a72.308,72.308,0,0,1-14.11,3.6c5.69-19.15,14.11-37.95,22.83-55.88Z" fill="url(#j)"/><path d="M232.34,150.16l1.22-27.94c-3.75,6.26-6.26,13.11-8.5,20.02-5.26,1.37-10.58,2.52-15.91,3.38a379.847,379.847,0,0,1,23.4-53.43l16.42-3.89c-.5,8.79-1.01,17.64-1.44,26.43,3.53-7.34,6.7-14.83,10.3-22.18,4.46-1.22,9.07-2.38,13.75-2.38a16.138,16.138,0,0,1,3.24.29A221.42,221.42,0,0,0,262.36,113c-5.62,11.09-10.8,22.39-15.99,33.7l-14.04,3.46Z" fill="url(#k)"/><path d="M278.93,149.15c.07-4.61.14-9.14.14-13.75,0-4.32,0-8.71-.14-13.03a108.474,108.474,0,0,0-9.07,19.73l-14.62,3.24c5.62-16.06,12.89-33.63,21.39-48.32a53.585,53.585,0,0,1,14.98-3.24c-.43,7.71-.79,15.48-1.08,23.19a267.817,267.817,0,0,1,10.37-26.5c5.26-1.58,11.81-2.23,17.28-2.52-4.03,7.78-7.56,15.77-11.02,23.83-4.82,11.09-9.43,22.32-13.97,33.55l-14.26,3.82Z" fill="url(#l)"/></g></g><g transform="translate(164 72)" style="isolation:isolate"><g style="isolation:isolate"><path d="M51.12,67.25c-.86-.72-1.37-2.45-1.37-4.82,0-4.32,1.8-9.87,4.68-14.62.94-.43,1.87-.86,2.74-1.22a38.8,38.8,0,0,1,3.53-7.13c6.26-3.02,10.73-4.03,16.35-3.82-.79,2.45-2.02,6.12-2.3,7.2-.14.72-.36,1.15.14,1.15a6.476,6.476,0,0,0,2.81-.5c4.61-9.22,10.15-19.08,15.34-27.36.22-.14.86-.36,1.58-.65,1.58-2.81,3.1-5.33,4.61-7.63.43-.22,7.85-3.96,21.53-5.11C110.61,18.65,98.58,41.7,92.1,57.97c-2.16.72-4.39,1.3-6.55,1.87l-1.73,4.18a93.737,93.737,0,0,1-25.85,4.25c-3.6,0-6.05-.36-6.84-1.01ZM90.44,56.23A392.7,392.7,0,0,1,116.58,5.25,60.074,60.074,0,0,0,100.74,9.5,351.68,351.68,0,0,0,81.87,44.28c-3.46,1.37-5.33,1.87-6.7,1.87-1.8,0-2.74-.86-2.74-2.45a5.151,5.151,0,0,1,.22-1.44c.22-.79.79-2.74,1.44-4.54-3.31.07-6.91,1.08-11.95,3.38-2.81,4.54-4.54,9.87-4.54,14.11,0,2.02.43,3.6,1.15,4.25.65.58,2.81.86,6.34.86a90.458,90.458,0,0,0,25.35-4.1Z" fill="#4e364e"/><path d="M92.09,65.67c-.14-6.19,9-30.03,18.65-48.39.29-.07,1.08-.36,2.09-.65,1.22-2.59,2.45-5.26,3.96-7.99,3.96-1.44,12.1-2.95,19.23-3.67-8.21,13.97-14.62,27.36-16.92,35.71a7.462,7.462,0,0,0-.14.86c0,.29.14.43.5.43a12.275,12.275,0,0,0,3.53-1.01,288.382,288.382,0,0,1,13.75-26.21l1.58-.65c1.01-1.87,2.16-3.89,4.46-7.85.43-.22,7.78-4.1,21.46-5.26a384.018,384.018,0,0,0-27.79,56.96c-1.94.5-4.1.94-6.34,1.44l-1.8,4.68c-14.04,3.31-23.19,4.82-28.8,4.82-4.83,0-7.27-1.08-7.42-3.24Zm20.45-5.33a210.9,210.9,0,0,0,22.32-4.32c5.47-14.83,15.91-36.51,25.2-52.42a60.548,60.548,0,0,0-15.77,4.39c-6.19,10.44-13.39,24.63-16.92,33.63-3.1,1.3-5.9,2.45-7.78,2.52-1.87.14-2.81-.72-2.81-2.52a6.122,6.122,0,0,1,.22-1.58c2.23-7.92,8.28-21.03,14.91-32.4a81.6,81.6,0,0,0-13.54,2.88c-9.65,18.29-18.72,41.69-18.43,47.74.07,1.73,1.94,2.59,5.69,2.59a60,60,0,0,0,6.91-.5Z" fill="#4e364e"/><path d="M146.45,55.88a30.274,30.274,0,0,0,4.9-1.01l1.01-7.49a45.3,45.3,0,0,0,7.2-1.58,38.335,38.335,0,0,0-5.83-1.15c-7.34-.86-11.81-3.6-11.81-7.27a7.909,7.909,0,0,1,2.38-5.04c1.37-1.51,2.52-2.66,3.46-3.6a12.41,12.41,0,0,1,2.59-4.54C161.37,11.6,178.94,3.75,204.5.01l-8.57,20.45a38.5,38.5,0,0,0-5.98.5l-2.23,5.26a47.529,47.529,0,0,0-12.67,2.16c2.16.86,4.46,1.37,6.55,2.09,5.76,2.09,8.5,4.82,8.5,8.42,0,2.16-1.08,4.75-3.1,7.63a37.314,37.314,0,0,1-11.74,10.15c-6.84,6.84-18.51,12.31-30.96,14.54l2.16-15.34Zm5.91,7.27c14.26-2.81,27.07-9.87,32.83-17.93,1.73-2.38,2.67-4.54,2.67-6.34,0-2.74-2.09-4.68-6.99-6.41-2.59-.94-6.05-1.66-8.42-2.95-1.15-.65-1.8-1.37-1.8-2.23,0-1.08,1.08-2.23,3.1-3.38,5.11-3.02,14.26-5.47,20.74-5.62l6.55-15.63C178.79,6.12,162.23,13.89,152,25.63a7.171,7.171,0,0,0-2.09,4.46c0,3.38,4.1,5.83,11.09,6.62,4.54.58,7.34,1.37,8.71,2.52a2.461,2.461,0,0,1,1.08,1.87c0,1.01-.79,2.09-2.38,3.1a40.165,40.165,0,0,1-14.11,5.11l-1.94,13.83Z" fill="#4e364e"/><path d="M182.95,69.49c3.1-7.63,13.68-29.96,19.95-41.91-2.59,0-11.23,2.52-15.27,3.17,1.94-3.6,4.46-10.3,6.7-14.26l2.02-.36c1.51-3.02,3.67-5.83,4.97-8.14C215,5.32,234.66,2.45,247.69,1.08l-8.07,16.27c-1.22.14-3.53.58-5.69.94l-2.45,4.97a37.389,37.389,0,0,0-7.99.79c-4.03,7.49-12.17,22.54-17.14,35.07a26.775,26.775,0,0,1-7.2,3.31c-.36,1.01-.79,2.02-1.15,2.95a25.615,25.615,0,0,1-12.89,4.25C184.39,69.63,183.67,69.56,182.95,69.49Zm21.6-11.74c4.03-10.01,12.31-26.57,19.95-40.04a69.374,69.374,0,0,1,13.68-2.3L244.01,3.6c-9.94,1.08-30.39,4.18-41.33,6.34a94.543,94.543,0,0,0-6.48,12.6c1.87-.36,4.32-1.01,6.62-1.51a37.1,37.1,0,0,1,8.42-1.37c-6.12,11.88-16.27,33.27-20.02,41.98.43,0,.79.07,1.22.07,3.31,0,8.5-1.73,12.1-3.96Z" fill="#4e364e"/></g><g style="isolation:isolate"><path d="M0,156.78c8.5-22.54,19.66-46.3,26.57-56.88l1.73-.79a84.3,84.3,0,0,1,4.54-7.56A38.124,38.124,0,0,1,49.4,87.59c9.22,0,14.76,4.03,14.76,10.66a18.835,18.835,0,0,1-1.22,6.12c-3.6,9.65-8.86,16.06-16.49,20.09-3.89,4.68-9.58,7.63-19.23,10.01-1.37,3.1-3.17,7.49-5.33,12.75l-6.48,1.73-1.8,4.25L0,156.8Zm20.31-11.45,7.34-17.43c19.01-3.38,27.94-9.86,33.27-24.27A16.3,16.3,0,0,0,62,98.3c0-5.54-4.54-8.71-12.38-8.71a36.643,36.643,0,0,0-15.34,3.6c-6.41,9.79-18.36,35.36-25.85,55.37l11.88-3.24ZM39.1,103.06a13.709,13.709,0,0,1,4.61-.94c2.45,0,3.96,1.44,3.96,3.82,0,.43-.07.79-.07,1.01-.07.14-2.45,7.42-14.47,7.99l5.98-11.88Zm-2.3,9.36a18.4,18.4,0,0,0,2.66-.72,2.335,2.335,0,0,0-1.51-1.44Z" fill="#4e364e"/><path d="M40.75,153.97c8.06-21.1,19.08-44.5,26.14-55.16.22-.07.79-.29,1.51-.5,1.73-3.17,3.31-5.76,4.75-7.92.5-.14,7.56-2.81,19.51-3.31-7.56,12.67-18,32.76-21.39,41.12,4.03-.36,9.94-1.8,17.07-4.18-1.51,5.33-5.33,13.83-9,20.23-1.22.5-3.67,1.3-5.98,1.94-.72,1.44-1.44,2.74-2.23,4.1-7.92,3.1-17.71,5.33-23.4,5.33a12.812,12.812,0,0,1-6.98-1.66Zm37.08-11.45a103.639,103.639,0,0,0,7.2-15.12c-5.98,1.94-13.32,3.24-16.85,2.95,3.24-8.64,12.1-26.28,20.59-40.97a63.348,63.348,0,0,0-14.26,2.81c-6.26,9.65-18.15,34.71-25.71,54.29a13.61,13.61,0,0,0,6.12,1.22c8.71,0,21.03-4.54,22.9-5.18Z" fill="#4e364e"/><path d="M104.69,140.44c-1.73.29-3.53.58-6.05,1.15-.72,1.44-1.87,4.25-2.38,5.69a35.366,35.366,0,0,1-6.7,2.09c-.58,1.22-1.22,2.88-1.66,4.03a36.461,36.461,0,0,1-13.32,2.59,23.746,23.746,0,0,1-2.74-.14c9.22-19.51,22.47-40.11,40.47-62.93,5.62-2.59,18.07-5.4,29.74-6.77a558.865,558.865,0,0,0-18.22,58.76,66.52,66.52,0,0,1-7.78,3.38l-.65,2.81a57.038,57.038,0,0,1-16.63,5.62c.94-3.17,3.31-9.72,5.9-16.27Zm17.28,2.95a538.628,538.628,0,0,1,16.78-54.65c-9.65,1.22-20.31,3.82-25.06,5.98-9.29,11.3-26.57,38.74-33.56,53.28.5,0,1.15.07,1.87.07a34.467,34.467,0,0,0,12.53-2.38c.58-1.44,2.95-7.49,5.4-10.15,2.45-1.15,7.99-2.45,13.11-3.17-2.38,5.9-4.97,12.75-6.05,16.2a56.259,56.259,0,0,0,14.98-5.18Zm-5.62-36.79,6.48-2.3a92.59,92.59,0,0,1-5.9,15.77,100.267,100.267,0,0,0-9.94,1.8c3.6-6.62,7.49-12.96,9.36-15.27Zm-3.67,11.88c.58-1.51,1.15-3.24,1.73-5.18-1.58,2.66-2.45,4.03-3.24,5.47l1.51-.29Z" fill="#4e364e"/><path d="M123.33,154.91c3.24-5.69,8.35-14.33,12.31-20.74-.86-8.64-2.09-23.26-2.59-30.67.79-1.44,3.17-3.31,5.76-4.46l-.22-2.81c.43-.72,3.82-6.55,17.86-8.06,0,.72-.07,2.45-.07,4.46,0,3.74.14,7.34.43,10.73.94-1.44,1.3-2.95,2.45-4.46l1.08-.14c1.66-2.3,3.53-5.04,5.76-8.06a63.752,63.752,0,0,1,14.62-1.8,58.5,58.5,0,0,1,7.27.58c-11.16,12.89-28.51,37.01-41.26,57.32a29.457,29.457,0,0,1-5.26,1.66l-2.74,4.25c-2.59,1.37-8.06,2.3-13.18,2.3-.72,0-1.44-.07-2.23-.07Zm21.96-9.72c11.52-18.43,28.08-41.62,38.67-54.22a18.278,18.278,0,0,0-3.46-.14,62.282,62.282,0,0,0-13.18,1.66c-5.04,7.13-9.79,13.97-11.95,17.28a149.517,149.517,0,0,1-1.15-16.99v-2.3c-5.76.79-11.67,3.53-13.46,6.26.5,7.34,1.73,21.82,2.59,30.6-4.25,7.06-8.93,14.91-11.88,19.95,8.21.14,12.89-1.73,13.83-2.09Z" fill="#4e364e"/><path d="M172.37,117.47c3.02-6.55,7.42-15.12,10.73-21.03h1.66c1.51-2.81,3.1-5.83,4.68-8.64,6.55,0,10.08,1.3,16.13,5.83-10.08,11.38-14.69,17.5-17.79,23.33a21.66,21.66,0,0,1-3.67-1.15,53.448,53.448,0,0,0-4.32,6.7A11.914,11.914,0,0,1,172.37,117.47ZM202.4,93.92a18.441,18.441,0,0,0-11.67-3.96c-3.02,5.33-7.13,13.32-10.37,20.23a12.235,12.235,0,0,0,6.26,4.32c2.81-5.11,7.85-11.67,15.77-20.59Z" fill="#4e364e"/><path d="M203.33,98.96l1.94-.43c1.22-2.45,2.38-4.9,3.53-7.27,3.6-.94,11.16-1.66,20.09-1.87-11.95,21.75-21.31,41.55-26.64,56.45a60.523,60.523,0,0,1-6.41,2.16c-.5,1.22-.79,2.09-1.22,3.24a76.187,76.187,0,0,1-14.11,3.6c4.75-15.91,11.81-33.34,22.83-55.88Zm-2.81,45.22c5.62-15.62,13.61-32.76,24.48-52.49-6.34,0-10.8.43-14.69,1.44-10.58,21.67-17.57,38.67-22.32,54.29a68.016,68.016,0,0,0,12.53-3.24Z" fill="#4e364e"/><path d="M225.14,157.36l.58-13.75c-2.09.5-4.03,1.01-6.34,1.44l-1.51,4.39c-5.04,1.3-11.81,2.74-15.91,3.38a427.422,427.422,0,0,1,23.4-53.43l2.23-.58c1.8-3.6,3.38-6.62,4.03-7.92l18.87-4.46c-.36,6.84-.72,12.53-.94,16.92.86-2.02,1.58-3.67,1.8-4.32.79-.22,1.51-.43,2.88-.72a39.613,39.613,0,0,0,2.45-6.91,57.509,57.509,0,0,1,15.05-2.59,18.285,18.285,0,0,1,5.4.72c-13.83,21.17-29.45,57.75-29.74,58.4l-6.19,1.51c-1.15,2.45-1.8,3.89-2.02,4.46l-14.04,3.46Zm7.92-8.14,12.75-3.17c1.73-3.6,15.77-36.29,27.79-55.08-.43,0-1.01-.07-1.66-.07a53,53,0,0,0-13.61,2.3c-1.44,3.89-9,19.8-11.67,24.63.22-5.47.86-16.99,1.51-28.59-2.45.58-9.07,2.16-15.12,3.53-7.42,14.19-17.86,37.8-22.83,51.92,3.38-.5,9.5-1.8,14.26-3.02a110.3,110.3,0,0,1,9.94-22.32l-1.37,29.88Z" fill="#4e364e"/><path d="M272.09,156.35c.14-5.69.14-8.78.14-12.82v-3.89c-.94,2.38-1.3,3.46-1.37,3.67l-6.05,1.37c-.86,2.02-1.51,3.82-1.8,4.61l-14.62,3.24c5.76-16.56,14.76-36.87,21.39-48.32a5.306,5.306,0,0,1,1.8-.65c1.22-2.38,2.74-5.26,4.18-7.78a58.123,58.123,0,0,1,17.35-3.53c-.22,3.24-.36,6.19-.5,8.93,1.08-2.38,1.94-3.82,2.16-3.53.86-.22,1.3-.36,1.8-.5,1.44-3.24,2.52-6.26,3.38-7.78a118.263,118.263,0,0,1,20.59-3.02c-5.69,11.02-16.92,36.51-26.35,60.2l-6.05,1.58c-.86,2.02-1.51,3.67-1.8,4.39l-14.26,3.82Zm20.59-11.67c1.58-3.82,15.99-39.75,24.27-55.95a77.633,77.633,0,0,0-15.99,2.66c0-1.01-4.54,11.02-11.3,29.96.29-7.2.79-18.79,1.22-26.79a53.337,53.337,0,0,0-13.75,3.02c-6.26,11.09-15.7,32.26-20.81,46.73l13.03-2.88c.79-2.09,4.97-13.1,10.15-21.39.14,3.6.29,10.73.29,16.99,0,3.89-.07,6.77-.14,11.16l13.03-3.53Z" fill="#4e364e"/></g></g></g></svg>