<?xml version="1.0" encoding="UTF-8"?>
<svg id="Calque_2" data-name="Calque 2" xmlns="http://www.w3.org/2000/svg" xmlns:xlink="http://www.w3.org/1999/xlink" viewBox="0 0 251.74 284.91">
  <defs>
    <style>
      .cls-1 {
        fill: none;
        stroke: #260f26;
        stroke-linecap: round;
        stroke-linejoin: round;
        stroke-width: 2px;
      }

      .cls-2 {
        fill: #7c9ede;
      }

      .cls-3 {
        fill: url(#Dégradé_sans_nom_267);
      }

      .cls-4 {
        fill: url(#Dégradé_sans_nom_293);
      }

      .cls-5 {
        fill: #d08aff;
      }

      .cls-6 {
        fill: #934ebf;
      }

      .cls-7 {
        fill: url(#Nouvelle_nuance_de_dégradé_1_5);
      }
    </style>
    <linearGradient id="Nouvelle_nuance_de_dégradé_1_5" data-name="Nouvelle nuance de dégradé 1 5" x1="51.85" y1="-9.65" x2="74.07" y2="162.8" gradientUnits="userSpaceOnUse">
      <stop offset="0" stop-color="#b78ad4"/>
      <stop offset="1" stop-color="#934ebf"/>
    </linearGradient>
    <linearGradient id="Dégradé_sans_nom_293" data-name="Dégradé sans nom 293" x1="167.45" y1="12.12" x2="227.3" y2="194.64" gradientUnits="userSpaceOnUse">
      <stop offset=".04" stop-color="#5d8bde"/>
      <stop offset=".37" stop-color="#6f96de"/>
      <stop offset=".67" stop-color="#7c9ede"/>
      <stop offset=".72" stop-color="#80a1de"/>
      <stop offset=".78" stop-color="#8daae1"/>
      <stop offset=".84" stop-color="#a2b9e5"/>
      <stop offset=".9" stop-color="#c0cfec"/>
      <stop offset=".97" stop-color="#e7eaf4"/>
      <stop offset="1" stop-color="#fffcf9"/>
    </linearGradient>
    <linearGradient id="Dégradé_sans_nom_267" data-name="Dégradé sans nom 267" x1="98.23" y1="114.18" x2="143.86" y2="287.81" gradientUnits="userSpaceOnUse">
      <stop offset="0" stop-color="#dfb0ff"/>
      <stop offset=".75" stop-color="#d08aff"/>
      <stop offset=".8" stop-color="#d18dfe"/>
      <stop offset=".85" stop-color="#d699fe"/>
      <stop offset=".89" stop-color="#deacfd"/>
      <stop offset=".94" stop-color="#e9c6fb"/>
      <stop offset=".98" stop-color="#f7e8fa"/>
      <stop offset="1" stop-color="#fffcf9"/>
    </linearGradient>
  </defs>
  <g id="petits_chevaux" data-name="petits chevaux">
    <g>
      <path class="cls-7" d="M12.16,38.97C2.16,43.97,1.16,45.97,.16,50.97s3,35.89,6,38.44,45-10.44,46-8.44-27.16,45-26.08,52,6.3,10.59,6.19,13.3-19.11,12.7-15.11,21.7,35,16,60,16c29,0,52.98-6.95,57-15,5-10-14-19-16-21,2-4,5-13,4-28s-19-53-19-64,3-46,0-51S67.16-1.03,62.16,.97s-10,3-11,7,0,18-2,21-33,8-37,10Z"/>
      <path class="cls-1" d="M63.13,5.56c-.09,5.75-.45,16.36-1.97,19.41-.85,1.7-2.75,2.72-5.23,3.45"/>
      <path class="cls-1" d="M13.28,44.09c.84,9.95,3.91,29.9,5.87,38.96"/>
      <path class="cls-6" d="M69.08,35.85c-4.92,.09-7.92,6.11-7.92,12.11s3.84,11,7.92,11,8.86-3.11,8.97-11.56-3.05-11.67-8.97-11.56Z"/>
      <path class="cls-1" d="M69.08,35.85c-4.92,.09-7.92,6.11-7.92,12.11,0,3.36,1.2,6.4,2.98,8.43,1.4,1.6,3.15,2.57,4.94,2.57,4.08,0,8.86-3.11,8.97-11.56"/>
      <path class="cls-1" d="M55.36,80.25c1.83-.13,3.08,.11,3.35,.72,.44,1-17.38,46.12-18.56,52-1,5,1,20,11,25"/>
      <path class="cls-1" d="M37.21,150.51c12.75,10.18,43.82,20.14,69.27,6.12"/>
    </g>
    <g>
      <path class="cls-4" d="M155.59,35.17c-10.78,2.95-12.16,4.71-14.11,9.42s-4.08,35.78-1.63,38.88,46.17-1.44,46.76,.71-35.43,38.82-35.74,45.9,4.11,11.62,3.47,14.25-21.23,8.72-19.06,18.33,31.2,22.54,55.71,27.42c28.44,5.67,53.31,3.54,58.83-3.56,6.86-8.83-10.01-21.37-11.58-23.72,2.74-3.53,7.45-11.77,9.4-26.68,2.01-15.34-8.27-55.69-6.12-66.48,2.15-10.79,11.94-44.53,9.97-50.02-1.96-5.49-34.13-12.92-39.43-11.94s-10.39,.99-12.16,4.71-3.52,17.65-6.07,20.2-33.93,1.39-38.24,2.57Z"/>
      <path class="cls-1" d="M212.09,12.46c-1.22,5.65-3.63,15.88-5.71,18.56-1.21,1.56-3.4,2.18-6.12,2.39"/>
      <path class="cls-1" d="M155.55,41.71c-1.01,9.81-1.79,27.41-1.73,36.74"/>
      <path class="cls-2" d="M212.02,43.25c-4.85-.87-8.96,4.44-10.14,10.33s1.62,11.54,5.62,12.34,9.29-1.32,11.05-9.58c1.76-8.26-.71-12.04-6.53-13.09Z"/>
      <path class="cls-1" d="M212.02,43.25c-4.85-.87-8.96,4.44-10.14,10.33s1.62,11.54,5.62,12.34,9.29-1.32,11.05-9.58"/>
      <path class="cls-1" d="M190.64,84.22c1.39,.26,2.27,.69,2.4,1.24,.24,1.07-27.56,43.32-28.37,47.37-.98,4.9-2.93,19.81,5.9,26.67"/>
      <path class="cls-1" d="M157.74,148.71c10.82,13.64,44.14,32.08,74.47,17.46"/>
    </g>
    <g>
      <path class="cls-3" d="M66.38,144.17c-9.65,5.64-10.52,7.71-11.19,12.76s5.35,35.62,8.51,37.97,44.22-13.37,45.35-11.44-24.15,46.68-22.61,53.6,6.98,10.16,7.05,12.86-18.24,13.93-13.66,22.65,35.97,13.67,60.92,12.03c28.94-1.9,52.41-10.41,55.89-18.7,4.33-10.31-15.22-18.04-17.34-19.91,1.73-4.12,4.14-13.3,2.16-28.2-2.04-15.33-22.43-51.64-23.15-62.62s-.02-46.1-3.34-50.89c-3.32-4.79-36.32-3.63-41.17-1.3s-9.78,3.65-10.52,7.71,1.18,17.96-.62,21.09c-1.8,3.12-32.4,10.15-36.27,12.4Z"/>
      <path class="cls-1" d="M115.1,108.51c.27,5.9,.5,15.51-.75,18.48-.82,1.95-2.99,3.14-5.84,4.08"/>
      <path class="cls-1" d="M67.78,148.84c1.35,9.17,5.37,27.5,7.99,37.16"/>
      <path class="cls-5" d="M122.97,137.33c-4.91,.41-7.5,6.62-7.11,12.6,.39,5.99,4.56,10.72,8.63,10.46s8.63-3.68,8.19-12.12c-.44-8.43-3.8-11.44-9.71-10.94Z"/>
      <path class="cls-1" d="M122.97,137.33c-4.91,.41-7.5,6.62-7.11,12.6,.39,5.99,4.56,10.72,8.63,10.46s8.63-3.68,8.19-12.12"/>
      <path class="cls-1" d="M111.91,182.57c1.97-.3,3.35-.16,3.67,.45,.51,.97-15.38,48.99-15.11,53.1,.33,4.99,2.31,19.89,12.61,24.23"/>
      <path class="cls-1" d="M97.48,252.95c12.8,9.84,46.54,18.88,71.93,1.66"/>
    </g>
  </g>
</svg>