<?xml version="1.0" encoding="UTF-8"?>
<svg id="Calque_2" data-name="Calque 2" xmlns="http://www.w3.org/2000/svg" xmlns:xlink="http://www.w3.org/1999/xlink" viewBox="0 0 508 733">
  <defs>
    <style>
      .cls-1, .cls-2 {
        fill: none;
      }

      .cls-1, .cls-2, .cls-3 {
        stroke: #260f26;
        stroke-linecap: round;
        stroke-width: 2px;
      }

      .cls-4 {
        fill: url(#Dégradé_sans_nom_127);
      }

      .cls-5 {
        fill: url(#Dégradé_sans_nom_127-4);
      }

      .cls-6 {
        fill: url(#Dégradé_sans_nom_147-3);
      }

      .cls-7 {
        fill: url(#Dégradé_sans_nom_147-7);
      }

      .cls-8 {
        fill: url(#Dégradé_sans_nom_147-4);
      }

      .cls-9 {
        fill: url(#Dégradé_sans_nom_127-6);
      }

      .cls-10 {
        fill: url(#Dégradé_sans_nom_127-8);
      }

      .cls-11 {
        fill: url(#Dégradé_sans_nom_147-9);
      }

      .cls-12 {
        fill: url(#Dégradé_sans_nom_147-2);
      }

      .cls-13 {
        fill: url(#Dégradé_sans_nom_127-2);
      }

      .cls-14 {
        fill: url(#Dégradé_sans_nom_127-5);
      }

      .cls-15 {
        fill: url(#Dégradé_sans_nom_147-8);
      }

      .cls-16 {
        fill: url(#Dégradé_sans_nom_127-3);
      }

      .cls-17 {
        fill: url(#Dégradé_sans_nom_127-11);
      }

      .cls-2, .cls-3 {
        stroke-miterlimit: 10;
      }

      .cls-18 {
        fill: url(#Dégradé_sans_nom_147);
      }

      .cls-19 {
        fill: url(#Dégradé_sans_nom_127-10);
      }

      .cls-3 {
        fill: #4e3c4e;
      }

      .cls-20 {
        fill: url(#Dégradé_sans_nom_147-6);
      }

      .cls-21 {
        fill: url(#Dégradé_sans_nom_127-9);
      }

      .cls-22 {
        fill: url(#Dégradé_sans_nom_147-5);
      }

      .cls-23 {
        fill: url(#Dégradé_sans_nom_127-7);
      }

      .cls-24 {
        fill: url(#Dégradé_sans_nom_147-10);
      }
    </style>
    <linearGradient id="Dégradé_sans_nom_127" data-name="Dégradé sans nom 127" x1="291.67" y1="680.54" x2="638.72" y2="605.3" gradientUnits="userSpaceOnUse">
      <stop offset="0" stop-color="#fffcf9"/>
      <stop offset=".08" stop-color="#e1e6f2"/>
      <stop offset=".21" stop-color="#b5c7e9"/>
      <stop offset=".33" stop-color="#96b0e3"/>
      <stop offset=".43" stop-color="#82a2df"/>
      <stop offset=".5" stop-color="#7c9ede"/>
      <stop offset=".67" stop-color="#769ade"/>
      <stop offset=".9" stop-color="#6590de"/>
      <stop offset="1" stop-color="#5d8bde"/>
    </linearGradient>
    <linearGradient id="Dégradé_sans_nom_127-2" data-name="Dégradé sans nom 127" x1="242.5" y1="453.72" x2="589.55" y2="378.49" xlink:href="#Dégradé_sans_nom_127"/>
    <linearGradient id="Dégradé_sans_nom_127-3" data-name="Dégradé sans nom 127" x1="188.72" y1="205.67" x2="535.78" y2="130.44" xlink:href="#Dégradé_sans_nom_127"/>
    <linearGradient id="Dégradé_sans_nom_127-4" data-name="Dégradé sans nom 127" x1="207.15" y1="290.66" x2="554.2" y2="215.43" xlink:href="#Dégradé_sans_nom_127"/>
    <linearGradient id="Dégradé_sans_nom_127-5" data-name="Dégradé sans nom 127" x1="185.31" y1="189.92" x2="532.37" y2="114.68" xlink:href="#Dégradé_sans_nom_127"/>
    <linearGradient id="Dégradé_sans_nom_127-6" data-name="Dégradé sans nom 127" x1="187.83" y1="201.53" x2="534.88" y2="126.29" xlink:href="#Dégradé_sans_nom_127"/>
    <linearGradient id="Dégradé_sans_nom_127-7" data-name="Dégradé sans nom 127" x1="185.5" y1="190.78" x2="532.55" y2="115.54" xlink:href="#Dégradé_sans_nom_127"/>
    <linearGradient id="Dégradé_sans_nom_127-8" data-name="Dégradé sans nom 127" x1="215.69" y1="330.05" x2="562.74" y2="254.81" xlink:href="#Dégradé_sans_nom_127"/>
    <linearGradient id="Dégradé_sans_nom_127-9" data-name="Dégradé sans nom 127" x1="219.88" y1="349.41" x2="566.94" y2="274.17" xlink:href="#Dégradé_sans_nom_127"/>
    <linearGradient id="Dégradé_sans_nom_127-10" data-name="Dégradé sans nom 127" x1="272.39" y1="591.61" x2="619.45" y2="516.38" xlink:href="#Dégradé_sans_nom_127"/>
    <linearGradient id="Dégradé_sans_nom_127-11" data-name="Dégradé sans nom 127" x1="181.7" y1="173.26" x2="528.75" y2="98.02" xlink:href="#Dégradé_sans_nom_127"/>
    <linearGradient id="Dégradé_sans_nom_147" data-name="Dégradé sans nom 147" x1="117.17" y1="736.61" x2="437.53" y2="319.17" gradientUnits="userSpaceOnUse">
      <stop offset="0" stop-color="#fffcf9"/>
      <stop offset=".14" stop-color="#efd6fb"/>
      <stop offset=".26" stop-color="#e3bafe"/>
      <stop offset=".34" stop-color="#dfb0ff"/>
      <stop offset="1" stop-color="#d08aff"/>
    </linearGradient>
    <linearGradient id="Dégradé_sans_nom_147-2" data-name="Dégradé sans nom 147" x1="-5.32" y1="642.61" x2="315.04" y2="225.17" xlink:href="#Dégradé_sans_nom_147"/>
    <linearGradient id="Dégradé_sans_nom_147-3" data-name="Dégradé sans nom 147" x1="-111.1" y1="561.43" x2="209.25" y2="143.99" xlink:href="#Dégradé_sans_nom_147"/>
    <linearGradient id="Dégradé_sans_nom_147-4" data-name="Dégradé sans nom 147" x1="-87.21" y1="579.76" x2="233.15" y2="162.33" xlink:href="#Dégradé_sans_nom_147"/>
    <linearGradient id="Dégradé_sans_nom_147-5" data-name="Dégradé sans nom 147" x1="-77.43" y1="587.27" x2="242.93" y2="169.83" xlink:href="#Dégradé_sans_nom_147"/>
    <linearGradient id="Dégradé_sans_nom_147-6" data-name="Dégradé sans nom 147" x1="66.08" y1="697.41" x2="386.44" y2="279.97" xlink:href="#Dégradé_sans_nom_147"/>
    <linearGradient id="Dégradé_sans_nom_147-7" data-name="Dégradé sans nom 147" x1="-159.56" y1="524.24" x2="160.8" y2="106.8" xlink:href="#Dégradé_sans_nom_147"/>
    <linearGradient id="Dégradé_sans_nom_147-8" data-name="Dégradé sans nom 147" x1="-168.04" y1="517.73" x2="152.32" y2="100.29" xlink:href="#Dégradé_sans_nom_147"/>
    <linearGradient id="Dégradé_sans_nom_147-9" data-name="Dégradé sans nom 147" x1="-191.85" y1="499.46" x2="128.51" y2="82.02" xlink:href="#Dégradé_sans_nom_147"/>
    <linearGradient id="Dégradé_sans_nom_147-10" data-name="Dégradé sans nom 147" x1="-191.85" y1="499.46" x2="128.51" y2="82.02" xlink:href="#Dégradé_sans_nom_147"/>
  </defs>
  <g id="echec">
    <g>
      <ellipse class="cls-4" cx="379.5" cy="661.5" rx="128.5" ry="43.5"/>
      <path class="cls-13" d="M307,173c33,50,43.92,121.57,35.96,203.79s-22.96,183.21-40.96,198.21-42,26-41,48,5,58,121.35,58.78c114.66,.76,122.46-40.88,120.65-55.78-4-33-16-31-36-46s-30.29-67.34-43-204c-12-129,20-184.51,27-206"/>
      <path class="cls-2" d="M459.67,572.16c-15.39-22.18-24.61-77.26-35.67-196.16-12-129,20-184.51,27-206"/>
      <path class="cls-2" d="M261,623c1,22,5,58,121.35,58.78,100.32,.67,118.84-31.13,120.69-49.07"/>
      <path class="cls-16" d="M322,152c-9,3-18,12-15,21s53,12.44,72,11.72,71.03-6.86,73-16.72-7-16-13-17"/>
      <path class="cls-2" d="M315.19,178.22c15.62,5.11,49.05,6.33,63.81,6.5,25,.28,71.03-6.86,73-16.72,1.55-7.76-3.51-13.11-8.66-15.58"/>
      <path class="cls-5" d="M336.97,244c-5.45-1.3-9.4,11-5.22,16,6.01,7.2,40.73,8.03,50.12,8s42.08-1.55,51.17-12c5.22-6-1.17-15.66-5.22-14-7.31,3-31.33,7-45.95,7s-36.55-3-44.9-5Z"/>
      <path class="cls-14" d="M345.4,146.1c-3.4,.9-24.4,2.9-25.4,8.9-.7,4.18,34.86,6.2,39.93,6.6"/>
      <path class="cls-9" d="M411.52,146.1c6.48,.9,28.48,2.9,28.48,5.9s-29.4,7.84-37.2,8.92"/>
      <path class="cls-2" d="M322.03,156.79c7.54,2.98,33.61,4.48,37.9,4.81"/>
      <path class="cls-2" d="M402.8,160.92c7.8-1.08,37.2-5.92,37.2-8.92"/>
      <path class="cls-23" d="M359.93,135.37c-8.93,2.63-17.91,12.15-17.93,19.63s28.33,7.2,39.66,7.1c11.34-.1,34.34-1.1,34.34-6.1,0-7-9.73-18.26-22.37-20.63"/>
      <path class="cls-10" d="M346.19,283c-14.96-5-20.4,11.9-15.87,18.09,6.53,8.92,44.23,9.95,54.44,9.91s40.12-1.19,51.16-13c7.48-8-1.87-22-14.02-17-8.09,3.33-21.26,6.47-37.14,6.47s-29.64-1.48-38.57-4.47Z"/>
      <path class="cls-21" d="M330.3,302c-6.54-7-14.02,18,3.74,25,16.1,6.35,34.58,8.94,50.99,8.47,16.31-.47,45.48-2.72,55.57-15.47s-.05-28.36-4.67-22c-6.54,9-34.6,13-50.48,13s-48.54-1.93-55.15-9Z"/>
      <path class="cls-3" d="M324.68,162.62c-2.44,2.36-4.57,5.39-5.99,9.1"/>
      <path class="cls-3" d="M342.47,165c-2.19,2.96-4.57,7.14-5.53,12.04"/>
      <path class="cls-3" d="M370.65,166.31c-.84,3.43-1.86,8.19-2.16,12.54"/>
      <path class="cls-3" d="M395.13,165c1.6,3.52,3.09,8.58,3.61,12.77"/>
      <path class="cls-3" d="M422.52,160.92c2.12,3.33,4.57,8.35,5.41,13.54"/>
      <path class="cls-3" d="M439.66,158.4c2.11,3.04,4.33,7.15,5.36,10.53"/>
      <path class="cls-19" d="M324.87,552.03c-23.5-7.43-32.94,14.48-26.04,22.88,9.94,12.09,69.73,15.61,85.93,16.14s63.73,.74,81.82-14.16c12.25-10.09-1.92-29.03-21.45-23.15-12.99,3.91-34.05,7.29-59.25,6.38-24.75-.89-46.96-3.65-61.01-8.09Z"/>
      <path class="cls-2" d="M343.08,150.18c-.69,1.64-1.08,3.27-1.08,4.82-.02,7.48,28.33,7.2,39.66,7.1,11.34-.1,34.34-1.1,34.34-6.1,0-4.57-4.14-10.94-10.53-15.49"/>
      <path class="cls-17" d="M376,119c-6.93,.99-17,5-16,12s5,11.5,16,11.25,18.21-1.99,18.61-11.62-11.61-12.63-18.61-11.63Z"/>
      <path class="cls-2" d="M362.6,137.7c2.38,3.01,6.52,4.7,13.4,4.55,10.15-.23,17.08-1.73,18.4-9.54"/>
      <path class="cls-2" d="M369.02,590.22c6.66,.45,12.23,.71,15.74,.82,16.2,.53,63.73,.74,81.82-14.16,12.25-10.09-1.92-29.03-21.45-23.15-12.99,3.91-34.05,7.29-59.25,6.38-24.75-.89-46.96-3.65-61.01-8.09-10.66-3.37-18.42-.71-23.08,3.99"/>
      <path class="cls-2" d="M315.56,582.83c8.97,2.38,20.19,4.13,31.14,5.38"/>
      <path class="cls-2" d="M358.55,333.65c8.97,1.49,18,2.06,26.48,1.82,16.31-.47,45.48-2.72,55.57-15.47s-.05-28.36-4.67-22c-6.54,9-34.6,13-50.48,13s-48.54-1.93-55.15-9c-3.05-3.27-6.31,.43-7.11,6.02"/>
      <path class="cls-2" d="M436.27,284.63c-2.92-3.88-8.3-6.13-14.37-3.63-8.09,3.33-21.26,6.47-37.14,6.47s-29.64-1.48-38.57-4.47c-3.37-1.13-6.26-1.14-8.66-.42"/>
      <path class="cls-2" d="M358.23,266.97c9.73,.88,19.34,1.04,23.64,1.03,9.4-.03,42.08-1.55,51.17-12,5.22-6-1.17-15.66-5.22-14-7.31,3-31.33,7-45.95,7s-36.55-3-44.9-5c-1.46-.35-2.81,.28-3.93,1.48"/>
    </g>
    <g>
      <ellipse class="cls-18" cx="158.5" cy="682.75" rx="158.5" ry="50.25"/>
      <path class="cls-12" d="M66,119c39,59,53.58,139.9,43.58,234.87s-28.86,211.64-51.48,228.96c-22.62,17.33-52.79,30.03-51.53,55.45s-4.15,71.1,152.51,67.89c156.66-3.21,153.91-47.23,151.64-64.43-5.03-38.12-20.11-35.81-45.25-53.14s-38.07-77.79-54.04-235.65c-15.08-149.01,25.14-213.13,33.93-237.96"/>
      <path class="cls-1" d="M66,119c39,59,53.58,139.9,43.58,234.87s-28.86,211.64-51.48,228.96"/>
      <path class="cls-1" d="M18.52,677.48c17.48,14.52,57.48,32.52,139.48,32.52,122,0,150-35.44,152.91-55.63"/>
      <path class="cls-6" d="M102.04,200.48c-6.84-1.51-11.81,12.71-6.56,18.48,7.56,8.32,51.18,9.28,63,9.24,11.81-.04,52.88-1.79,64.31-13.86,6.56-6.93-1.47-18.09-6.56-16.17-9.19,3.47-39.37,8.09-57.75,8.09s-45.93-3.47-56.43-5.78Z"/>
      <path class="cls-8" d="M113.63,245.53c-18.8-5.78-25.64,13.75-19.94,20.9,8.21,10.3,55.59,11.49,68.42,11.44s50.42-1.37,64.3-15.02c9.4-9.24-2.35-25.41-17.62-19.64-10.16,3.84-26.72,7.47-46.68,7.47s-37.25-1.71-48.48-5.16Z"/>
      <path class="cls-22" d="M93.66,267.48c-8.22-8.09-17.62,20.79,4.7,28.88,20.24,7.33,43.47,10.33,64.08,9.78,20.5-.54,57.17-3.14,69.84-17.87,12.92-15.02-.06-32.76-5.87-25.41-8.22,10.4-43.48,15.02-63.44,15.02s-61.01-2.23-69.31-10.4Z"/>
      <path class="cls-20" d="M86.84,556.3c-29.53-8.58-41.4,16.72-32.73,26.42,12.5,13.97,87.63,18.04,108,18.65s80.1,.85,102.83-16.35c15.39-11.65-2.42-33.53-26.95-26.74-16.33,4.52-42.8,8.42-74.47,7.37-31.1-1.03-59.03-4.21-76.67-9.34Z"/>
      <ellipse class="cls-7" cx="154.5" cy="115" rx="90.5" ry="20"/>
      <path class="cls-1" d="M244.13,117.78c-6.13,9.73-43.92,17.22-89.63,17.22-28.94,0-54.71-3-71.28-7.67"/>
      <ellipse class="cls-15" cx="156" cy="95.5" rx="33" ry="10.5"/>
      <path class="cls-1" d="M178.67,87.87c6.36,1.91,10.33,4.62,10.33,7.63,0,5.8-14.77,10.5-33,10.5-13.19,0-24.57-2.46-29.85-6.02"/>
      <path class="cls-11" d="M205,32.63v29.68c0,2.59-2.1,4.69-4.69,4.69h-9.12c-.9,0-1.31,1.11-.63,1.71,2.84,2.48,4.44,5.3,4.44,8.29,0,9.94-17.68,18-39.5,18s-39.5-8.06-39.5-18c0-2.98,1.59-5.79,4.4-8.26,.69-.61,.28-1.74-.64-1.74h-12.08c-2.59,0-4.69-2.1-4.69-4.69v-29.69c0-2.58,2.1-4.68,4.68-4.68h11.64c.7,0,1.03-.88,.49-1.33-3.07-2.56-4.81-5.5-4.81-8.61,0-9.94,17.68-18,39.5-18s39.5,8.06,39.5,18c0,2.88-1.49,5.61-4.15,8.03-.74,.67-.23,1.91,.77,1.91h9.69c2.59,0,4.69,2.1,4.69,4.69Z"/>
      <path class="cls-1" d="M221.11,199.49c-1.58-1.3-3.36-1.9-4.88-1.32-9.19,3.47-39.37,8.09-57.75,8.09s-45.93-3.47-56.43-5.78c-6.84-1.51-11.81,12.71-6.56,18.48,7.56,8.32,51.18,9.28,63,9.24,3.66-.01,10.14-.19,17.67-.79"/>
      <path class="cls-1" d="M219.33,242.56c-3.11-.85-6.71-.78-10.54,.66-10.16,3.84-26.72,7.47-46.68,7.47s-37.25-1.71-48.48-5.16c-11.71-3.6-18.79,2.63-21.07,9.56"/>
      <path class="cls-1" d="M235.91,266.21c-2.47-4.73-6.77-6.8-9.5-3.35-8.22,10.4-43.48,15.02-63.44,15.02s-61.01-2.23-69.31-10.4c-8.22-8.09-17.62,20.79,4.7,28.88,20.24,7.33,43.47,10.33,64.08,9.78,7.69-.2,17.65-.7,27.76-2.01"/>
      <path class="cls-24" d="M205,32.63v29.68c0,2.59-2.1,4.69-4.69,4.69h-9.12c-.9,0-1.31,1.11-.63,1.71,2.84,2.48,4.44,5.3,4.44,8.29,0,9.94-17.68,18-39.5,18s-39.5-8.06-39.5-18c0-2.98,1.59-5.79,4.4-8.26,.69-.61,.28-1.74-.64-1.74h-12.08c-2.59,0-4.69-2.1-4.69-4.69v-29.69c0-2.58,2.1-4.68,4.68-4.68h11.64c.7,0,1.03-.88,.49-1.33-3.07-2.56-4.81-5.5-4.81-8.61,0-9.94,17.68-18,39.5-18s39.5,8.06,39.5,18c0,2.88-1.49,5.61-4.15,8.03-.74,.67-.23,1.91,.77,1.91h9.69c2.59,0,4.69,2.1,4.69,4.69Z"/>
      <path class="cls-1" d="M190.56,68.71c2.84,2.48,4.44,5.3,4.44,8.29,0,9.94-17.68,18-39.5,18-13.48,0-25.37-3.07-32.5-7.77"/>
      <path class="cls-1" d="M204.26,600.59c15.17-1.09,31.26-3.28,44.15-7.5"/>
      <path class="cls-1" d="M256.98,558.64c-5.34-1.9-11.88-2.34-18.99-.37-16.33,4.52-42.8,8.42-74.47,7.37-31.1-1.03-59.03-4.21-76.67-9.34-29.53-8.58-41.4,16.72-32.73,26.42,12.5,13.97,87.63,18.04,108,18.65,5.01,.15,12.4,.28,21.03,.13"/>
    </g>
  </g>
</svg>