<?xml version="1.0" encoding="UTF-8"?>
<svg id="Calque_2" data-name="Calque 2" xmlns="http://www.w3.org/2000/svg" xmlns:xlink="http://www.w3.org/1999/xlink" viewBox="0 0 399.7 437.18">
  <defs>
    <style>
      .cls-1 {
        fill: none;
        stroke: #260f26;
        stroke-linecap: round;
        stroke-miterlimit: 10;
        stroke-width: 2px;
      }

      .cls-2 {
        fill: url(#Dégradé_sans_nom_212);
      }
    </style>
    <linearGradient id="Dégradé_sans_nom_212" data-name="Dégradé sans nom 212" x1="420.19" y1="115.49" x2="-73.29" y2="401.87" gradientUnits="userSpaceOnUse">
      <stop offset="0" stop-color="#fffcf9"/>
      <stop offset=".1" stop-color="#f6e6fa"/>
      <stop offset=".31" stop-color="#dfb0fe"/>
      <stop offset=".31" stop-color="#dfb0ff"/>
      <stop offset=".4" stop-color="#d9a1ff"/>
      <stop offset=".52" stop-color="#d393ff"/>
      <stop offset=".68" stop-color="#d08cff"/>
      <stop offset="1" stop-color="#d08aff"/>
    </linearGradient>
  </defs>
  <g id="meeple">
    <path class="cls-2" d="M190.24,.49c-8.34,.76-53.13,7.04-73.25,70.62-4.31,13.61-4.21,23.54-3.88,49.42-13,9-65.79,42.22-92.4,93.11-26.6,50.89-25.65,72.63-8.13,93.76,17.52,21.13,62.74-12.93,74.52-3.87,13,10-8.51,62.06-4.95,90.5,2.95,23.5,15.95,31.5,50.45,38.77,39.38,8.3,60.73,3.45,66.62-3.41s36.9-40.49,43.39-74.68c4.98,12.63,19.49,42.82,31.99,47.32s67.42,9.33,87.46,2.42,39.04-78.92,37.54-89.63c-2.86-20.39-31.5-65.29-45.52-83.76,7.77-11.92,22.41-39.12,31.02-56.53,8-10,9.03-18.89,6.88-25.33-4.88-14.67-3.88-36.67-71.06-55.58-16.92-4.76-28.83-6.09-46.33-8.59-3.5-21.5-7.25-91.57-84.37-84.54Z"/>
    <path class="cls-1" d="M162.36,12.79c-19.51,16.58-32.47,49.18-18.75,93.24-30,9-129,70-106,128s98-26,110,5-19,115-5,138,86.34,4.88,94.67-4.06,5.33-91.94,21.33-94.94,38,76,57,78c14.48,1.52,53.76-6.86,73.09-19.33"/>
    <path class="cls-1" d="M360.42,240.3c-14.39-21.09-27.5-39.59-28.8-48.27-2.33-15.56,32.14-5.35,50-15.4"/>
    <path class="cls-1" d="M104.31,413.87c7.31-4.84,24.31-22.84,28.31-28.84"/>
    <path class="cls-1" d="M279.62,394.03c5-4,20.7-24.45,25.85-32.72"/>
  </g>
</svg>